<svg width="31" height="32" viewBox="0 0 31 32" fill="none" xmlns="http://www.w3.org/2000/svg">
<path d="M19.5133 25.1027C19.0628 25.1027 18.6718 24.757 18.6134 24.2836C18.5502 23.7699 18.9022 23.3007 19.3995 23.2353C22.2694 22.8578 24.8393 22.0551 26.6358 20.9745C28.2789 19.9865 29.1835 18.8249 29.1835 17.7038C29.1835 16.4682 28.1249 15.4572 27.2366 14.8263C26.8234 14.5329 26.7189 13.9494 27.0031 13.5226C27.2874 13.0961 27.8529 12.9882 28.2661 13.2817C30.0546 14.5517 31 16.0807 31 17.704C31 19.5463 29.8072 21.2375 27.5504 22.5947C25.519 23.8163 22.78 24.6811 19.6292 25.0954C19.5902 25.1003 19.5514 25.1027 19.5133 25.1027Z" fill="white"/>
<path d="M15.2786 23.7598L12.8568 21.2598C12.502 20.8936 11.927 20.8936 11.5723 21.2598C11.2177 21.6258 11.2177 22.2195 11.5723 22.5855L12.2799 23.3159C9.56665 23.0266 7.10173 22.3745 5.19308 21.427C3.04721 20.3618 1.81641 19.0047 1.81641 17.7039C1.81641 16.6006 2.69765 15.4539 4.29765 14.4749C4.72928 14.211 4.87166 13.6358 4.61599 13.1905C4.36009 12.7449 3.80287 12.5979 3.37147 12.8618C0.584896 14.5669 3.8147e-06 16.4361 3.8147e-06 17.7039C3.8147e-06 19.784 1.56476 21.7063 4.40597 23.117C6.6112 24.2114 9.46376 24.9446 12.5715 25.2283L11.5723 26.2598C11.2177 26.6258 11.2177 27.2195 11.5723 27.5857C11.7496 27.7686 11.9821 27.8601 12.2146 27.8601C12.4469 27.8601 12.6794 27.7686 12.8568 27.5857L15.2786 25.0857C15.6332 24.7195 15.6332 24.1258 15.2786 23.7598Z" fill="white"/>
<path d="M9.51182 15.8264V15.6008C9.51182 14.8052 9.03998 14.6509 8.40731 14.6509C8.01612 14.6509 7.88959 14.2947 7.88959 13.9385C7.88959 13.582 8.01612 13.2258 8.40731 13.2258C8.84438 13.2258 9.30463 13.1665 9.30463 12.2046C9.30463 11.5159 8.92503 11.3496 8.45319 11.3496C7.88959 11.3496 7.60199 11.4922 7.60199 11.9553C7.60199 12.3589 7.42933 12.6321 6.76214 12.6321C5.93387 12.6321 5.83052 12.4539 5.83052 11.8838C5.83052 10.9578 6.47454 9.7583 8.45319 9.7583C9.91436 9.7583 11.0186 10.3044 11.0186 11.9077C11.0186 12.7744 10.7081 13.582 10.1329 13.8552C10.8117 14.1165 11.3062 14.6389 11.3062 15.6008V15.8264C11.3062 17.7739 10.0064 18.5103 8.39572 18.5103C6.41707 18.5103 5.65787 17.2634 5.65787 16.2659C5.65787 15.7314 5.8764 15.5889 6.50907 15.5889C7.24533 15.5889 7.42933 15.7551 7.42933 16.2065C7.42933 16.7646 7.93571 16.8953 8.45319 16.8953C9.23557 16.8953 9.51182 16.5984 9.51182 15.8264Z" fill="white"/>
<path d="M18.2891 15.6008V15.7078C18.2891 17.7502 17.0581 18.5103 15.4706 18.5103C13.8832 18.5103 12.6405 17.7502 12.6405 15.7078V12.5608C12.6405 10.5183 13.9175 9.7583 15.5742 9.7583C17.5184 9.7583 18.2891 11.0051 18.2891 11.9907C18.2891 12.5608 18.0245 12.7388 17.4493 12.7388C16.9548 12.7388 16.5174 12.6082 16.5174 12.062C16.5174 11.6108 16.0574 11.3733 15.5168 11.3733C14.838 11.3733 14.4352 11.7415 14.4352 12.5608V13.6294C14.8034 13.2139 15.3212 13.1069 15.8734 13.1069C17.1846 13.1069 18.2891 13.7007 18.2891 15.6008ZM14.4352 15.8384C14.4352 16.6577 14.8264 17.0139 15.4706 17.0139C16.1149 17.0139 16.4945 16.6577 16.4945 15.8384V15.7314C16.4945 14.8645 16.1149 14.532 15.4591 14.532C14.838 14.532 14.4352 14.8408 14.4352 15.6245V15.8384Z" fill="white"/>
<path d="M19.6811 15.7078V12.5608C19.6811 10.5183 20.9119 9.7583 22.4996 9.7583C24.087 9.7583 25.3294 10.5183 25.3294 12.5608V15.7078C25.3294 17.7502 24.087 18.5103 22.4996 18.5103C20.9119 18.5103 19.6811 17.7502 19.6811 15.7078ZM23.5348 12.5608C23.5348 11.7415 23.1438 11.3733 22.4996 11.3733C21.8553 11.3733 21.4757 11.7415 21.4757 12.5608V15.7078C21.4757 16.5271 21.8553 16.8953 22.4996 16.8953C23.1438 16.8953 23.5348 16.5271 23.5348 15.7078V12.5608Z" fill="white"/>
<path d="M27.5095 9.75C26.007 9.75 24.7849 8.48828 24.7849 6.9375C24.7849 5.38672 26.007 4.125 27.5095 4.125C29.0119 4.125 30.2341 5.38672 30.2341 6.9375C30.2341 8.48828 29.0119 9.75 27.5095 9.75ZM27.5095 6C27.0086 6 26.6013 6.42065 26.6013 6.9375C26.6013 7.45459 27.0086 7.875 27.5095 7.875C28.0102 7.875 28.4177 7.45459 28.4177 6.9375C28.4177 6.42065 28.0102 6 27.5095 6Z" fill="white"/>
</svg>
