<svg width="29" height="27" viewBox="0 0 29 27" fill="none" xmlns="http://www.w3.org/2000/svg">
<g clip-path="url(#clip0)">
<path d="M17.8749 21.1804C17.4679 21.1804 17.1148 20.8887 17.062 20.4893C17.005 20.0559 17.3229 19.66 17.7721 19.6048C20.3642 19.2863 22.6855 18.609 24.3081 17.6973C25.7922 16.8636 26.6093 15.8835 26.6093 14.9376C26.6093 13.895 25.6531 13.042 24.8507 12.5097C24.4775 12.2621 24.3831 11.7698 24.6399 11.4097C24.8967 11.0499 25.4074 10.9588 25.7806 11.2064C27.3961 12.278 28.2499 13.5681 28.2499 14.9378C28.2499 16.4922 27.1726 17.9191 25.1342 19.0642C23.2994 20.095 20.8254 20.8247 17.9796 21.1742C17.9443 21.1784 17.9093 21.1804 17.8749 21.1804Z" fill="#A88F6C"/>
<path d="M14.05 20.0474L11.8625 17.938C11.5421 17.629 11.0228 17.629 10.7024 17.938C10.3821 18.2468 10.3821 18.7477 10.7024 19.0565L11.3415 19.6729C8.89084 19.4288 6.66446 18.8786 4.94052 18.0791C3.00232 17.1803 1.89062 16.0352 1.89062 14.9377C1.89062 14.0068 2.68658 13.0392 4.13174 12.2132C4.52161 11.9905 4.65021 11.5052 4.41928 11.1295C4.18814 10.7535 3.68484 10.6295 3.2952 10.8522C0.77829 12.2909 0.25 13.868 0.25 14.9377C0.25 16.6928 1.66333 18.3147 4.22958 19.505C6.22141 20.4284 8.79791 21.047 11.6049 21.2864L10.7024 22.1567C10.3821 22.4655 10.3821 22.9665 10.7024 23.2755C10.8626 23.4298 11.0726 23.507 11.2826 23.507C11.4923 23.507 11.7023 23.4298 11.8625 23.2755L14.05 21.1661C14.3703 20.8571 14.3703 20.3561 14.05 20.0474Z" fill="#A88F6C"/>
<path d="M8.84122 13.3535V13.1632C8.84122 12.4918 8.41504 12.3616 7.8436 12.3616C7.49026 12.3616 7.37598 12.0611 7.37598 11.7605C7.37598 11.4598 7.49026 11.1592 7.8436 11.1592C8.23837 11.1592 8.65408 11.1092 8.65408 10.2976C8.65408 9.71647 8.31122 9.57619 7.88504 9.57619C7.37598 9.57619 7.11621 9.69649 7.11621 10.0873C7.11621 10.4278 6.96027 10.6583 6.35764 10.6583C5.60953 10.6583 5.51617 10.5079 5.51617 10.0269C5.51617 9.24557 6.09787 8.23352 7.88504 8.23352C9.2048 8.23352 10.2022 8.69433 10.2022 10.0471C10.2022 10.7784 9.92172 11.4598 9.40219 11.6903C10.0153 11.9107 10.462 12.3515 10.462 13.1632V13.3535C10.462 14.9967 9.2879 15.618 7.83313 15.618C6.04596 15.618 5.36023 14.566 5.36023 13.7243C5.36023 13.2734 5.55762 13.1531 6.12906 13.1531C6.79407 13.1531 6.96027 13.2933 6.96027 13.6742C6.96027 14.1451 7.41763 14.2553 7.88504 14.2553C8.59171 14.2553 8.84122 14.0048 8.84122 13.3535Z" fill="#A88F6C"/>
<path d="M16.7692 13.1632V13.2534C16.7692 14.9767 15.6573 15.618 14.2234 15.618C12.7896 15.618 11.6672 14.9767 11.6672 13.2534V10.5981C11.6672 8.87478 12.8206 8.23352 14.317 8.23352C16.073 8.23352 16.7692 9.28553 16.7692 10.1171C16.7692 10.5981 16.5302 10.7483 16.0106 10.7483C15.5639 10.7483 15.1689 10.6381 15.1689 10.1773C15.1689 9.7966 14.7534 9.59617 14.2651 9.59617C13.652 9.59617 13.2882 9.90681 13.2882 10.5981V11.4998C13.6208 11.1492 14.0884 11.0589 14.5872 11.0589C15.7716 11.0589 16.7692 11.5599 16.7692 13.1632ZM13.2882 13.3636C13.2882 14.0549 13.6415 14.3554 14.2234 14.3554C14.8054 14.3554 15.1482 14.0549 15.1482 13.3636V13.2734C15.1482 12.5419 14.8054 12.2613 14.213 12.2613C13.652 12.2613 13.2882 12.5219 13.2882 13.1831V13.3636Z" fill="#A88F6C"/>
<path d="M18.0262 13.2534V10.5981C18.0262 8.87478 19.1379 8.23352 20.572 8.23352C22.0058 8.23352 23.128 8.87478 23.128 10.5981V13.2534C23.128 14.9767 22.0058 15.618 20.572 15.618C19.1379 15.618 18.0262 14.9767 18.0262 13.2534ZM21.507 10.5981C21.507 9.90681 21.1539 9.59617 20.572 9.59617C19.9901 9.59617 19.6472 9.90681 19.6472 10.5981V13.2534C19.6472 13.9447 19.9901 14.2553 20.572 14.2553C21.1539 14.2553 21.507 13.9447 21.507 13.2534V10.5981Z" fill="#A88F6C"/>
<path d="M25.0972 8.22656C23.74 8.22656 22.6362 7.16199 22.6362 5.85352C22.6362 4.54504 23.74 3.48047 25.0972 3.48047C26.4541 3.48047 27.5581 4.54504 27.5581 5.85352C27.5581 7.16199 26.4541 8.22656 25.0972 8.22656ZM25.0972 5.0625C24.6447 5.0625 24.2769 5.41743 24.2769 5.85352C24.2769 6.28981 24.6447 6.64453 25.0972 6.64453C25.5494 6.64453 25.9175 6.28981 25.9175 5.85352C25.9175 5.41743 25.5494 5.0625 25.0972 5.0625Z" fill="#A88F6C"/>
</g>
<defs>
<clipPath id="clip0">
<rect width="28" height="27" fill="white" transform="translate(0.25)"/>
</clipPath>
</defs>
</svg>
