<svg width="50" height="50" viewBox="0 0 50 50" fill="none" xmlns="http://www.w3.org/2000/svg">
<circle cx="25" cy="24.9999" r="24.1791" fill="#EAC240"/>
<path d="M25 26C25.5523 26 26 25.5523 26 25C26 24.4477 25.5523 24 25 24C24.4477 24 24 24.4477 24 25C24 25.5523 24.4477 26 25 26Z" fill="white"/>
<path d="M29 26C29.5523 26 30 25.5523 30 25C30 24.4477 29.5523 24 29 24C28.4477 24 28 24.4477 28 25C28 25.5523 28.4477 26 29 26Z" fill="white"/>
<path d="M21 26C21.5523 26 22 25.5523 22 25C22 24.4477 21.5523 24 21 24C20.4477 24 20 24.4477 20 25C20 25.5523 20.4477 26 21 26Z" fill="white"/>
<path d="M32.07 17.93C30.4292 16.2785 28.2636 15.2512 25.9466 15.0253C23.6296 14.7993 21.3063 15.3888 19.3774 16.6922C17.4484 17.9955 16.0346 19.931 15.3798 22.165C14.7249 24.399 14.87 26.7915 15.79 28.93C15.8859 29.1288 15.9173 29.3525 15.88 29.57L15 33.8C14.9661 33.9622 14.973 34.1303 15.0201 34.2891C15.0673 34.4479 15.1531 34.5926 15.27 34.71C15.3658 34.8051 15.4799 34.8799 15.6053 34.9297C15.7308 34.9795 15.865 35.0035 16 35H16.2L20.48 34.14C20.6975 34.1139 20.9181 34.1449 21.12 34.23C23.2585 35.15 25.651 35.2951 27.885 34.6403C30.119 33.9854 32.0545 32.5716 33.3579 30.6426C34.6612 28.7137 35.2507 26.3904 35.0248 24.0734C34.7988 21.7564 33.7715 19.5908 32.12 17.95L32.07 17.93ZM32.9 26.29C32.7045 27.484 32.2407 28.6181 31.5435 29.6069C30.8464 30.5958 29.934 31.4136 28.8751 31.9989C27.8162 32.5842 26.6384 32.9216 25.4302 32.9859C24.222 33.0502 23.015 32.8396 21.9 32.37C21.5045 32.2018 21.0797 32.1135 20.65 32.11C20.4623 32.1113 20.275 32.1281 20.09 32.16L17.27 32.73L17.84 29.91C17.9535 29.2993 17.8803 28.6685 17.63 28.1C17.1604 26.985 16.9498 25.778 17.0141 24.5698C17.0784 23.3616 17.4159 22.1838 18.0011 21.1249C18.5864 20.066 19.4043 19.1536 20.3931 18.4565C21.3819 17.7593 22.516 17.2955 23.71 17.1C24.9633 16.8943 26.2475 16.99 27.4565 17.3791C28.6654 17.7682 29.7644 18.4395 30.6625 19.3376C31.5605 20.2356 32.2318 21.3346 32.6209 22.5435C33.01 23.7525 33.1057 25.0367 32.9 26.29Z" fill="white"/>
</svg>
