<svg width="20" height="20" viewBox="0 0 20 20" fill="none" xmlns="http://www.w3.org/2000/svg">
<path d="M18.2252 9.58331C17.6919 8.65831 14.7586 4.01664 9.77522 4.16664C5.16689 4.28331 2.50022 8.33331 1.77522 9.58331C1.70208 9.70999 1.66357 9.85369 1.66357 9.99998C1.66357 10.1463 1.70208 10.29 1.77522 10.4166C2.30022 11.325 5.10855 15.8333 10.0169 15.8333H10.2252C14.8336 15.7166 17.5086 11.6666 18.2252 10.4166C18.2984 10.29 18.3369 10.1463 18.3369 9.99998C18.3369 9.85369 18.2984 9.70999 18.2252 9.58331ZM10.1836 14.1666C6.59189 14.25 4.25022 11.175 3.51689 9.99998C4.35022 8.65831 6.52522 5.91664 9.85855 5.83331C13.4336 5.74164 15.7836 8.82498 16.5252 9.99998C15.6669 11.3416 13.5169 14.0833 10.1836 14.1666Z" fill="white"/>
<path d="M10.0002 7.0835C9.4233 7.0835 8.85939 7.25456 8.37975 7.57504C7.90011 7.89553 7.52627 8.35105 7.30552 8.884C7.08476 9.41695 7.027 10.0034 7.13954 10.5692C7.25208 11.135 7.52987 11.6547 7.93777 12.0626C8.34567 12.4705 8.86537 12.7482 9.43115 12.8608C9.99693 12.9733 10.5834 12.9156 11.1163 12.6948C11.6493 12.4741 12.1048 12.1002 12.4253 11.6206C12.7458 11.1409 12.9168 10.577 12.9168 10.0002C12.9168 9.22662 12.6095 8.48475 12.0626 7.93777C11.5156 7.39079 10.7737 7.0835 10.0002 7.0835ZM10.0002 11.2502C9.75294 11.2502 9.51126 11.1769 9.3057 11.0395C9.10014 10.9021 8.93992 10.7069 8.84532 10.4785C8.75071 10.2501 8.72595 9.99878 8.77418 9.7563C8.82241 9.51382 8.94147 9.2911 9.11628 9.11628C9.2911 8.94146 9.51383 8.82241 9.7563 8.77418C9.99878 8.72595 10.2501 8.7507 10.4785 8.84531C10.7069 8.93992 10.9022 9.10014 11.0395 9.3057C11.1769 9.51126 11.2502 9.75294 11.2502 10.0002C11.2502 10.3317 11.1185 10.6496 10.884 10.884C10.6496 11.1185 10.3317 11.2502 10.0002 11.2502Z" fill="white"/>
</svg>
