<svg width="40" height="40" viewBox="0 0 40 40" fill="none" xmlns="http://www.w3.org/2000/svg">
<path d="M20 0C8.95923 0.0118024 0.0118024 8.95923 0 20V35.7142C0 38.0811 1.91878 39.9999 4.28571 39.9999H10C10.789 39.9999 11.4286 39.3603 11.4286 38.5713V24.2857C11.4286 23.4967 10.789 22.8571 10 22.8571H4.28571C3.79796 22.8618 3.31465 22.9507 2.85711 23.1199V19.9999C2.85711 10.5321 10.5322 2.85703 20 2.85703C29.4677 2.85703 37.1428 10.5321 37.1428 19.9999V23.1199C36.6853 22.9507 36.202 22.8618 35.7142 22.8571H30C29.211 22.8571 28.5714 23.4967 28.5714 24.2857V38.5714C28.5714 39.3604 29.211 40 30 40H35.7143C38.0812 40 40 38.0812 40 35.7143V20C39.9882 8.95923 31.0408 0.0118024 20 0ZM4.28571 25.7143H8.57142V37.1428H4.28571C3.49671 37.1428 2.85711 36.5032 2.85711 35.7142V27.1428C2.85711 26.3539 3.49671 25.7143 4.28571 25.7143ZM37.1428 35.7143C37.1428 36.5033 36.5032 37.1429 35.7142 37.1429H31.4285V25.7143H35.7142C36.5032 25.7143 37.1428 26.3539 37.1428 27.1429V35.7143Z" fill="white"/>
</svg>
