<svg width="20" height="20" viewBox="0 0 20 20" fill="none" xmlns="http://www.w3.org/2000/svg">
<path d="M8.31906 3.92258C8.56875 3.68476 8.96469 3.69414 9.2025 3.94414C9.44063 4.19414 9.43063 4.58976 9.18094 4.82789L4.38656 9.37508H16.875C17.22 9.37508 17.5 9.65508 17.5 10.0001C17.5 10.3451 17.22 10.6251 16.875 10.6251H4.40656L9.18094 15.1726C9.43094 15.4107 9.44063 15.8063 9.2025 16.0563C9.07969 16.1851 8.915 16.2501 8.75 16.2501C8.595 16.2501 8.44 16.1929 8.31906 16.0776L2.86625 10.8838C2.63 10.6479 2.5 10.3341 2.5 10.0001C2.5 9.66601 2.63 9.35226 2.87719 9.1057L8.31906 3.92258Z" fill="white"/>
</svg>
