<svg width="408" height="807" viewBox="0 0 408 807" fill="none" xmlns="http://www.w3.org/2000/svg">
<path opacity="0.1" d="M408.035 288.863L392.523 282.442V261.842L408.035 257.562M408.035 515.194L392.523 521.347V542.215L408.035 546.227M408.035 250.071L392.523 254.352V227.331L408.035 231.344M408.035 192.819L392.523 198.973V219.84L408.035 223.853M408.035 611.237L392.523 604.817V584.217L408.035 579.936M408.035 553.719L392.523 549.706V576.727L408.035 572.446M407.767 806C406.698 802.522 405.628 799.044 402.953 796.636C401.884 795.566 400.547 794.764 399.477 793.694C396.535 790.483 395.732 785.935 395.198 781.12C393.86 784.33 391.186 786.203 387.709 786.203C384.233 786.203 381.558 784.33 380.221 781.387C381.826 781.12 383.698 780.852 384.5 780.05C386.105 778.712 386.105 776.037 386.907 773.629C387.709 770.953 389.314 769.081 391.186 767.476C393.058 766.138 394.93 764.8 397.337 764.265C398.942 763.73 400.546 763.463 401.884 763.195C401.349 759.985 399.209 757.309 396 755.972C392.791 754.634 389.581 755.169 386.907 757.31C386.372 755.169 385.57 753.564 384.767 752.494C383.43 750.889 381.825 749.818 380.488 748.481C378.349 746.073 378.081 742.328 377.814 738.85C377.012 742.328 376.209 745.806 373.535 747.946C372.198 749.284 370.058 749.819 368.721 751.424C367.651 752.494 366.581 754.099 365.779 755.972C363.639 753.296 360.43 752.226 357.221 753.029C354.012 753.564 351.337 755.972 350.267 759.182C351.872 759.717 353.209 760.252 354.547 761.055C356.686 762.125 358.558 763.73 359.895 765.335C361.5 767.208 362.57 769.348 363.105 772.024C363.372 774.431 363.105 777.107 364.442 778.712C365.244 779.782 366.849 780.317 368.453 780.852C366.581 783.795 363.64 785.133 360.163 784.33C356.686 783.795 354.546 781.387 353.744 777.909C352.407 782.457 350.802 787.005 347.326 789.413C345.988 790.216 344.651 790.751 343.314 791.821C340.372 793.694 338.767 796.904 337.163 800.114C336.628 796.637 336.093 792.891 334.221 790.216C333.419 788.878 332.081 788.076 331.279 786.738C328.872 783.26 328.872 778.444 329.14 773.629C327.535 776.572 324.326 777.909 321.116 777.374C317.64 776.839 315.233 774.431 314.43 771.221C316.035 771.221 317.907 771.489 318.977 770.686C320.581 769.616 321.384 766.941 322.453 764.8C323.791 762.393 325.663 760.787 327.802 759.45C329.674 758.38 332.081 757.577 334.221 757.31C335.826 757.042 337.43 757.042 339.035 757.042C339.035 753.564 337.43 750.889 334.488 749.016C331.546 747.411 328.337 747.143 325.395 749.016C325.128 746.876 324.86 745.27 324.058 743.665C323.256 741.793 321.651 740.455 320.581 738.85C318.977 736.174 319.244 732.429 319.779 728.951C318.442 732.429 316.837 735.64 314.163 737.245C312.558 738.315 310.419 738.582 308.814 739.652C307.477 740.455 306.407 741.793 305.07 743.665C303.465 740.722 300.523 739.117 297.047 739.117C293.57 739.117 290.895 740.99 289.291 743.933C290.628 744.736 291.965 745.538 293.302 746.608C295.174 747.946 296.779 749.819 297.849 751.691C299.186 753.831 299.988 756.239 299.721 758.915C299.721 761.322 298.919 763.998 299.721 765.603C300.523 766.673 301.86 767.476 303.465 768.278C301.058 770.686 297.849 771.489 294.64 770.418C291.43 769.081 289.558 766.406 289.558 762.928C287.419 767.208 285.012 771.489 281.267 773.361C279.93 773.896 278.326 774.431 276.988 774.966C273.779 776.304 271.639 779.247 269.5 782.19C269.5 778.712 269.767 774.966 268.163 771.756C267.36 770.418 266.558 769.081 266.023 767.743C264.151 763.73 265.221 759.182 266.291 754.367C264.151 757.042 260.674 757.844 257.465 756.507C254.256 755.437 252.116 752.761 252.116 749.284C253.721 749.551 255.326 750.086 256.663 749.551C258.535 748.748 259.605 746.341 261.209 744.468C262.814 742.328 264.953 740.99 267.36 740.187C269.5 739.385 271.907 739.117 274.046 739.117C275.651 739.117 277.256 739.385 278.86 739.652C279.663 736.442 278.326 733.232 275.919 730.824C273.244 728.684 270.035 728.149 266.826 729.219C266.826 727.079 266.826 725.206 266.558 723.868C266.023 721.995 264.686 720.39 264.151 718.518C263.081 715.575 263.884 711.829 265.221 708.619C263.349 711.562 261.209 714.505 258.267 715.842C256.395 716.645 254.523 716.645 252.651 717.18C251.314 717.715 249.977 718.785 248.372 720.39C247.302 717.18 244.628 715.04 241.151 714.505C237.674 713.97 234.733 715.307 232.593 717.715C233.93 718.785 235 719.855 236.07 720.925C237.674 722.53 238.744 724.671 239.547 726.811C240.349 729.219 240.884 731.626 240.081 734.302C239.546 736.71 238.477 739.117 239.012 740.99C239.546 742.328 240.884 743.398 242.221 744.2C239.547 746.341 236.07 746.341 233.128 744.736C230.186 742.863 228.849 739.92 229.384 736.71C226.442 740.455 223.5 744.2 219.488 745.538C218.151 745.806 216.546 746.073 214.942 746.341C211.465 747.143 208.791 749.551 206.116 751.959C206.919 748.481 207.721 744.736 206.651 741.525C206.384 740.187 205.581 738.582 205.047 737.245C203.977 732.964 205.849 728.684 207.453 724.136C204.779 726.276 201.57 726.543 198.36 724.938C195.419 723.333 193.814 720.123 194.349 716.912C195.953 717.715 197.558 718.25 198.895 717.982C200.767 717.715 202.372 715.307 204.244 713.702C206.116 711.829 208.523 711.027 210.93 710.492C213.07 709.957 215.477 710.224 217.884 710.492C219.488 710.759 220.826 711.294 222.43 711.829C223.767 708.619 223.233 705.408 221.093 702.733C218.953 700.058 215.744 698.988 212.535 699.523C213.07 697.383 213.337 695.777 213.07 694.172C212.802 692.032 211.733 690.427 211.465 688.554C210.93 685.344 212.535 682.133 214.14 678.923C211.733 681.598 209.058 684.273 205.849 684.809C203.977 685.076 201.837 684.809 199.965 685.344C198.36 685.611 197.023 686.681 195.151 687.751C194.616 684.541 192.477 681.866 189.267 680.796C186.058 679.725 182.849 680.261 180.174 682.668C181.244 684.006 182.314 685.076 183.116 686.414C184.453 688.287 185.256 690.427 185.523 692.834C186.058 695.242 185.791 697.918 184.721 700.325C183.919 702.466 182.046 704.873 182.581 706.746C182.849 708.084 183.919 709.422 185.256 710.492C182.314 712.097 178.837 711.562 176.43 709.421C173.756 707.281 172.954 704.071 174.023 700.86C170.547 704.071 167.07 707.281 162.523 707.549C161.186 707.549 159.581 707.549 157.977 707.549C154.5 707.816 151.558 709.689 148.349 711.562C149.686 708.084 151.023 704.873 150.756 701.396C150.488 699.79 150.221 698.453 149.954 696.847C149.686 692.567 152.093 688.554 154.767 684.541C151.826 686.146 148.349 685.879 145.674 683.739C143 681.598 142.198 678.388 143 675.177C144.337 675.98 145.942 677.05 147.279 677.05C149.419 677.05 151.291 675.177 153.163 673.84C155.302 672.502 157.977 671.967 160.384 671.967C162.791 671.967 164.93 672.502 167.07 673.305C168.407 673.84 170.012 674.642 171.349 675.445C172.953 672.502 173.221 669.292 171.616 666.349C170.012 663.406 167.07 661.801 163.593 661.533C164.395 659.661 164.93 658.056 165.198 656.45C165.198 654.31 164.663 652.437 164.663 650.565C164.663 647.354 166.802 644.411 168.942 641.469C166 643.609 163.058 645.749 159.849 645.749C157.977 645.749 156.105 644.947 153.965 645.214C152.36 645.214 150.756 645.749 148.884 646.819C148.884 643.341 147.012 640.666 144.07 638.793C141.128 637.188 137.651 637.188 134.977 639.061C135.779 640.399 136.581 641.736 137.116 643.341C137.919 645.481 138.453 647.889 138.453 650.03C138.453 652.437 137.919 654.845 136.581 657.253C135.244 659.393 133.372 661.266 133.372 663.139C133.372 664.476 134.442 665.814 135.244 667.419C132.035 668.489 128.826 667.419 126.686 664.744C124.546 662.068 124.279 658.858 125.884 655.915C121.872 658.591 117.86 660.998 113.581 660.731C112.244 660.731 110.64 660.196 109.035 659.928C105.558 659.661 102.349 660.998 98.8721 662.336C100.744 659.126 102.884 656.183 102.884 652.705C102.884 651.367 102.884 649.762 102.884 648.157C103.151 643.876 106.628 640.398 109.57 636.653C106.36 637.723 103.151 636.921 101.012 634.245C98.8721 631.57 98.3372 628.36 99.9418 625.417C101.279 626.487 102.349 627.824 103.686 628.092C105.558 628.36 107.965 626.754 110.105 625.952C112.512 624.882 115.186 624.882 117.593 625.149C119.733 625.684 122.14 626.487 124.012 627.557C125.349 628.36 126.686 629.43 127.756 630.5C129.895 628.092 130.698 624.614 129.628 621.404C128.558 618.193 125.884 616.053 122.674 615.518C124.012 613.645 124.814 612.308 125.081 610.703C125.616 608.83 125.081 606.69 125.616 604.817C126.151 601.607 128.826 598.931 131.5 596.523C128.291 598.129 125.081 599.734 121.872 599.199C120 598.931 118.128 597.861 116.256 597.594C114.651 597.326 113.047 597.594 110.907 598.129C111.442 594.918 110.372 591.708 107.698 589.568C105.023 587.427 101.814 586.892 98.6046 588.23C99.1395 589.835 99.6744 591.173 99.9418 592.778C100.477 594.918 100.477 597.326 99.9418 599.734C99.407 602.142 98.6047 604.549 96.7326 606.422C95.1279 608.295 92.7209 609.632 92.4535 611.773C92.1861 613.11 92.9884 614.716 93.5233 616.321C90.0465 616.856 87.1047 615.251 85.5 612.308C83.8954 609.365 84.1628 605.887 86.3023 603.479C82.0232 605.352 77.4767 607.225 73.1977 605.887C71.8605 605.619 70.2558 604.817 68.9186 604.282C65.4418 603.479 61.9651 604.014 58.4884 604.817C60.8953 602.142 63.3023 599.466 64.1047 595.988C64.3721 594.651 64.6395 593.046 64.907 591.44C65.9767 587.16 69.721 584.217 73.7326 581.542C70.2558 582.077 67.314 580.739 65.7093 577.796C64.1047 574.853 64.1046 571.643 66.2442 568.968C67.3139 570.305 68.3837 571.643 69.4535 572.178C71.3256 572.981 73.7326 571.643 76.1395 571.108C78.814 570.573 81.2209 570.84 83.6279 571.643C85.7674 572.446 87.907 573.783 89.5116 575.121C90.5814 576.191 91.6512 577.261 92.721 578.599C95.3954 576.459 96.4651 573.248 95.9302 570.038C95.3953 566.828 93.2558 564.152 90.0465 562.815C91.6512 561.209 92.7209 559.872 93.2558 558.534C94.0581 556.661 94.0581 554.521 94.593 552.916C95.6628 549.973 98.6047 547.833 101.814 545.96C98.3372 547.03 94.8605 548.1 91.9186 546.763C90.0465 546.228 88.4418 544.89 86.5698 544.355C84.9651 543.82 83.3605 543.82 81.2209 544.087C82.2907 540.877 81.7558 537.667 79.6162 534.991C77.4767 532.316 74.2675 531.514 70.7907 532.049C71.0582 533.654 71.3256 535.259 71.3256 536.864C71.3256 539.272 71.0581 541.412 70.2558 543.552C69.4535 545.96 68.1163 548.1 65.9768 549.706C64.1047 551.311 61.4302 552.381 60.8953 554.254C60.3604 555.591 60.8953 557.196 61.1628 558.802C57.686 558.534 55.0117 556.661 53.9419 553.451C52.8721 550.241 53.6744 547.03 56.3489 544.623C51.8024 545.693 46.9884 546.763 42.9768 544.89C41.6396 544.355 40.3024 543.285 38.9651 542.75C35.7558 541.412 32.2791 541.412 28.5349 541.412C31.4768 539.272 34.1512 536.864 35.7558 533.921C36.2907 532.584 36.8256 530.978 37.3605 529.641C39.2326 525.628 43.5116 523.488 47.7907 521.347C44.3139 521.347 41.6396 519.207 40.5698 516.264C39.2326 513.054 40.0349 509.843 42.7093 507.436C43.5116 509.041 44.314 510.379 45.3837 511.181C46.9884 512.251 49.6628 511.449 52.0698 511.181C54.7442 511.181 57.1512 511.984 59.2907 513.054C61.1628 514.124 63.0349 515.729 64.3721 517.602C65.4419 518.94 66.2442 520.277 67.0465 521.615C69.9884 520.01 71.8605 517.067 71.8605 513.857C71.8605 510.379 70.2559 507.436 67.314 505.831C68.9186 504.493 70.2559 503.423 71.3256 502.085C72.3954 500.48 72.6628 498.34 73.7326 496.734C75.3372 494.059 78.5466 492.454 82.0233 491.116C78.5466 491.651 74.8023 491.919 72.1279 490.314C70.5233 489.511 69.1861 487.906 67.314 486.836C65.9768 486.033 64.1047 485.766 61.9652 485.498C63.5698 482.555 63.5698 479.345 61.9652 476.402C60.3605 473.459 57.1512 471.854 53.9419 471.854C53.9419 473.459 53.9419 475.064 53.6744 476.67C53.407 478.81 52.6046 481.218 51.5349 483.09C50.1977 485.231 48.593 487.103 46.186 488.441C44.0465 489.511 41.3721 490.314 40.3024 491.919C39.5 493.257 39.7674 494.862 39.7674 496.467C36.5581 495.664 34.1512 493.257 33.6163 489.779C33.0814 486.301 34.4186 483.358 37.3605 481.753C32.5465 482.02 27.7326 482.288 24.2558 479.612C22.9186 478.81 21.8488 477.472 20.7791 476.67C18.1046 474.529 14.3605 474.262 10.8838 473.727C14.0931 472.122 17.3024 470.249 19.1745 467.574C19.9768 466.236 20.5117 464.898 21.5814 463.561C23.9884 460.083 28.5349 458.478 33.0814 457.14C29.8721 456.605 27.4651 454.197 26.6628 450.719C26.1279 447.241 27.4651 444.298 30.1395 442.426C30.6744 444.031 31.2093 445.636 32.2791 446.439C33.8837 447.776 36.5582 447.509 38.9651 447.776C41.6396 448.044 43.7791 449.382 45.6512 450.987C47.2558 452.324 48.8605 454.197 49.9303 456.337C50.7326 457.675 51.2674 459.28 51.8023 460.618C55.0116 459.548 57.1512 457.14 57.9535 453.662C58.4884 450.452 57.4186 447.241 55.0117 445.101C56.8837 444.298 58.4883 443.228 59.5581 442.158C60.8953 440.82 61.6977 438.68 63.0349 437.343C65.1744 434.935 68.6512 433.865 72.1279 433.062C68.3837 433.062 64.907 432.527 62.5 430.387C61.1628 429.049 60.093 427.444 58.4884 426.106C57.1512 425.036 55.5465 424.501 53.6744 423.966C55.814 421.291 56.3489 418.081 55.0117 414.87C53.6744 411.66 51.2674 409.519 47.7907 409.252C47.5232 410.857 47.2558 412.462 46.7209 413.8C45.9186 415.94 44.8488 418.08 43.5116 419.953C41.907 421.826 40.0349 423.431 37.3605 424.234C34.9535 425.036 32.2791 425.036 30.9419 426.641C30.1396 427.712 29.8721 429.317 29.6047 431.189C26.3954 429.852 24.5232 427.176 24.7907 423.699C24.7907 420.221 26.6628 417.545 29.8721 416.208C25.0582 415.673 20.5116 414.87 17.3023 411.927C16.2326 410.857 15.4302 409.519 14.3605 408.449C11.9535 406.042 8.47674 404.971 5 403.634C8.47674 402.564 11.9535 401.494 14.3605 398.818C15.4302 397.748 16.2326 396.41 17.3023 395.34C20.2442 392.397 25.0582 391.595 29.8721 391.06C26.6628 389.722 24.7907 387.047 24.7907 383.569C24.7907 380.091 26.6628 377.416 29.6047 376.078C29.8721 377.683 30.1396 379.556 30.9419 380.359C32.2791 381.964 34.9535 381.964 37.3605 382.766C40.0349 383.569 41.907 385.174 43.5116 387.047C44.8488 388.92 46.1861 390.792 46.7209 393.2C47.2558 394.805 47.5232 396.143 47.7907 397.748C51 397.213 53.6744 395.073 55.0117 392.13C56.3489 388.92 55.814 385.709 53.6744 383.034C55.814 382.499 57.4186 381.696 58.4884 380.894C60.093 379.556 61.1628 377.951 62.5 376.613C64.907 374.473 68.6512 374.205 72.1279 373.938C68.6512 373.135 65.1744 372.333 63.0349 369.657C61.6977 368.32 61.1628 366.179 59.5581 364.842C58.4883 363.772 56.8837 362.702 55.0117 361.899C57.6861 359.759 58.7559 356.548 57.9535 353.338C57.4186 350.128 55.0116 347.452 51.8023 346.382C51.2674 347.72 50.7326 349.325 49.9303 350.663C48.8605 352.803 47.2558 354.676 45.6512 356.013C43.7791 357.618 41.6396 358.689 38.9651 359.224C36.5582 359.491 33.8837 359.224 32.2791 360.561C31.2093 361.364 30.6744 362.969 30.1395 364.574C27.1977 362.702 25.8605 359.759 26.6628 356.281C27.1977 353.07 29.6046 350.663 33.0814 349.86C28.5349 348.522 23.9884 346.917 21.5814 343.439C20.7791 342.102 20.2442 340.764 19.1745 339.426C17.3024 336.484 14.0931 334.878 10.8838 333.273C14.6279 332.738 18.1046 332.203 20.7791 330.33C22.1163 329.528 23.1861 328.19 24.2558 327.388C27.7326 324.98 32.5465 324.98 37.3605 325.247C34.4186 323.642 33.0814 320.432 33.6163 317.221C34.1512 313.743 36.5581 311.336 39.7674 310.533C39.7674 312.138 39.5 314.011 40.3024 315.081C41.3721 316.686 44.0465 317.489 46.186 318.559C48.593 319.897 50.1977 321.769 51.5349 323.91C52.6046 325.782 53.407 328.19 53.6744 330.33C53.9419 331.935 53.9419 333.541 53.9419 335.146C57.4186 335.146 60.3605 333.541 61.9652 330.598C63.5698 327.655 63.8372 324.445 61.9652 321.502C64.1047 321.234 65.7093 320.967 67.314 320.164C69.1861 319.362 70.5233 317.756 72.1279 316.686C74.8023 315.081 78.5466 315.349 82.0233 315.884C78.5466 314.546 75.3372 312.941 73.7326 310.265C72.6628 308.66 72.3954 306.52 71.3256 304.915C70.5233 303.577 69.1861 302.507 67.314 301.169C70.2559 299.564 71.8605 296.621 71.8605 293.144C71.8605 289.666 69.9884 286.99 67.0465 285.385C66.2442 286.723 65.4419 288.06 64.3721 289.398C63.0349 291.271 61.1628 292.876 59.2907 293.946C57.1512 295.284 54.7442 296.086 52.0698 295.819C49.6628 295.819 46.9884 295.016 45.3837 295.819C44.314 296.621 43.5116 297.959 42.7093 299.564C40.3023 297.156 39.5 293.946 40.5698 290.736C41.6396 287.525 44.5814 285.653 47.7907 285.653C43.5116 283.512 39.2326 281.105 37.3605 277.359C36.8256 276.022 36.2907 274.416 35.7558 273.079C34.4186 269.868 31.4768 267.728 28.5349 265.588C32.2791 265.588 35.7558 265.855 38.9651 264.25C40.3024 263.448 41.6396 262.645 42.9768 262.11C46.9884 260.237 51.5349 261.307 56.3489 262.378C53.6744 260.237 52.8721 256.759 53.9419 253.549C55.0117 250.339 57.686 248.198 61.1628 248.198C60.8953 249.804 60.3604 251.409 60.8953 252.746C61.6977 254.619 64.1047 255.689 65.9768 257.294C68.1163 258.9 69.4535 261.04 70.2558 263.448C71.0581 265.588 71.3256 267.996 71.3256 270.136C71.3256 271.741 71.0582 273.346 70.7907 274.951C74 275.487 77.2093 274.416 79.6162 272.009C81.7558 269.333 82.2907 266.123 81.2209 262.913C83.3605 262.913 85.2325 262.913 86.5698 262.645C88.4418 262.11 90.0465 260.772 91.9186 260.237C94.8605 259.167 98.6047 259.97 101.814 261.307C98.8721 259.435 95.9302 257.294 94.593 254.352C93.7907 252.479 93.7907 250.606 93.2558 248.733C92.7209 247.396 91.6512 246.058 90.0465 244.453C93.2558 243.383 95.3953 240.708 95.9302 237.23C96.4651 233.752 95.1279 230.809 92.721 228.669C91.6512 230.006 90.5814 231.076 89.5116 232.147C87.907 233.752 85.7674 234.822 83.6279 235.624C81.2209 236.427 78.814 236.962 76.1395 236.16C73.7326 235.624 71.3256 234.554 69.4535 235.089C68.1163 235.624 67.0465 236.962 66.2442 238.3C64.1046 235.624 64.1047 232.147 65.7093 229.204C67.314 226.261 70.5233 224.923 73.7326 225.458C69.9884 222.515 66.2442 219.573 64.907 215.56C64.6395 214.222 64.3721 212.617 64.1047 211.012C63.3023 207.534 60.8953 204.858 58.4884 202.183C61.9651 202.986 65.4418 203.788 68.9186 202.718C70.2558 202.451 71.8605 201.648 73.1977 201.113C77.4767 200.043 81.7558 201.916 86.3023 203.521C84.1628 200.845 83.8954 197.635 85.5 194.425C87.1047 191.482 90.0465 189.877 93.5233 190.412C92.7209 192.017 92.1861 193.622 92.4535 194.96C92.7209 197.1 95.1279 198.438 96.7326 200.31C98.6047 202.183 99.407 204.591 99.9418 206.999C100.209 209.139 100.209 211.547 99.9418 213.954C99.6744 215.56 99.1395 216.897 98.6046 218.502C101.814 219.84 105.023 219.305 107.698 217.165C110.372 215.025 111.442 211.814 110.907 208.604C113.047 209.139 114.651 209.406 116.256 209.139C118.395 208.871 120 207.801 121.872 207.534C125.081 206.999 128.291 208.604 131.5 210.209C128.826 207.801 126.151 205.126 125.616 201.916C125.349 200.043 125.616 197.903 125.081 196.03C124.814 194.425 124.012 193.087 122.674 191.214C125.884 190.679 128.558 188.539 129.628 185.329C130.698 182.118 130.163 178.908 127.756 176.233C126.419 177.303 125.349 178.373 124.012 179.175C122.14 180.513 120 181.316 117.593 181.583C115.186 182.118 112.512 181.851 110.105 180.781C107.965 179.978 105.558 178.105 103.686 178.64C102.349 178.908 101.012 179.978 99.9418 181.316C98.3372 178.373 98.8721 174.895 101.012 172.487C103.151 169.812 106.36 169.009 109.57 170.079C106.36 166.601 103.151 163.124 102.884 158.576C102.884 157.238 102.884 155.633 102.884 154.028C102.616 150.55 100.744 147.607 98.8721 144.396C102.349 145.734 105.558 147.072 109.035 146.804C110.64 146.804 111.977 146.269 113.581 146.002C117.86 145.734 121.872 148.142 125.884 150.817C124.279 147.874 124.546 144.396 126.686 141.989C128.826 139.581 132.035 138.243 135.244 139.313C134.442 140.651 133.372 142.256 133.372 143.594C133.372 145.734 135.244 147.607 136.581 149.48C137.919 151.62 138.453 154.295 138.453 156.703C138.453 159.111 137.919 161.251 137.116 163.391C136.581 164.729 135.779 166.334 134.977 167.672C137.919 169.277 141.128 169.544 144.07 167.939C147.012 166.334 148.616 163.391 148.884 159.913C150.756 160.716 152.36 161.251 153.965 161.518C156.105 161.518 157.977 160.983 159.849 160.983C163.058 160.983 166 163.124 168.942 165.264C166.802 162.321 164.663 159.378 164.663 156.168C164.663 154.295 165.198 152.422 165.198 150.282C165.198 148.677 164.663 147.072 163.593 145.199C167.07 145.199 169.744 143.594 171.616 140.383C173.221 137.441 173.221 133.963 171.349 131.287C170.012 132.09 168.674 132.893 167.07 133.428C164.93 134.23 162.523 134.765 160.384 134.765C157.977 134.765 155.302 134.23 153.163 132.893C151.023 131.555 149.151 129.682 147.279 129.682C145.942 129.682 144.605 130.752 143 131.555C141.93 128.345 143 125.134 145.674 122.994C148.349 120.854 151.558 120.586 154.767 122.191C152.093 118.178 149.686 114.165 149.954 109.885C149.954 108.547 150.488 106.942 150.756 105.337C151.023 101.859 149.686 98.6487 148.349 95.1708C151.291 97.0435 154.5 99.1837 157.977 99.1837C159.581 99.1837 160.919 99.1837 162.523 99.1837C166.802 99.4513 170.279 102.929 174.023 105.872C172.954 102.662 173.756 99.4513 176.43 97.3111C179.105 95.1708 182.314 94.6357 185.256 96.2409C184.186 97.5785 182.849 98.6487 182.581 99.9864C182.314 101.859 183.919 104.267 184.721 106.407C185.791 108.815 185.791 111.49 185.523 113.898C185.256 116.038 184.186 118.446 183.116 120.319C182.314 121.656 181.244 122.994 180.174 124.064C182.581 126.204 186.058 127.007 189.267 125.937C192.477 124.867 194.616 122.191 195.151 118.981C197.023 120.051 198.36 121.121 199.965 121.389C201.837 121.924 203.977 121.389 205.849 121.924C209.058 122.459 211.733 125.134 214.14 127.81C212.535 124.599 210.93 121.389 211.465 118.178C211.733 116.306 212.802 114.433 213.07 112.56C213.337 110.955 213.07 109.35 212.535 107.21C215.744 107.745 218.953 106.675 221.093 103.999C223.233 101.324 223.767 98.1136 222.43 94.9032C220.826 95.4383 219.488 95.9734 217.884 96.2409C215.744 96.776 213.337 96.776 210.93 96.2409C208.523 95.7058 206.116 94.9033 204.244 93.0306C202.372 91.4254 201.035 89.0176 198.895 88.7501C197.558 88.4825 195.953 89.2851 194.349 89.8202C193.814 86.3423 195.419 83.3994 198.36 81.7942C201.302 80.1891 204.779 80.4566 207.453 82.5969C205.581 78.3164 203.709 73.7683 205.047 69.4878C205.314 68.1502 206.116 66.545 206.651 65.2074C207.721 61.997 206.919 58.2515 206.116 54.7736C208.791 57.1814 211.465 59.5892 214.942 60.3918C216.279 60.6593 217.884 60.9269 219.488 61.1944C223.767 62.2645 226.442 66.0099 229.384 70.0229C228.849 66.545 230.454 63.6022 233.128 61.997C236.07 60.3918 239.279 60.3918 242.221 62.5321C240.884 63.6022 239.546 64.6723 239.012 65.7424C238.209 67.6151 239.546 70.0229 240.081 72.4307C240.616 75.106 240.349 77.5138 239.547 79.9216C238.744 82.0618 237.407 84.202 236.07 85.8072C235 86.8773 233.663 87.9475 232.593 89.0176C234.733 91.6929 237.942 92.763 241.151 92.2279C244.36 91.6929 247.035 89.5527 248.372 86.3423C249.977 87.9475 251.314 89.0176 252.651 89.5526C254.523 90.3552 256.663 90.3552 258.267 90.8903C261.209 91.9604 263.349 94.9033 265.221 98.1136C264.151 94.6357 263.081 91.1578 264.151 88.215C264.686 86.3422 266.023 84.7371 266.558 82.8643C267.093 81.2592 267.093 79.654 266.826 77.5137C270.035 78.5839 273.244 78.0489 275.919 75.9086C278.593 73.7684 279.663 70.5579 278.86 67.08C277.256 67.3476 275.651 67.6151 274.046 67.6151C271.64 67.6151 269.5 67.3476 267.36 66.545C264.953 65.7424 262.814 64.4048 261.209 62.2645C259.605 60.3918 258.535 57.7165 256.663 57.1815C255.326 56.6464 253.721 57.1814 252.116 57.4489C252.384 53.971 254.256 51.2958 257.465 50.2256C260.674 49.1555 263.884 49.9581 266.291 52.6334C265.221 48.0854 264.151 43.2698 266.023 39.2569C266.558 37.9192 267.628 36.5816 268.163 35.2439C269.5 32.0335 269.5 28.5557 269.5 24.8102C271.639 27.7531 274.047 30.4283 276.988 32.0335C278.326 32.5686 279.93 33.1036 281.267 33.6387C285.279 35.5114 287.419 39.7919 289.558 44.0724C289.558 40.5945 291.698 37.9192 294.64 36.5816C297.849 35.5114 301.058 36.314 303.465 38.7218C301.86 39.5244 300.523 40.327 299.721 41.3971C298.651 43.0023 299.454 45.6776 299.721 48.0854C299.721 50.7607 298.919 53.1685 297.849 55.3087C296.779 57.1814 295.174 59.0541 293.302 60.3918C291.965 61.4619 290.628 62.2645 289.291 63.0671C290.895 66.0099 293.837 67.8827 297.047 67.8827C300.523 67.8827 303.465 66.2775 305.07 63.3346C306.407 64.9398 307.477 66.2775 308.814 67.3476C310.419 68.4177 312.558 68.9528 314.163 69.7554C316.837 71.3605 318.442 74.5709 319.779 78.0488C319.244 74.5709 318.977 70.8255 320.581 68.1502C321.651 66.545 322.988 65.2074 324.058 63.3346C324.86 61.997 325.128 60.1243 325.395 57.984C328.337 59.5892 331.814 59.5892 334.488 57.984C337.43 56.3788 339.035 53.1685 339.035 49.9581C337.43 49.9581 335.826 49.9581 334.221 49.6905C331.814 49.423 329.674 48.6205 327.802 47.5503C325.663 46.2127 323.791 44.6075 322.453 42.1997C321.384 40.0595 320.581 37.3841 318.977 36.314C317.639 35.5114 316.035 35.779 314.43 35.779C315.233 32.5686 317.64 30.1608 321.116 29.6257C324.593 29.0907 327.535 30.4283 329.14 33.3712C328.872 28.5556 328.872 23.7401 331.279 20.2622C332.081 18.9245 333.419 17.8544 334.221 16.7843C336.36 14.109 336.628 10.3635 337.163 6.88563C338.767 10.096 340.639 13.3064 343.314 15.1791C344.651 15.9817 345.988 16.5167 347.326 17.5869C350.802 19.9946 352.407 24.5427 353.744 29.0907C354.546 25.8804 356.686 23.4725 360.163 22.6699C363.372 22.1349 366.581 23.4726 368.453 26.1479C366.849 26.6829 365.244 27.218 364.442 28.2881C363.105 29.8933 363.372 32.5686 363.105 34.9764C362.837 37.6517 361.5 39.7919 359.895 41.6646C358.558 43.2698 356.686 44.875 354.547 45.9451C353.209 46.7477 351.605 47.2828 350.267 47.8179C351.337 51.0283 354.012 53.1685 357.221 53.9711C360.43 54.5061 363.639 53.436 365.779 51.0282C366.849 52.9009 367.651 54.5061 368.721 55.5763C370.058 56.9139 372.198 57.7165 373.535 59.0541C375.942 61.1944 377.012 64.6723 377.814 68.1502C377.814 64.6723 378.349 60.9269 380.488 58.5191C381.558 57.1815 383.43 56.1113 384.767 54.5062C385.57 53.1685 386.372 51.5633 386.907 49.6905C389.581 51.8308 392.791 52.3659 396 51.0282C399.209 49.6906 401.349 47.2828 401.884 43.8049C400.279 43.5374 398.674 43.2698 397.337 42.7347C395.198 41.9321 393.058 40.8621 391.186 39.5244C389.314 37.9192 387.709 36.0465 386.907 33.3712C386.105 30.9634 386.105 28.2881 384.5 26.9504C383.43 26.1478 381.826 25.8803 380.221 25.6128C381.558 22.4024 384.233 20.5297 387.709 20.7973C391.186 20.7973 393.86 22.67 395.198 25.8803C395.732 21.0648 396.535 16.5167 399.477 13.3063C400.547 12.2362 401.884 11.4337 402.953 10.3636C405.36 7.9558 406.43 4.4779 407.767 1M408.035 679.19L392.523 652.705V625.149L408.035 618.996M408.035 185.061L392.523 178.908V151.352L408.035 124.867M408.035 296.622L392.523 302.775V330.063L408.035 356.816M408.035 507.436L392.523 501.283V473.727L408.035 447.241M408.035 371.262L402.418 380.893L392.523 375.275V386.512H381.291L386.907 396.41L377.279 402.028L386.907 407.647L381.291 417.278H392.523V428.514L402.418 422.896L408.035 432.794M408.035 110.152L402.419 100.521L392.791 106.139V94.903H381.558L387.174 85.2719L381.826 82.3291M381.558 721.728L386.907 718.517L381.291 708.886H392.523V697.65L402.151 703.268L407.767 693.637M336.895 247.931L347.593 266.391L332.081 270.404L320.849 281.64L310.151 263.448H328.07L336.895 247.931ZM239.279 386.512H260.407L256.128 402.029L260.407 417.278H239.279L248.105 402.029L239.279 386.512ZM310.151 540.61L320.849 522.15L332.081 533.386L347.593 537.667L336.895 555.859L328.07 540.61H310.151ZM385.302 287.525V263.715L358.291 270.938L370.326 291.538L361.767 302.507L375.407 300.367L385.302 317.756V297.692L398.407 292.608L385.302 287.525ZM351.337 303.845L361.5 290.736L351.337 272.812L335.826 277.092L324.593 288.328L335.023 306.253L351.337 303.845ZM331.279 314.011L319.244 293.411L299.453 313.208L320.046 325.247L318.174 338.891L329.139 330.33L346.256 340.229L336.36 323.107L344.918 312.138L331.279 314.011ZM309.884 345.312L312.291 328.993L294.372 318.559L283.14 329.795L278.861 345.312L296.779 355.478L309.884 345.312ZM297.581 364.307L276.988 352.268L269.767 379.289H293.57L298.651 392.398L303.733 379.289H323.791L306.407 369.39L308.546 355.746L297.581 364.307ZM294.907 402.029L288.488 386.512H267.895L263.616 402.029L267.895 417.278H288.488L294.907 402.029ZM293.57 424.501H269.767L276.988 451.522L297.581 439.75L308.546 448.311L306.407 434.4L323.791 424.501H303.733L298.651 411.66L293.57 424.501ZM309.884 458.745L296.779 448.311L278.861 458.745L283.14 473.994L294.372 485.498L312.291 475.064L309.884 458.745ZM320.046 478.81L299.453 490.581L319.244 510.378L331.279 489.779L344.918 491.919L336.36 480.95L346.256 463.828L329.139 473.727L318.174 465.166L320.046 478.81ZM351.337 499.945L335.023 497.805L324.593 515.729L335.826 526.965L351.337 530.978L361.5 513.054L351.337 499.945ZM370.326 512.519L358.291 533.118L385.302 540.342V516.532L398.407 511.449L385.302 506.098V486.301L375.407 503.423L361.767 501.55L370.326 512.519ZM385.302 194.157V217.967L358.291 210.744L370.326 190.144L361.767 179.175L375.407 181.048L385.302 163.926V183.723L398.407 189.074L385.302 194.157ZM335.023 175.43L351.337 177.57L361.5 190.679L351.337 208.604L335.826 204.591L324.593 193.355L335.023 175.43ZM331.279 167.404L319.244 188.004L299.453 168.206L320.046 156.435L318.174 142.524L329.139 151.352L346.256 141.186L336.36 158.575L344.918 169.544L331.279 167.404ZM296.779 125.937L309.884 136.103L312.291 152.69L294.372 163.123L283.14 151.62L278.861 136.37L296.779 125.937ZM323.791 102.127L306.674 112.025L308.547 125.669L297.581 117.108L276.988 128.88L272.174 110.955C282.07 106.407 292.233 102.127 302.663 98.6487L304 101.859L323.791 102.127ZM353.744 262.645L354.546 264.518L385.302 256.225V225.458L354.546 217.165L340.907 240.708L343.046 244.453L353.744 262.645ZM328.07 218.235L336.895 233.484L347.593 215.292L332.081 211.012L320.849 199.775L310.151 218.235H328.07ZM264.419 301.437L260.407 316.686L249.175 327.923L272.442 341.567L276.454 326.05L287.686 314.814L264.419 301.437ZM226.977 297.424L240.081 287.258L258 297.692L253.721 312.941L242.488 324.177L224.57 313.743L226.977 297.424ZM230.186 134.765L243.825 148.409L270.57 132.892L265.488 114.433C253.453 120.586 241.686 127.274 230.186 134.765ZM249.175 153.76L260.407 164.996L264.419 180.246L287.686 166.869L276.454 155.633L272.442 140.116L249.175 153.76ZM266.291 187.469L274.581 218.235H301.86L315.5 194.424L293.035 171.952L266.291 187.469ZM288.756 240.707L297.849 225.458H276.453L280.733 240.707L276.453 256.224H297.849L288.756 240.707ZM293.035 309.463L315.5 286.991L301.86 263.448H274.581L266.291 294.214L293.035 309.463ZM190.605 179.175L200.5 162.053L198.361 159.378C206.651 152.155 215.209 145.466 224.302 139.313L237.407 152.422L216.814 164.194L218.686 177.838L207.721 169.277L190.605 179.175ZM240.081 194.424L226.977 184.258L224.57 167.671L242.488 157.238L253.721 168.741L258 183.991L240.081 194.424ZM229.651 203.521L228.314 194.425L239.279 202.986L259.872 191.215L267.093 218.235H243.291L238.209 231.077L232.861 218.235H213.07L230.454 208.337L229.651 203.521ZM244.895 233.752L248.372 225.458H268.965L273.244 240.707L268.965 256.224H248.372L244.895 247.663L241.953 240.707L244.895 233.752ZM213.07 263.448H232.861L238.209 250.606L243.291 263.448H267.093L259.872 290.468L239.279 278.43L228.314 286.991L229.651 278.162L230.454 273.346L213.07 263.448ZM216.814 317.489L237.407 329.528L217.616 349.325L205.849 328.725L191.942 330.598L200.5 319.629L190.605 302.507L207.721 312.406L218.686 303.845L216.814 317.489ZM175.36 352L185.523 338.891L201.837 336.483L212.267 354.675L201.035 365.644L185.791 369.925L175.36 352ZM166.535 351.198L178.57 371.798L151.558 379.021V355.211L138.454 350.128L151.558 345.044V325.247L161.454 342.369L175.093 340.229L166.535 351.198ZM113.581 360.294L128.826 354.141L144.337 360.294V380.894L128.826 385.174L113.581 380.894V360.294ZM88.4417 374.205C89.5115 363.237 90.8486 352.535 92.9882 341.834L96.465 342.369L106.36 325.247V345.044L119.198 350.128L106.36 355.478V379.288L88.4417 374.205ZM262.279 379.288L270.57 348.522L243.826 333.273L221.361 355.746L235 379.288H262.279ZM208.791 379.289H226.709L216.012 361.097L204.779 372.333L189.535 376.346L199.965 394.806L208.791 379.289ZM249.175 476.135L260.407 487.371L264.419 502.62L287.686 489.244L276.454 478.007L272.442 462.491L249.175 476.135ZM226.977 506.633L224.57 490.046L242.488 479.88L253.721 491.116L258 506.366L240.081 516.799L226.977 506.633ZM87.907 381.696C87.1047 395.34 87.1047 408.985 87.907 422.361L106.36 417.546V386.779L104.488 386.244L87.907 381.696ZM113.581 415.405L128.826 411.392L144.337 415.405V388.385L128.826 392.665L113.581 388.385V415.405ZM151.558 417.278L182.047 425.571L195.954 402.029L182.047 378.218L151.558 386.512V417.278ZM208.791 424.501L199.965 409.252L189.535 427.712L204.779 431.725L216.012 442.961L226.709 424.501H208.791ZM270.57 455.267L262.279 424.501H235L221.361 448.312L243.826 470.784L270.57 455.267ZM106.36 478.81L96.465 461.688L92.9882 462.223C90.8486 451.522 89.5115 440.553 88.4417 429.852L106.36 425.036V448.846L119.198 454.197L106.36 459.28V478.81ZM144.337 443.763L128.826 449.916L113.581 443.763V422.896L128.826 418.883L144.337 422.896V443.763ZM151.558 478.81V459.013L138.454 453.929L151.558 448.579V424.768L178.57 431.992L166.535 452.592L175.093 463.56L166.268 462.49L161.454 461.688L151.558 478.81ZM128.826 517.869L113.581 491.384V463.828L128.826 457.675L144.337 463.828V491.384L137.919 502.085L128.826 517.869ZM180.709 459.28L175.36 452.057L185.791 434.132L201.035 438.145L212.267 449.381L201.837 467.306L185.523 465.166L180.709 459.28ZM190.605 501.55L200.5 484.161L191.942 473.192L205.849 475.332L217.616 454.732L237.407 474.53L216.814 486.301L218.686 500.213L207.721 491.384L190.605 501.55ZM229.651 525.896L228.314 516.8L239.279 525.361L259.872 513.589L267.093 540.61H243.291L238.209 553.451L232.861 540.61H213.07L230.454 530.711L229.651 525.896ZM244.895 556.126L248.372 547.833H268.965L273.244 563.082L268.965 578.599H248.372L244.895 570.038L241.953 563.082L244.895 556.126ZM238.209 572.981L243.291 585.822H267.093L259.872 612.843L239.279 600.804L228.314 609.365L229.651 600.536L230.454 595.721L213.07 585.822H232.861L238.209 572.981ZM224.57 636.118L226.977 619.799L240.081 609.633L258 620.066L253.721 635.315L242.488 646.552L224.57 636.118ZM190.605 624.882L207.721 634.78L218.686 626.219L216.814 640.131L237.407 651.902L224.302 665.011C215.209 658.858 206.651 652.17 198.361 644.946L200.5 642.271L190.605 624.882ZM315.5 516.799L293.035 494.326L266.291 509.843L274.581 540.609H301.86L315.5 516.799ZM288.756 563.082L297.849 547.833H276.453L280.733 563.082L276.453 578.599H297.849L288.756 563.082ZM265.488 689.624L270.57 671.164L243.825 655.648L230.186 669.292C241.686 676.782 253.453 683.471 265.488 689.624ZM272.442 663.941L276.454 648.425L287.686 637.188L264.419 623.812L260.407 639.061L249.175 650.297L272.442 663.941ZM293.035 631.838L315.5 609.365L301.86 585.823H274.581L266.291 616.589L293.035 631.838ZM328.07 585.822H310.151L320.849 604.014L332.081 592.778L347.593 588.765L336.895 570.306L328.07 585.822ZM385.302 547.833L354.546 539.54L340.907 563.082L354.546 586.893L385.302 578.599V547.833ZM323.791 701.663H304L302.663 704.874C292.233 701.396 282.337 697.115 272.174 692.567L276.988 674.643L297.581 686.414L308.547 677.853L306.674 691.765L323.791 701.663ZM312.291 651.367L309.884 667.687L296.779 677.853L278.861 667.419L283.14 652.17L294.372 640.933L312.291 651.367ZM320.046 647.622L299.453 635.583L319.244 615.786L331.279 636.386L344.918 634.513L336.36 645.482L346.256 662.604L329.139 652.705L318.174 661.266L320.046 647.622ZM361.5 613.111L351.337 626.22L335.023 628.627L324.593 610.703L335.826 599.467L351.337 595.186L361.5 613.111ZM385.302 640.131L375.407 623.009L361.767 624.882L370.326 613.913L358.291 593.313L385.302 586.09V609.9L398.407 614.983L385.302 620.334V640.131ZM358.825 669.827L345.186 646.016L355.349 633.175L371.663 630.767L385.302 654.577V685.343L369.79 675.98L358.825 669.827ZM375.139 698.185L377.279 701.663H385.302V693.637L366.046 682.401L375.139 698.185ZM306.14 547.833L297.314 563.082L306.14 578.599H323.791L332.616 563.082L323.791 547.833H306.14ZM350.535 708.887H373L377.011 716.11L370.058 720.123L355.349 711.562L350.535 708.887ZM338.232 701.663L314.43 688.019L316.57 671.7L329.674 661.533L353.477 675.177L359.628 686.146L368.988 701.663H338.232ZM403.756 686.414L399.744 693.37L392.523 689.357V667.152L403.756 686.414ZM351.604 717.982C339.035 715.842 326.732 712.632 314.43 709.154H336.093L351.604 717.982ZM151.558 585.823H159.582L170.814 605.085L166.268 602.409L151.558 593.848V585.823ZM230.721 386.512H213.07L204.244 402.029L213.07 417.278H230.721L239.547 402.029L230.721 386.512ZM113.581 528.303V505.83L124.814 525.092L120.535 532.316L113.581 528.303ZM155.035 530.176L151.558 532.316V540.609H159.582L170.814 521.08L155.035 530.176ZM166.802 559.069L159.849 554.789L163.861 547.833H186.058L166.802 559.069ZM183.384 513.857L207.186 500.213L220.291 510.379L222.43 526.966L209.593 534.189L198.628 540.61H168.14L183.384 513.857ZM95.3955 474.529L106.093 493.257V511.181C102.082 499.142 98.3373 486.836 95.3955 474.529ZM144.337 505.83V528.303L137.116 532.316L133.105 525.092L135.244 521.615L144.337 505.83ZM151.558 524.023V493.257L157.709 482.556L165.198 469.447L181.512 471.854L191.942 484.963L178.035 508.774L151.558 524.023ZM162.523 608.83C170.814 618.728 179.64 627.824 188.733 636.385L178.035 617.658L162.523 608.83ZM166.802 567.362L186.058 578.599H163.861L159.849 571.375L166.802 567.362ZM183.384 612.308L168.14 585.823H198.628L209.593 591.976L222.43 599.467L220.291 615.786L207.186 626.22L183.384 612.308ZM200.767 547.833H228.046L234.198 563.082L228.046 578.599H200.767L174.023 563.082L200.767 547.833ZM113.581 275.754L120.535 271.741L124.814 278.697L122.674 282.442L113.581 298.227V275.754ZM174.023 240.707L200.767 225.458H228.046L234.198 240.707L228.046 256.224H200.767L174.023 240.707ZM166.802 236.694L186.058 225.458H163.861L159.849 232.414L166.802 236.694ZM332.616 240.707L323.791 225.458H306.14L297.314 240.707L306.14 256.224H323.791L332.616 240.707ZM151.558 218.235V209.941L166.268 201.38L170.814 198.705L159.582 218.235H151.558ZM183.384 191.482L207.186 177.838L220.291 188.004L222.43 204.591L209.593 211.815L198.628 218.235H168.14L183.384 191.482ZM166.802 244.988L159.849 249.001L163.861 256.224H186.058L166.802 244.988ZM170.814 282.71L151.558 271.474V263.448H159.582L170.814 282.71ZM222.43 277.092L220.291 293.411L207.186 303.845L183.384 289.934L168.14 263.448H198.628L209.593 269.601L222.43 277.092ZM162.523 195.227C170.814 185.596 179.64 176.233 188.733 167.404L178.035 186.131L162.523 195.227ZM106.361 292.876C102.081 304.915 98.3373 316.954 95.6628 329.528L106.361 310.801V292.876ZM144.337 275.754V298.227L133.105 278.697L137.116 271.741L144.337 275.754ZM128.826 285.92L144.337 312.673V339.961L128.826 346.382L113.581 339.961V312.673L119.732 301.705L128.826 285.92ZM178.035 295.284L191.942 319.094L181.512 332.203L165.198 334.343L151.558 310.533V280.035L178.035 295.284ZM355.349 92.2277L370.058 83.6667L377.011 87.9473L373 94.903H350.535L355.349 92.2277ZM392.523 114.433L399.744 110.42L403.756 117.643L392.523 136.905V114.433ZM351.604 86.0749C339.035 88.2152 326.732 91.4255 314.43 94.9034H336.093L351.604 86.0749ZM375.139 105.872L377.279 102.127H385.302V110.42L381.826 112.56L366.046 121.656L375.139 105.872ZM353.477 128.88L329.674 142.524L316.57 132.358L314.43 116.038L338.232 102.127H368.988L359.628 117.911L353.477 128.88ZM385.302 118.714V149.48L371.663 173.29L355.349 170.882L345.186 157.773L358.825 134.23L385.302 118.714ZM392.523 366.982L399.744 370.995L403.756 364.039L392.523 344.509V366.982ZM392.523 437.075V459.28L403.756 440.018L399.744 432.794L392.523 437.075ZM377.279 424.501L366.046 444.031L385.302 432.795V424.501H377.279ZM358.825 456.605L345.186 480.148L355.349 493.257L371.663 495.664L385.302 471.854V441.088L358.825 456.605ZM350.535 417.278H373L377.011 410.322L370.058 406.041L366.314 408.182L350.535 417.278ZM338.232 424.501L314.43 438.413L316.57 454.732L329.674 464.898L353.477 451.254L368.988 424.501H338.232ZM373 386.512H350.535L370.058 397.748L377.011 393.735L373 386.512ZM362.837 402.029L336.36 386.512H308.814L302.663 402.029L308.814 417.278H336.36L362.837 402.029ZM375.139 375.81L377.279 379.288H385.302V371.263L366.046 360.026L375.139 375.81ZM353.477 352.803L329.674 339.159L316.57 349.325L314.43 365.644L338.232 379.288H368.988L359.628 363.504L353.477 352.803ZM369.523 353.605L385.302 362.969V332.203L371.663 308.393L355.349 310.533L345.186 323.642L358.825 347.452L369.523 353.605ZM144.337 256.224V267.461L134.709 261.842L129.093 271.473L123.477 261.842L118.128 265.053C125.616 249.001 134.442 234.019 144.337 219.573V225.726H155.57L149.954 235.357L159.582 240.975L149.954 246.593L155.57 256.224H144.337ZM144.337 578.599V584.752C134.442 570.306 125.616 555.056 118.128 539.272L123.477 542.482L129.093 532.851L134.709 542.482L144.337 536.864V548.101H155.57L149.954 557.732L159.582 563.35L149.954 568.968L155.57 578.599H144.337Z" stroke="#0590D6" stroke-width="3" stroke-miterlimit="10"/>
</svg>
