<svg width="508" height="259" viewBox="0 0 508 259" fill="none" xmlns="http://www.w3.org/2000/svg">
<path opacity="0.05" d="M182.227 257L178.207 247.301L165.31 247.301L162.63 257M323.93 257L327.783 247.301L340.847 247.301L343.36 257M157.94 257L160.62 247.301L143.703 247.301L146.216 257M122.096 257L125.948 247.301L139.013 247.301L141.525 257M384.062 257L380.042 247.301L367.145 247.301L364.464 257M348.05 257L345.538 247.301L362.455 247.301L359.775 257M506 256.833C503.823 256.164 501.645 255.495 500.138 253.823C499.468 253.154 498.965 252.318 498.295 251.649C496.285 249.81 493.438 249.308 490.423 248.973C492.433 248.137 493.605 246.465 493.605 244.291C493.605 242.117 492.433 240.445 490.59 239.609C490.423 240.612 490.255 241.783 489.753 242.285C488.915 243.288 487.24 243.288 485.733 243.79C484.058 244.291 482.885 245.295 481.88 246.465C481.043 247.636 480.205 248.806 479.87 250.311C479.535 251.314 479.368 252.318 479.2 253.154C477.19 252.819 475.515 251.482 474.678 249.475C473.841 247.468 474.176 245.462 475.516 243.79C474.176 243.455 473.17 242.954 472.5 242.452C471.496 241.616 470.825 240.612 469.988 239.776C468.481 238.439 466.136 238.271 463.958 238.104C466.136 237.602 468.313 237.101 469.653 235.429C470.491 234.593 470.826 233.255 471.831 232.419C472.501 231.75 473.506 231.081 474.678 230.579C473.003 229.241 472.333 227.235 472.836 225.228C473.17 223.222 474.678 221.549 476.688 220.881C477.023 221.884 477.358 222.72 477.86 223.556C478.53 224.894 479.535 226.064 480.54 226.9C481.713 227.904 483.053 228.573 484.728 228.907C486.235 229.074 487.91 228.907 488.915 229.743C489.585 230.245 489.92 231.248 490.255 232.251C492.098 231.081 492.935 229.242 492.433 227.068C492.098 224.894 490.59 223.556 488.413 223.054C491.26 222.218 494.108 221.215 495.615 219.041C496.118 218.205 496.453 217.369 497.123 216.533C498.295 214.693 500.305 213.69 502.315 212.687C500.138 212.352 497.793 212.018 496.118 210.847C495.28 210.346 494.778 209.51 493.94 209.008C491.763 207.503 488.748 207.503 485.733 207.67C487.575 206.667 488.413 204.66 488.078 202.654C487.743 200.48 486.235 198.975 484.225 198.473C484.225 199.476 484.393 200.647 483.89 201.316C483.22 202.319 481.545 202.821 480.205 203.49C478.698 204.326 477.693 205.496 476.856 206.834C476.186 208.005 475.683 209.51 475.516 210.847C475.348 211.851 475.348 212.854 475.348 213.857C473.17 213.857 471.496 212.854 470.323 211.015C469.318 209.175 469.151 207.169 470.323 205.329C468.983 205.162 467.978 204.995 466.973 204.493C465.801 203.991 464.963 202.988 463.958 202.319C462.283 201.316 459.938 201.483 457.761 201.818C459.938 200.981 461.948 199.978 462.953 198.306C463.623 197.303 463.791 195.965 464.461 194.961C464.963 194.125 465.801 193.457 466.973 192.62C465.131 191.617 464.126 189.778 464.126 187.604C464.126 185.43 465.298 183.758 467.141 182.754C467.643 183.591 468.146 184.427 468.816 185.263C469.653 186.433 470.825 187.437 471.998 188.105C473.338 188.942 474.845 189.443 476.52 189.276C478.028 189.276 479.703 188.774 480.708 189.276C481.378 189.778 481.88 190.614 482.383 191.617C483.89 190.112 484.393 188.106 483.723 186.099C482.885 184.092 481.21 182.922 479.033 182.922C481.713 181.584 484.393 180.079 485.565 177.738C485.9 176.902 486.235 175.898 486.57 175.062C487.408 173.056 489.25 171.718 491.093 170.38C488.915 170.38 486.57 170.547 484.56 169.544C483.723 169.042 482.885 168.541 482.048 168.206C479.535 167.036 476.688 167.705 473.673 168.374C475.348 167.036 475.85 164.862 475.013 162.855C474.343 160.849 472.668 159.511 470.491 159.511C470.658 160.514 470.993 161.518 470.658 162.354C470.156 163.524 468.648 164.193 467.476 165.196C466.136 166.2 465.298 167.537 464.796 169.042C464.293 170.38 464.126 171.885 464.126 173.223C464.126 174.226 464.293 175.23 464.461 176.233C462.451 176.735 460.441 175.898 458.933 174.393C457.593 172.721 457.258 170.715 457.928 168.708C456.588 168.708 455.416 168.708 454.578 168.541C453.406 168.206 452.401 167.37 451.228 167.036C449.386 166.367 447.041 166.869 445.031 167.705C446.873 166.534 448.716 165.196 449.553 163.357C450.056 162.186 450.056 161.016 450.391 159.845C450.726 159.009 451.396 158.173 452.401 157.17C450.391 156.501 449.051 154.829 448.716 152.655C448.381 150.481 449.218 148.642 450.726 147.304C451.396 148.14 452.066 148.809 452.736 149.478C453.741 150.481 455.081 151.15 456.421 151.652C457.928 152.153 459.436 152.488 461.111 151.986C462.618 151.652 464.126 150.983 465.298 151.317C466.136 151.652 466.806 152.488 467.308 153.324C468.648 151.652 468.648 149.478 467.643 147.638C466.471 145.799 464.628 144.963 462.618 145.297C464.963 143.458 467.308 141.618 468.146 139.11C468.313 138.274 468.481 137.271 468.648 136.267C469.151 134.094 470.658 132.421 472.166 130.749C469.988 131.251 467.643 131.752 465.633 131.084C464.796 130.916 463.791 130.415 462.953 130.08C460.273 129.411 457.593 130.582 454.746 131.585C456.086 129.913 456.253 127.906 455.248 125.9C454.243 124.06 452.233 123.057 450.223 123.392C450.726 124.395 451.061 125.398 450.893 126.234C450.726 127.405 449.218 128.408 448.213 129.579C447.041 130.749 446.538 132.254 446.203 133.759C445.868 135.097 446.036 136.602 446.203 138.107C446.371 139.11 446.706 139.946 447.041 140.95C445.031 141.786 443.021 141.451 441.346 140.113C439.671 138.776 439.001 136.769 439.336 134.762C437.996 135.097 436.991 135.264 435.986 135.097C434.646 134.93 433.641 134.261 432.469 134.094C430.459 133.759 428.449 134.762 426.439 135.766C428.114 134.261 429.789 132.589 430.124 130.582C430.291 129.411 430.124 128.074 430.459 126.903C430.626 125.9 431.296 125.064 431.966 123.893C429.956 123.559 428.281 122.221 427.611 120.214C426.941 118.208 427.276 116.201 428.784 114.529C429.621 115.198 430.291 115.867 431.129 116.368C432.301 117.204 433.641 117.706 435.149 117.873C436.656 118.208 438.331 118.04 439.838 117.372C441.178 116.87 442.686 115.699 443.858 116.034C444.696 116.201 445.533 116.87 446.203 117.706C447.208 115.867 446.873 113.693 445.533 112.188C444.193 110.516 442.183 110.014 440.173 110.683C442.183 108.509 444.193 106.335 444.361 103.492C444.361 102.656 444.361 101.653 444.361 100.65C444.528 98.4758 445.701 96.6364 446.873 94.6297C444.696 95.4658 442.686 96.3019 440.508 96.1347C439.504 95.9675 438.666 95.8003 437.661 95.6331C434.981 95.4658 432.469 96.9708 429.956 98.643C430.961 96.8036 430.794 94.6297 429.454 92.9575C428.114 91.2853 426.104 90.7837 424.094 91.2853C424.596 92.1214 425.266 93.1248 425.266 93.9609C425.266 95.2986 424.094 96.4691 423.256 97.6397C422.419 98.9774 422.084 100.65 422.084 102.155C422.084 103.66 422.419 104.997 422.921 106.335C423.256 107.171 423.759 108.175 424.261 109.011C422.419 110.014 420.409 110.181 418.566 109.178C416.724 108.175 415.719 106.335 415.551 104.161C414.379 104.663 413.374 104.997 412.369 105.165C411.029 105.165 409.856 104.83 408.684 104.83C406.674 104.83 404.831 106.168 402.989 107.506C404.329 105.666 405.669 103.827 405.669 101.82C405.669 100.65 405.167 99.4791 405.334 98.1413C405.334 97.138 405.669 96.1347 406.339 94.9642C404.162 94.9642 402.487 93.7936 401.314 91.9542C400.309 90.1148 400.309 87.9409 401.482 86.2687C402.319 86.7704 403.156 87.272 404.161 87.6065C405.501 88.1081 407.009 88.4426 408.349 88.4426C409.856 88.4426 411.364 88.1082 412.871 87.2721C414.211 86.436 415.384 85.2654 416.556 85.2654C417.394 85.2654 418.231 85.9343 419.236 86.436C419.906 84.4293 419.236 82.4227 417.561 81.0849C415.886 79.7472 413.876 79.58 412.034 80.5833C413.709 78.075 415.216 75.5667 415.049 72.8912C415.049 72.0551 414.714 71.0517 414.546 70.0484C414.379 67.8746 415.216 65.868 416.054 63.6941C414.044 64.8646 412.201 66.2024 410.024 66.2024C409.186 66.2024 408.181 66.2024 407.176 66.2024C404.496 66.3696 402.319 68.5435 399.974 70.3829C400.644 68.3762 400.142 66.3696 398.467 65.0318C396.792 63.6941 394.782 63.3596 392.939 64.363C393.609 65.1991 394.447 65.8679 394.614 66.704C394.782 67.8746 393.777 69.3796 393.274 70.7173C392.604 72.2223 392.604 73.8945 392.772 75.3995C393.107 76.7372 393.609 78.2422 394.279 79.4127C394.782 80.2488 395.452 81.0849 396.122 81.7538C394.614 83.0915 392.437 83.5932 390.427 82.9243C388.417 82.2555 387.077 80.5833 386.742 78.5766C385.569 79.4127 384.732 79.9144 383.727 80.0816C382.554 80.416 381.214 80.0816 380.042 80.4161C378.032 80.7505 376.357 82.4227 374.849 84.0949C375.854 82.0883 376.859 80.0816 376.524 78.075C376.357 76.9045 375.687 75.7339 375.519 74.5634C375.352 73.56 375.52 72.5567 375.855 71.219C373.845 71.5534 371.835 70.8845 370.495 69.2123C369.155 67.5401 368.82 65.5335 369.657 63.5269C370.662 63.8613 371.5 64.1957 372.505 64.363C373.845 64.6974 375.352 64.6974 376.859 64.363C378.367 64.0285 379.874 63.5269 381.047 62.3564C382.219 61.353 383.057 59.8481 384.397 59.6808C385.234 59.5136 386.239 60.0153 387.244 60.3497C387.579 58.1758 386.574 56.3364 384.732 55.3331C382.889 54.3298 380.712 54.497 379.204 55.8348C380.377 53.1592 381.549 50.3165 380.712 47.641C380.544 46.8049 380.042 45.8016 379.707 44.9655C379.204 42.7916 379.539 40.6178 380.042 38.4439C378.367 39.9489 376.692 41.4539 374.514 41.9555C373.677 42.1228 372.672 42.29 371.667 42.4572C368.987 43.1261 367.145 45.4672 365.47 47.9755C365.805 45.8016 364.967 43.9622 363.125 42.9589C361.282 41.9556 359.272 41.9555 357.597 43.2933C358.435 43.9622 359.272 44.6311 359.607 45.2999C360.11 46.4705 359.272 47.9754 358.937 49.4804C358.602 51.1526 358.77 52.6576 359.272 54.1626C359.775 55.5003 360.612 56.8381 361.45 57.8414C362.12 58.5103 362.79 59.1792 363.627 59.8481C362.287 61.5203 360.277 62.1891 358.267 61.8547C356.257 61.5202 354.582 60.1825 353.745 58.1759C352.74 59.1792 351.902 59.848 351.065 60.1825C349.892 60.6841 348.552 60.6841 347.547 61.0186C345.705 61.6874 344.365 63.5269 343.192 65.5335C343.862 63.3597 344.532 61.1858 343.695 59.3464C343.36 58.1758 342.522 57.1725 342.187 56.002C341.852 54.9987 341.852 53.9953 342.02 52.6576C340.01 53.3265 338 52.992 336.325 51.6543C334.65 50.3165 334.148 48.3099 334.483 46.136C335.488 46.3033 336.493 46.4705 337.498 46.4705C339.005 46.4705 340.345 46.3032 341.685 45.8016C343.192 45.2999 344.532 44.4639 345.537 43.1261C346.542 41.9556 347.212 40.2833 348.385 39.9489C349.222 39.6144 350.227 39.9489 351.232 40.1161C351.065 37.9423 349.892 36.2701 347.882 35.6012C345.872 34.9323 343.862 35.434 342.355 37.1062C343.025 34.2635 343.695 31.2535 342.522 28.7452C342.187 27.9091 341.517 27.073 341.182 26.2369C340.345 24.2303 340.345 22.0564 340.345 19.7154C339.005 21.5548 337.498 23.2269 335.655 24.2303C334.818 24.5647 333.813 24.8991 332.975 25.2336C330.463 26.4041 329.123 29.0796 327.783 31.7551C327.783 29.5813 326.443 27.9091 324.6 27.2402C322.59 26.4041 320.58 26.9058 319.073 28.578C320.078 29.0796 320.915 29.5813 321.418 30.2502C322.088 31.2535 321.585 32.9257 321.418 34.4307C321.418 36.1029 321.92 37.6079 322.59 38.9456C323.26 40.1161 324.265 41.2867 325.438 42.1228C326.275 42.7917 327.113 43.2933 327.95 43.795C326.945 45.6344 325.103 46.8049 323.093 46.8049C320.915 46.8049 319.073 45.8016 318.068 43.9622C317.23 44.9655 316.56 45.8016 315.723 46.4705C314.718 47.1394 313.378 47.3066 312.373 47.9755C310.698 48.9788 309.693 50.9854 308.855 53.1593C309.19 50.9854 309.358 48.6443 308.353 46.9721C307.85 45.9688 306.845 45.1327 306.175 43.9622C305.673 43.1261 305.505 41.9556 305.338 40.6178C303.495 41.6211 301.486 41.6211 299.643 40.6178C297.801 39.6145 296.796 37.6079 296.796 35.6012C297.801 35.6012 298.806 35.6012 299.811 35.434C301.151 35.2668 302.658 34.7651 303.831 34.0962C305.171 33.2601 306.343 32.2568 307.181 30.7518C307.851 29.4141 308.353 27.7419 309.358 27.073C310.195 26.5713 311.2 26.7385 312.205 26.7385C311.703 24.7319 310.195 23.227 308.018 22.8925C305.841 22.5581 303.998 23.3942 302.993 25.2336C303.161 22.2236 303.328 19.2137 301.653 17.0398C301.151 16.2037 300.313 15.5348 299.811 14.8659C298.471 13.1937 298.303 10.8527 297.968 8.67885C296.963 10.6855 295.791 12.6921 294.116 13.8627C293.278 14.3643 292.441 14.6988 291.603 15.3676C289.426 16.8726 288.421 19.7153 287.583 22.5581C287.248 20.5514 285.741 19.0465 283.563 18.5448C281.386 18.2104 279.543 19.0464 278.371 20.7186C279.376 21.0531 280.381 21.3875 280.883 22.0564C281.721 23.0597 281.553 24.7319 281.721 26.2369C281.888 27.9091 282.726 29.2469 283.731 30.4174C284.568 31.4207 285.741 32.424 287.081 33.0929C287.918 33.5946 288.923 33.929 289.761 34.2634C289.091 36.2701 287.583 37.6079 285.406 38.1095C283.396 38.444 281.386 37.7751 280.046 36.2701C279.543 37.4406 278.873 38.4439 278.203 39.1128C277.366 39.9489 276.026 40.4506 275.188 41.2867C273.681 42.6244 273.011 44.7983 272.509 46.9721C272.509 44.6311 272.174 42.4572 270.834 40.9522C269.996 40.1161 268.991 39.4472 268.154 38.4439C267.484 37.6078 267.149 36.6045 266.814 35.434C265.139 36.7717 263.129 37.1062 261.119 36.2701C259.109 35.434 257.769 33.929 257.601 31.7551C258.606 31.5879 259.611 31.4207 260.449 31.0863C261.789 30.5846 263.129 29.9157 264.301 29.0796C265.474 28.0763 266.479 26.9058 266.981 25.2336C267.484 23.7286 267.484 22.0564 268.489 21.2203C269.159 20.7187 270.164 20.5514 271.336 20.3842C270.499 18.3776 268.824 17.207 266.646 17.3742C264.469 17.3742 262.794 18.5448 261.956 20.5515C261.621 17.5415 261.119 14.6987 259.276 12.6921C258.606 12.0232 257.769 11.5216 257.099 10.8527C255.591 9.34771 254.921 7.17385 254.084 5C253.414 7.17385 252.744 9.34771 251.069 10.8527C250.399 11.5216 249.561 12.0232 248.891 12.6921C247.049 14.5315 246.546 17.5415 246.211 20.5515C245.374 18.5448 243.699 17.3742 241.521 17.3742C239.344 17.3742 237.669 18.5448 236.832 20.3842C237.836 20.5514 239.009 20.7187 239.511 21.2203C240.516 22.0564 240.516 23.7286 241.019 25.2336C241.521 26.9058 242.526 28.0763 243.699 29.0796C244.871 29.9157 246.044 30.7518 247.551 31.0863C248.556 31.4207 249.394 31.5879 250.399 31.7551C250.064 33.7618 248.724 35.434 246.881 36.2701C244.871 37.1062 242.861 36.7717 241.186 35.434C240.851 36.7717 240.349 37.775 239.846 38.4439C239.009 39.4472 238.004 40.1161 237.166 40.9522C235.827 42.4572 235.659 44.7983 235.492 46.9721C234.989 44.7983 234.487 42.6244 232.812 41.2867C231.974 40.4506 230.634 40.1161 229.797 39.1128C229.127 38.4439 228.457 37.4406 227.954 36.2701C226.614 37.9423 224.604 38.6112 222.594 38.1095C220.584 37.7751 218.909 36.2701 218.239 34.2634C219.077 33.929 220.082 33.5946 220.919 33.0929C222.259 32.424 223.432 31.4207 224.269 30.4174C225.274 29.2469 225.944 27.9091 226.279 26.2369C226.447 24.7319 226.279 23.0597 227.117 22.0564C227.619 21.3875 228.624 21.0531 229.629 20.7186C228.457 18.8792 226.614 18.0431 224.437 18.5448C222.427 18.8792 220.919 20.3842 220.417 22.5581C219.579 19.7153 218.574 16.8726 216.397 15.3676C215.559 14.866 214.722 14.5315 213.884 13.8627C212.042 12.6921 211.037 10.6855 210.032 8.67885C209.697 11.0199 209.362 13.1937 208.189 14.8659C207.687 15.702 206.849 16.371 206.347 17.0398C204.839 19.2137 204.839 22.2236 205.007 25.2336C204.002 23.3942 201.992 22.5581 199.982 22.8925C197.805 23.227 196.297 24.7319 195.795 26.7385C196.8 26.7385 197.972 26.5713 198.642 27.073C199.647 27.7419 200.15 29.4141 200.82 30.7518C201.657 32.2568 202.83 33.2601 204.169 34.0962C205.342 34.7651 206.849 35.2668 208.189 35.434C209.194 35.6012 210.199 35.6012 211.204 35.6012C211.204 37.7751 210.199 39.6145 208.357 40.6178C206.514 41.6211 204.504 41.7883 202.662 40.6178C202.495 41.9556 202.327 42.9589 201.825 43.9622C201.322 45.1327 200.317 45.9688 199.647 46.9721C198.642 48.6443 198.81 50.9854 199.145 53.1593C198.307 50.9854 197.302 48.9788 195.627 47.9755C194.622 47.3066 193.282 47.1394 192.277 46.4705C191.44 45.9688 190.77 45.1327 189.932 43.9622C188.927 45.8016 187.085 46.8049 184.907 46.8049C182.73 46.8049 181.055 45.6344 180.05 43.795C180.887 43.2933 181.725 42.7917 182.562 42.1228C183.735 41.2867 184.74 40.1161 185.41 38.9456C186.247 37.6079 186.75 36.1029 186.582 34.4307C186.582 32.9257 186.08 31.2535 186.582 30.2502C187.085 29.5813 187.922 29.0796 188.927 28.578C187.42 27.073 185.41 26.5714 183.4 27.2402C181.39 27.9091 180.217 29.7485 180.217 31.7551C178.877 29.0796 177.37 26.4041 175.025 25.2336C174.187 24.8991 173.182 24.5647 172.345 24.2303C170.335 23.3942 168.995 21.5548 167.655 19.7154C167.655 22.0564 167.823 24.2303 166.818 26.2369C166.315 27.073 165.813 27.9091 165.478 28.7452C164.305 31.2535 164.975 34.0962 165.645 37.1062C164.305 35.434 162.128 34.9323 160.118 35.6012C158.108 36.2701 156.768 37.9423 156.768 40.1161C157.773 39.9489 158.778 39.6144 159.615 39.9489C160.788 40.4505 161.458 41.9556 162.463 43.1261C163.468 44.4639 164.808 45.2999 166.315 45.8016C167.655 46.3032 169.162 46.4705 170.502 46.4705C171.507 46.4705 172.512 46.3033 173.517 46.136C173.852 48.1427 173.182 50.1493 171.675 51.6543C170 52.992 167.99 53.3265 165.98 52.6576C165.98 53.9953 165.98 55.1659 165.813 56.002C165.478 57.1725 164.64 58.1758 164.305 59.3464C163.635 61.1858 164.138 63.5269 164.975 65.5335C163.803 63.6941 162.463 61.8547 160.62 61.0186C159.448 60.5169 158.275 60.5169 157.103 60.1825C156.265 59.848 155.428 59.1792 154.423 58.1759C153.753 60.1825 152.078 61.5202 149.9 61.8547C147.723 62.1891 145.88 61.353 144.54 59.8481C145.378 59.1792 146.048 58.5103 146.718 57.8414C147.723 56.8381 148.393 55.5003 148.895 54.1626C149.398 52.6576 149.733 51.1526 149.23 49.4804C148.895 47.9755 148.225 46.4705 148.56 45.2999C148.895 44.4638 149.733 43.7949 150.57 43.2933C148.895 41.9555 146.718 41.9556 144.875 42.9589C143.033 43.9622 142.195 45.9688 142.53 47.9755C140.688 45.6344 138.845 43.2933 136.333 42.4572C135.495 42.29 134.491 42.1228 133.486 41.9555C131.308 41.4539 129.633 39.9489 127.958 38.4439C128.461 40.6178 128.963 42.7916 128.293 44.9655C128.126 45.8016 127.623 46.8049 127.288 47.641C126.618 50.3165 127.791 52.992 128.796 55.8348C127.121 54.497 125.111 54.3298 123.101 55.3331C121.258 56.3364 120.253 58.1758 120.588 60.3497C121.593 59.848 122.598 59.5136 123.436 59.6808C124.776 59.8481 125.613 61.353 126.786 62.3564C127.958 63.5269 129.466 64.0285 130.973 64.363C132.313 64.5302 133.821 64.5302 135.328 64.363C136.333 64.1957 137.17 63.8613 138.175 63.5269C139.013 65.5335 138.678 67.5401 137.338 69.2123C135.998 70.8845 133.988 71.5534 131.978 71.219C132.313 72.5567 132.481 73.5601 132.313 74.5634C132.146 75.9011 131.476 76.9045 131.308 78.075C130.973 80.0816 131.978 82.0883 132.983 84.0949C131.476 82.4227 129.801 80.7505 127.791 80.4161C126.618 80.2488 125.278 80.416 124.106 80.0816C123.101 79.9144 122.263 79.4127 121.091 78.5766C120.756 80.5833 119.416 82.2555 117.406 82.9244C115.396 83.5932 113.386 83.2588 111.711 81.7538C112.381 80.9177 113.051 80.2488 113.553 79.4127C114.391 78.2422 114.893 76.9044 115.061 75.3995C115.396 73.8945 115.228 72.2223 114.558 70.7173C114.056 69.3796 112.883 67.8746 113.218 66.704C113.386 65.8679 114.056 65.0318 114.893 64.363C113.051 63.3596 110.873 63.6941 109.366 65.0318C107.691 66.3696 107.188 68.3762 107.858 70.3829C105.681 68.3762 103.503 66.3696 100.656 66.2024C99.8185 66.2024 98.8135 66.2024 97.8086 66.2024C95.6311 66.0352 93.7886 64.8646 91.7786 63.6941C92.6161 65.868 93.4537 67.8746 93.2862 70.0484C93.2862 71.0517 92.9511 71.8879 92.7836 72.8912C92.6161 75.5667 94.1236 78.075 95.7986 80.5833C93.9561 79.58 91.7786 79.7472 90.2712 81.0849C88.7637 82.4227 87.9262 84.4293 88.5962 86.436C89.4337 85.9343 90.4387 85.2654 91.2762 85.2654C92.6161 85.2654 93.7886 86.436 94.9611 87.2721C96.3011 88.1082 97.976 88.4426 99.4835 88.4426C100.991 88.4426 102.331 88.1081 103.671 87.6065C104.508 87.272 105.513 86.7704 106.351 86.2687C107.356 88.1082 107.523 90.1148 106.518 91.9542C105.513 93.7936 103.671 94.797 101.494 94.9642C101.996 96.1347 102.331 97.138 102.499 98.1413C102.499 99.4791 102.164 100.65 102.164 101.82C102.164 103.827 103.503 105.666 104.843 107.506C103.001 106.168 101.159 104.83 99.1486 104.83C97.9761 104.83 96.8036 105.165 95.4636 105.165C94.4586 105.165 93.4536 104.83 92.2812 104.161C92.2812 106.335 91.2761 108.007 89.2662 109.178C87.4237 110.181 85.2462 110.181 83.5713 109.011C84.0738 108.175 84.5763 107.338 84.9113 106.335C85.4138 104.997 85.7488 103.492 85.7488 102.155C85.7488 100.65 85.4137 98.9774 84.5763 97.6397C83.7388 96.3019 82.5663 95.1314 82.5663 93.9609C82.5663 93.1248 83.2363 92.2887 83.7388 91.2853C81.7288 90.6165 79.7188 91.2853 78.3788 92.9575C77.0389 94.6297 76.8714 96.6364 77.8764 98.643C75.3639 96.9708 72.8514 95.4658 70.1715 95.6331C69.334 95.6331 68.329 95.9675 67.324 96.1347C65.1466 96.3019 63.1366 95.4658 60.9591 94.6297C62.1316 96.4691 63.4716 98.4758 63.4716 100.65C63.4716 101.653 63.4716 102.489 63.4716 103.492C63.6391 106.168 65.8165 108.342 67.659 110.683C65.649 110.014 63.6391 110.516 62.2991 112.188C60.9591 113.86 60.6241 115.867 61.6291 117.706C62.4666 117.037 63.1366 116.201 63.9741 116.034C65.1466 115.867 66.654 116.87 67.994 117.372C69.5015 118.04 71.1764 118.04 72.6839 117.873C74.0239 117.706 75.5314 117.037 76.7039 116.368C77.5413 115.867 78.3789 115.198 79.0489 114.529C80.3888 116.034 80.8913 118.208 80.2213 120.214C79.5513 122.221 77.8763 123.559 75.8664 123.893C76.5364 125.064 77.2064 125.9 77.3739 126.903C77.7089 128.074 77.3739 129.411 77.7089 130.582C78.0438 132.589 79.7188 134.261 81.3938 135.766C79.3838 134.762 77.3739 133.759 75.3639 134.094C74.1914 134.261 73.0189 134.93 71.8464 135.097C70.8415 135.264 69.8365 135.097 68.4965 134.762C68.8315 136.769 68.1615 138.776 66.4865 140.113C64.8116 141.451 62.8016 141.786 60.7916 140.95C61.1266 139.946 61.4616 139.11 61.6291 138.107C61.9641 136.769 61.9641 135.264 61.6291 133.759C61.2941 132.254 60.7916 130.749 59.6191 129.579C58.6142 128.408 57.1067 127.572 56.9392 126.234C56.7717 125.398 57.2742 124.395 57.6091 123.392C55.4317 123.057 53.5892 124.06 52.5842 125.9C51.5792 127.739 51.7468 129.913 53.0867 131.585C50.4068 130.415 47.5593 129.244 44.8793 130.08C44.0418 130.248 43.0369 130.749 42.1994 131.084C40.1894 131.752 37.8444 131.251 35.667 130.749C37.1744 132.421 38.6819 134.094 39.1844 136.267C39.3519 137.104 39.5194 138.107 39.6869 139.11C40.3569 141.786 42.7019 143.458 45.2143 145.297C43.0369 144.963 41.1944 145.966 40.1894 147.638C39.1844 149.478 39.1845 151.484 40.5244 153.324C41.1944 152.488 41.8644 151.652 42.5344 151.317C43.7069 150.816 45.2143 151.652 46.7218 151.986C48.3968 152.32 49.9043 152.153 51.4118 151.652C52.7518 151.15 54.0917 150.314 55.0967 149.478C55.7667 148.809 56.4367 147.973 57.1067 147.304C58.7817 148.642 59.4516 150.648 59.1166 152.655C58.7816 154.662 57.4417 156.334 55.4317 157.17C56.4367 158.173 57.1066 159.009 57.4416 159.845C57.9441 161.016 57.9441 162.354 58.2791 163.357C58.9491 165.196 60.7916 166.534 62.8016 167.705C60.6241 167.036 58.4466 166.367 56.6041 167.036C55.4317 167.37 54.4267 168.206 53.2542 168.541C52.2492 168.875 51.2442 168.875 49.9043 168.708C50.5742 170.715 50.2393 172.721 48.8993 174.394C47.5593 176.066 45.5493 176.735 43.3719 176.233C43.5394 175.23 43.7069 174.226 43.7069 173.223C43.7069 171.718 43.5394 170.38 43.0369 169.042C42.5344 167.537 41.6969 166.2 40.3569 165.196C39.1844 164.193 37.5095 163.524 37.1745 162.354C36.8395 161.518 37.1744 160.514 37.3419 159.511C35.1645 159.678 33.4895 160.849 32.8195 162.855C32.1495 164.862 32.652 166.869 34.327 168.374C31.4795 167.705 28.4646 167.036 25.9521 168.206C25.1146 168.541 24.2772 169.21 23.4397 169.544C21.4297 170.38 19.2522 170.38 16.9073 170.38C18.7497 171.718 20.4247 173.223 21.4297 175.062C21.7647 175.898 22.0997 176.902 22.4347 177.738C23.6072 180.246 26.2871 181.584 28.9671 182.922C26.7896 182.922 25.1146 184.259 24.2772 186.099C23.6072 188.106 24.1096 190.112 25.6171 191.617C26.1196 190.614 26.6221 189.778 27.2921 189.276C28.2971 188.607 29.972 189.109 31.4795 189.276C33.1545 189.276 34.662 188.774 36.002 188.105C37.1745 187.437 38.3469 186.433 39.1844 185.263C39.8544 184.427 40.3569 183.591 40.8594 182.754C42.7019 183.758 43.8744 185.597 43.8744 187.604C43.8744 189.778 42.8694 191.617 41.0269 192.62C42.0319 193.457 42.8694 194.125 43.5394 194.962C44.2094 195.965 44.5443 197.303 45.0468 198.306C46.0518 199.978 48.0618 200.981 50.2393 201.818C48.0618 201.483 45.7168 201.316 44.0418 202.319C43.0369 202.988 42.1994 203.824 41.0269 204.493C40.1894 204.995 39.0169 205.162 37.677 205.329C38.6819 207.169 38.6819 209.342 37.677 211.015C36.672 212.854 34.662 213.857 32.652 213.857C32.652 212.854 32.652 211.851 32.4845 210.847C32.317 209.342 31.8145 208.005 31.1446 206.834C30.3071 205.496 29.3021 204.326 27.7946 203.49C26.4546 202.821 24.7796 202.319 24.1096 201.316C23.6072 200.48 23.7747 199.476 23.7747 198.473C21.7647 198.975 20.2572 200.48 19.9222 202.654C19.5872 204.827 20.4247 206.667 22.2672 207.67C19.2522 207.503 16.2373 207.503 14.0598 209.008C13.2223 209.51 12.5523 210.346 11.8823 210.847C10.2074 212.185 7.86239 212.352 5.68492 212.687C7.69489 213.69 9.70487 214.861 10.8774 216.533C11.3798 217.369 11.7148 218.205 12.3848 219.041C13.8923 221.215 16.7398 222.218 19.5872 223.054C17.5773 223.556 16.0698 224.894 15.5673 227.068C15.2323 229.074 16.0698 231.081 17.7448 232.251C18.0798 231.248 18.4147 230.245 19.0847 229.743C20.0897 228.907 21.7647 229.074 23.2722 228.907C24.9471 228.74 26.2871 227.904 27.4596 226.9C28.4646 226.064 29.4696 224.894 30.1396 223.556C30.6421 222.72 30.9771 221.717 31.3121 220.881C33.322 221.549 34.662 223.222 35.1645 225.228C35.4995 227.235 34.8295 229.241 33.322 230.579C34.4945 231.248 35.4995 231.75 36.1695 232.419C37.007 233.255 37.5094 234.593 38.3469 235.429C39.6869 236.934 41.8644 237.602 44.0418 238.104C41.8644 238.104 39.5194 238.439 38.012 239.776C37.1745 240.445 36.5045 241.616 35.4995 242.452C34.662 242.954 33.657 243.455 32.4845 243.79C33.8245 245.462 34.1595 247.468 33.322 249.475C32.4845 251.482 30.9771 252.819 28.7996 253.154C28.6321 252.151 28.4646 251.147 28.1296 250.311C27.6271 248.973 26.9571 247.636 26.1196 246.465C25.1147 245.295 23.9421 244.291 22.2672 243.79C20.7597 243.288 19.0847 243.288 18.2472 242.285C17.7447 241.616 17.5772 240.612 17.4097 239.609C15.3998 240.445 14.2273 242.117 14.3948 244.291C14.3948 246.465 15.5673 248.137 17.5773 248.973C14.5623 249.308 11.7148 249.81 9.70485 251.649C9.03486 252.318 8.53241 253.154 7.86242 253.823C6.35494 255.328 4.17747 255.997 2 256.833M426.606 257L410.024 247.301L392.772 247.301L388.919 257M117.238 257L113.386 247.301L96.1337 247.301L79.5514 257M187.085 257L190.937 247.301L208.022 247.301L224.772 257M319.073 257L315.22 247.301L297.968 247.301L281.386 257M233.816 257L239.846 253.488L236.329 247.301L243.364 247.301L243.364 240.278L249.561 243.79L253.079 237.77L256.596 243.79L262.626 240.278L262.626 247.301L269.661 247.301L266.143 253.488L272.341 257M70.3388 257L64.3089 253.488L67.8264 247.469L60.7914 247.469L60.7914 240.445L54.7616 243.957L52.9191 240.612M453.238 240.445L451.228 243.79L445.198 240.278L445.198 247.301L438.163 247.301L441.681 253.321L435.651 256.833M156.6 212.52L168.158 219.208L170.67 209.51L177.705 202.486L166.315 195.798L166.315 207.001L156.6 212.52ZM243.364 151.484L243.364 164.695L253.079 162.019L262.626 164.695L262.626 151.484L253.079 157.003L243.364 151.484ZM339.843 195.798L328.285 202.486L335.32 209.51L338 219.208L349.39 212.52L339.843 207.001L339.843 195.798ZM181.39 242.786L166.482 242.786L171.005 225.897L183.902 233.422L190.77 228.071L189.43 236.599L200.317 242.786L187.755 242.786L184.572 250.98L181.39 242.786ZM191.607 221.549L183.4 227.904L172.178 221.549L174.858 211.851L181.893 204.827L193.115 211.349L191.607 221.549ZM197.972 209.008L185.075 201.483L197.47 189.109L205.007 201.985L213.549 200.814L208.189 207.67L214.387 218.372L203.667 212.185L196.8 217.536L197.972 209.008ZM217.569 195.63L207.352 197.135L200.819 185.932L207.854 178.908L217.569 176.233L223.934 187.437L217.569 195.63ZM229.462 187.938L221.924 175.062L238.842 170.547L238.842 185.43L247.049 188.607L238.842 191.784L238.842 204.326L232.644 193.457L224.102 194.794L229.462 187.938ZM253.079 186.266L243.364 182.253L243.364 169.377L253.079 166.701L262.626 169.377L262.626 182.253L253.079 186.266ZM267.149 185.43L267.149 170.547L284.066 175.062L276.696 187.938L282.056 194.794L273.346 193.457L267.149 204.326L267.149 191.784L259.109 188.607L267.149 185.43ZM288.588 195.63L282.056 187.437L288.588 176.233L298.135 178.908L305.338 185.932L298.806 197.135L288.588 195.63ZM301.151 201.985L308.52 189.109L320.915 201.483L308.018 209.008L309.358 217.536L302.49 212.185L291.771 218.372L297.968 207.67L292.608 200.814L301.151 201.985ZM314.383 221.549L313.043 211.349L324.265 204.827L331.3 211.851L333.812 221.549L322.59 227.904L314.383 221.549ZM322.255 233.422L335.152 225.897L339.675 242.786L324.768 242.786L321.585 250.98L318.235 242.786L305.84 242.786L316.56 236.599L315.388 228.071L322.255 233.422ZM122.933 242.786L137.84 242.786L133.318 225.897L120.421 233.422L113.553 228.071L114.726 236.599L104.006 242.786L116.401 242.786L119.751 250.98L122.933 242.786ZM111.208 211.349L112.548 221.549L120.756 227.904L131.978 221.549L129.466 211.851L122.431 204.827L111.208 211.349ZM106.183 209.008L119.081 201.483L106.686 189.109L99.3159 201.985L90.606 200.814L96.1334 207.67L89.7685 218.372L100.656 212.185L107.523 217.536L106.183 209.008ZM80.2213 187.437L86.5862 195.63L96.971 197.135L103.503 185.932L96.301 178.908L86.7537 176.233L80.2213 187.437ZM65.314 204.326L71.5115 193.624L80.0538 194.794L74.6939 187.938L82.0638 175.062L70.8414 172.052C67.994 178.24 65.3141 184.594 63.1366 191.116L65.1465 191.952L65.314 204.326ZM165.813 223.054L166.985 223.556L161.793 242.786L142.531 242.786L137.338 223.556L152.078 215.028L154.423 216.366L165.813 223.054ZM138.008 207.001L147.555 212.52L136.166 219.208L133.486 209.51L126.451 202.486L138.008 195.798L138.008 207.001ZM190.1 167.203L199.647 164.695L206.682 157.672L215.224 172.22L205.51 174.728L198.475 181.751L190.1 167.203ZM187.587 143.792L181.222 151.986L187.755 163.19L197.302 160.514L204.337 153.491L197.805 142.287L187.587 143.792ZM85.7486 145.799L94.2909 154.327L84.5761 171.049L73.0188 167.872C76.8712 160.347 81.0587 152.989 85.7486 145.799ZM97.641 157.672L104.676 164.695L114.223 167.203L105.848 181.751L98.8135 174.728L89.0987 172.22L97.641 157.672ZM118.746 168.373L138.008 173.557L138.008 190.614L123.101 199.142L109.031 185.095L118.746 168.373ZM152.078 182.42L142.53 188.105L142.53 174.728L152.078 177.403L161.792 174.728L161.792 188.105L152.078 182.42ZM195.125 185.095L181.055 199.142L166.315 190.614L166.315 173.557L185.577 168.373L195.125 185.095ZM113.553 121.05L102.833 127.238L101.158 125.9C96.636 131.084 92.4486 136.435 88.5961 142.12L96.8035 150.314L104.173 137.438L112.716 138.609L107.356 131.753L113.553 121.05ZM123.101 151.986L116.736 143.792L106.351 142.287L99.8184 153.491L107.021 160.514L116.568 163.19L123.101 151.986ZM128.796 145.465L123.101 144.628L128.461 151.484L121.091 164.36L138.008 168.875L138.008 153.993L146.048 150.816L138.008 147.471L138.008 135.097L131.811 145.966L128.796 145.465ZM147.723 154.996L142.53 157.17L142.53 170.046L152.078 172.721L161.792 170.046L161.792 157.17L156.433 154.996L152.078 153.157L147.723 154.996ZM166.315 135.097L166.315 147.471L158.275 150.816L166.315 153.993L166.315 168.875L183.232 164.36L175.695 151.484L181.055 144.628L175.528 145.465L172.513 145.966L166.315 135.097ZM200.149 137.438L207.687 150.314L220.082 137.94L207.184 130.582L208.357 121.887L201.489 127.238L190.77 121.05L196.967 131.753L191.607 138.609L200.149 137.438ZM221.757 111.519L213.549 117.873L212.042 128.074L223.432 134.595L230.299 127.572L232.979 118.04L221.757 111.519ZM221.254 106.001L234.151 113.526L238.674 96.6364L223.767 96.6364L220.584 88.4426L217.402 96.6364L205.007 96.6364L215.727 102.824L214.387 111.352L221.254 106.001ZM226.949 72.8911L223.097 82.4227L226.949 92.1214L239.846 92.1214L242.526 82.4227L239.846 72.8911L226.949 72.8911ZM235.659 57.1724C228.792 57.8413 222.092 58.6774 215.392 60.0151L215.727 62.189L205.007 68.3761L217.402 68.3761L220.584 76.4027L223.934 68.3761L238.841 68.3761L235.659 57.1724ZM238.841 165.865L219.579 171.049L210.032 154.327L224.102 140.281L238.841 148.809L238.841 165.865ZM238.842 132.421L238.842 143.625L227.452 136.936L234.487 129.913L236.999 120.382L248.557 126.903L238.842 132.421ZM299.476 157.672L306.51 164.695L316.058 167.203L307.683 181.751L300.648 174.728L290.933 172.22L299.476 157.672ZM318.57 143.792L308.185 142.287L301.821 153.491L308.855 160.514L318.403 163.19L324.935 151.986L318.57 143.792ZM240.349 56.8381C248.891 56.3365 257.434 56.3365 265.809 56.8381L262.794 68.3763L243.531 68.3763L243.197 67.2058L240.349 56.8381ZM261.454 72.8911L258.941 82.4227L261.454 92.1214L244.536 92.1214L247.216 82.4227L244.536 72.8911L261.454 72.8911ZM262.626 96.6364L267.819 115.699L253.079 124.395L238.172 115.699L243.364 96.6364L262.626 96.6364ZM267.149 132.421L257.601 126.903L269.159 120.382L271.671 129.913L278.706 136.936L267.149 143.625L267.149 132.421ZM286.411 171.049L267.149 165.865L267.149 148.809L282.056 140.281L296.126 154.327L286.411 171.049ZM301.151 68.3761L290.431 62.189L290.766 60.0151C284.066 58.6774 277.198 57.8413 270.499 57.1724L267.484 68.3761L282.391 68.3761L285.741 76.4027L288.923 68.3761L301.151 68.3761ZM279.208 92.1214L283.061 82.4227L279.208 72.8911L266.144 72.8911L263.631 82.4227L266.144 92.1214L279.208 92.1214ZM301.15 96.6364L288.756 96.6364L285.573 88.4426L282.223 96.6364L267.316 96.6364L271.838 113.526L284.736 106.001L291.603 111.352L290.933 105.834L290.431 102.824L301.15 96.6364ZM325.605 82.4227L309.023 72.8911L291.771 72.8911L287.918 82.4227L291.771 92.1214L309.023 92.1214L315.723 88.1081L325.605 82.4227ZM288.923 114.863L284.401 111.519L273.178 118.04L275.691 127.572L282.726 134.595L293.948 128.074L292.608 117.873L288.923 114.863ZM315.388 121.05L304.501 127.238L297.633 121.887L298.973 130.582L286.076 137.94L298.471 150.314L305.841 137.438L314.551 138.609L309.023 131.753L315.388 121.05ZM330.63 145.465L324.935 144.628L330.295 151.484L322.925 164.36L339.843 168.875L339.843 153.993L347.883 150.816L339.843 147.471L339.843 135.097L333.645 145.966L330.63 145.465ZM349.557 154.996L344.365 157.17L344.365 170.046L353.912 172.721L363.627 170.046L363.627 157.17L358.267 154.996L353.912 153.157L349.557 154.996ZM360.11 150.816L368.15 153.993L368.15 168.875L385.067 164.36L377.53 151.484L382.889 144.628L377.362 145.465L374.347 145.966L368.15 135.097L368.15 147.471L360.11 150.816ZM399.639 142.287L389.422 143.792L383.057 151.986L389.589 163.19L399.137 160.514L406.171 153.491L399.639 142.287ZM392.604 121.05L398.801 131.753L393.442 138.609L402.151 137.438L409.521 150.314L417.729 142.12C413.876 136.435 409.689 131.084 405.166 125.9L403.491 127.238L392.604 121.05ZM324.935 199.142L310.865 185.095L320.58 168.373L339.842 173.557L339.842 190.614L324.935 199.142ZM353.912 182.42L344.365 188.105L344.365 174.728L353.912 177.403L363.627 174.728L363.627 188.105L353.912 182.42ZM433.138 167.872L421.581 171.049L411.866 154.327L420.409 145.799C425.099 152.989 429.286 160.347 433.138 167.872ZM417.059 172.22L407.344 174.728L400.309 181.751L391.934 167.203L401.482 164.695L408.517 157.672L417.059 172.22ZM396.959 185.095L382.889 199.142L368.15 190.614L368.15 173.557L387.412 168.373L396.959 185.095ZM368.15 207.001L368.15 195.798L379.539 202.486L372.505 209.51L369.992 219.208L358.435 212.52L368.15 207.001ZM344.365 242.786L339.173 223.556L353.912 215.028L368.82 223.556L363.627 242.786L344.365 242.786ZM440.676 204.326L440.676 191.952L442.686 191.116C440.509 184.594 437.829 178.407 434.981 172.052L423.759 175.062L431.129 187.938L425.769 194.794L434.479 193.624L440.676 204.326ZM409.186 197.135L419.404 195.63L425.769 187.437L419.236 176.233L409.689 178.908L402.654 185.932L409.186 197.135ZM406.842 201.985L399.304 189.109L386.909 201.483L399.807 209.008L398.634 217.536L405.502 212.185L416.221 218.372L410.024 207.67L415.384 200.814L406.842 201.985ZM385.235 227.904L393.442 221.549L394.949 211.349L383.727 204.827L376.692 211.851L374.012 221.549L385.235 227.904ZM402.151 242.786L391.432 236.599L392.604 228.071L385.737 233.422L372.839 225.897L368.317 242.786L383.224 242.786L386.407 250.98L389.757 242.786L402.151 242.786ZM420.744 226.231L405.836 217.703L397.797 224.058L396.289 234.258L411.196 242.786L430.459 242.786L424.596 233.087L420.744 226.231ZM438.498 236.432L440.676 237.77L440.676 242.786L435.651 242.786L428.616 230.746L438.498 236.432ZM344.365 193.289L353.912 187.771L363.627 193.289L363.627 204.326L353.912 209.844L344.365 204.326L344.365 193.289ZM445.199 221.048L445.199 235.094L449.721 237.602L452.234 233.255L446.874 224.058L445.199 221.048ZM440.676 213.356L432.134 198.473L421.916 199.811L415.551 208.005L424.094 222.887L430.961 226.733L440.676 232.586L440.676 213.356ZM431.129 254.325L435.484 251.816L432.971 247.301L419.069 247.301L431.129 254.325ZM450.893 221.717C449.553 213.857 447.543 206.165 445.366 198.473L445.366 212.018L450.893 221.717ZM368.15 96.6364L368.15 101.653L380.21 108.676L378.535 105.834L373.175 96.6364L368.15 96.6364ZM243.364 146.133L243.364 135.097L253.079 129.579L262.626 135.097L262.626 146.133L253.079 151.652L243.364 146.133ZM332.137 72.8911L318.068 72.8911L330.127 79.9144L334.65 77.2388L332.137 72.8911ZM333.31 98.8103L334.65 96.6364L339.842 96.6364L339.842 101.653L327.615 108.676L333.31 98.8103ZM351.4 106.168L348.72 101.82L344.365 104.328L344.365 118.208L351.4 106.168ZM323.093 116.535L314.551 131.418L320.915 139.612L331.3 140.95L335.823 132.923L339.843 126.067L339.843 107.004L323.093 116.535ZM298.471 61.5203L310.195 68.2091L321.418 68.2091C313.88 65.7008 306.175 63.3597 298.471 61.5203ZM318.068 92.1215L332.137 92.1215L334.65 87.6065L330.127 85.0982L327.95 86.436L318.068 92.1215ZM329.458 96.6364L310.196 96.6364L303.496 100.482L295.288 105.165L296.796 115.365L305.003 121.887L319.91 113.191L329.458 96.6364ZM382.554 103.492C388.752 108.676 394.447 114.194 399.807 119.88L388.082 113.191L382.554 103.492ZM356.592 106.168L363.627 118.208L363.627 104.328L359.105 101.82L356.592 106.168ZM384.732 116.535L368.15 107.004L368.15 126.067L372.002 132.923L376.692 140.95L386.909 139.612L393.442 131.418L384.732 116.535ZM344.365 127.405L344.365 144.461L353.912 148.307L363.627 144.461L363.627 127.405L353.912 110.683L344.365 127.405ZM174.02 72.8911L171.507 77.2388L175.862 79.9144L178.207 78.5766L188.09 72.8911L174.02 72.8911ZM152.078 110.683L142.53 127.405L142.53 144.461L152.078 148.307L161.792 144.461L161.792 127.405L152.078 110.683ZM149.565 106.168L142.53 118.208L142.53 104.329L146.885 101.82L149.565 106.168ZM152.078 209.844L142.53 204.326L142.53 193.289L152.078 187.771L161.792 193.289L161.792 204.326L152.078 209.844ZM138.008 96.6364L132.815 96.6364L127.455 105.834L125.781 108.676L138.008 101.653L138.008 96.6364ZM121.258 116.535L112.716 131.418L119.081 139.612L129.466 140.95L133.988 132.923L138.008 126.067L138.008 107.004L121.258 116.535ZM154.758 106.168L157.27 101.82L161.793 104.329L161.793 118.208L154.758 106.168ZM178.375 108.676L171.34 96.6364L166.315 96.6364L166.315 101.653L178.375 108.676ZM174.858 140.95L185.075 139.612L191.607 131.418L182.898 116.535L166.315 107.004L166.315 126.067L170.168 132.923L174.858 140.95ZM123.603 103.492C117.573 108.676 111.711 114.194 106.183 119.88L117.908 113.191L123.603 103.492ZM184.74 68.3763C192.277 65.7008 199.815 63.3597 207.687 61.6875L195.962 68.3763L184.74 68.3763ZM174.02 92.1215L188.09 92.1215L175.862 85.0982L171.507 87.6065L174.02 92.1215ZM180.385 82.4227L197.135 92.1214L214.219 92.1214L218.239 82.4227L214.219 72.8911L197.135 72.8911L190.267 76.7371L180.385 82.4227ZM186.247 113.191L201.155 121.887L209.362 115.365L210.702 105.165L195.795 96.6364L176.7 96.6364L186.247 113.191ZM59.1165 224.058L53.7566 233.255L56.4365 237.602L60.7914 235.094L60.7914 221.048L59.1165 224.058ZM73.0188 247.301L70.5063 251.816L75.0287 254.325L87.0886 247.301L73.0188 247.301ZM55.2643 221.717C56.6043 213.857 58.6142 206.165 60.7917 198.473L60.7917 212.018L55.2643 221.717ZM67.6591 236.432L65.3141 237.77L65.3141 242.786L70.5066 242.786L71.8465 240.612L77.5414 230.746L67.6591 236.432ZM82.0639 222.887L90.6063 208.005L84.2414 199.811L74.024 198.473L65.3141 213.356L65.3141 232.586L75.1965 226.733L82.0639 222.887ZM75.6989 242.786L94.9611 242.786L109.868 234.258L108.361 224.058L100.154 217.703L85.4137 226.231L75.6989 242.786ZM231.136 247.301L233.649 251.816L229.294 254.325L217.067 247.301L231.136 247.301ZM275.021 247.301L288.923 247.301L276.863 254.325L272.341 251.816L275.021 247.301ZM267.149 237.77L279.376 230.746L272.341 242.786L267.149 242.786L267.149 237.77ZM287.248 226.231L301.988 217.703L310.195 224.058L311.703 234.258L296.796 242.786L277.533 242.786L287.248 226.231ZM262.626 221.048L262.626 235.094L258.271 237.602L255.591 233.255L256.931 230.914L262.626 221.048ZM267.149 213.356L275.859 198.473L286.076 199.811L292.441 208.005L283.898 222.887L267.149 232.586L267.149 213.356ZM243.364 235.094L243.364 221.048L250.399 233.255L247.887 237.602L243.364 235.094ZM253.079 228.74L243.364 212.185L243.364 194.962L253.079 191.116L262.626 194.962L262.626 212.185L253.079 228.74ZM236.664 236.432L238.841 237.77L238.841 242.786L233.817 242.786L226.782 230.746L236.664 236.432ZM222.259 222.887L213.717 208.005L220.082 199.811L230.299 198.473L238.841 213.356L238.841 232.586L228.959 226.733L222.259 222.887ZM222.762 232.92L228.624 242.786L209.362 242.786L194.454 234.258L195.794 224.058L204.002 217.703L218.909 226.231L222.762 232.92ZM161.793 92.1215L168.827 92.1215L165.31 86.1016L171.34 82.5899L165.31 79.0784L167.32 75.734C157.27 80.4161 147.89 85.9344 138.845 92.1215L142.698 92.1215L142.698 99.1447L148.728 95.6331L152.245 101.653L155.763 95.6331L161.793 99.1447L161.793 92.1215ZM363.627 92.1215L367.48 92.1215C358.435 85.9343 348.887 80.4161 339.005 75.734L341.015 79.0784L334.985 82.5899L341.015 86.1016L337.498 92.1215L344.533 92.1215L344.533 99.1447L350.562 95.6331L354.08 101.653L357.597 95.6331L363.627 99.1447L363.627 92.1215Z" stroke="white" stroke-width="3" stroke-miterlimit="10"/>
</svg>
