<svg width="408" height="807" viewBox="0 0 408 807" fill="none" xmlns="http://www.w3.org/2000/svg">
<path opacity="0.1" d="M-0.000183105 288.863L15.5114 282.442V261.842L-0.000183105 257.562M-0.000183105 515.194L15.5114 521.347V542.215L-0.000183105 546.227M-0.000183105 250.071L15.5114 254.352V227.331L-0.000183105 231.344M-0.000183105 192.819L15.5114 198.973V219.84L-0.000183105 223.853M-0.000183105 611.237L15.5114 604.817V584.217L-0.000183105 579.936M-0.000183105 553.719L15.5114 549.706V576.727L-0.000183105 572.446M0.267242 806C1.33701 802.522 2.40676 799.044 5.08118 796.636C6.15094 795.566 7.48816 794.764 8.55792 793.694C11.4998 790.483 12.3022 785.935 12.8371 781.12C14.1743 784.33 16.8487 786.203 20.3254 786.203C23.8022 786.203 26.4765 784.33 27.8137 781.387C26.2091 781.12 24.3371 780.852 23.5347 780.05C21.9301 778.712 21.93 776.037 21.1277 773.629C20.3254 770.953 18.7208 769.081 16.8487 767.476C14.9766 766.138 13.1045 764.8 10.6976 764.265C9.09292 763.73 7.48824 763.463 6.15103 763.195C6.68592 759.985 8.82549 757.309 12.0348 755.972C15.2441 754.634 18.4533 755.169 21.1277 757.31C21.6626 755.169 22.4649 753.564 23.2672 752.494C24.6044 750.889 26.2092 749.818 27.5464 748.481C29.6859 746.073 29.9534 742.328 30.2208 738.85C31.0231 742.328 31.8254 745.806 34.4998 747.946C35.837 749.284 37.9766 749.819 39.3138 751.424C40.3836 752.494 41.4534 754.099 42.2557 755.972C44.3952 753.296 47.6044 752.226 50.8138 753.029C54.0231 753.564 56.6975 755.972 57.7673 759.182C56.1626 759.717 54.8254 760.252 53.4882 761.055C51.3486 762.125 49.4766 763.73 48.1393 765.335C46.5347 767.208 45.465 769.348 44.9301 772.024C44.6626 774.431 44.9301 777.107 43.5929 778.712C42.7905 779.782 41.1859 780.317 39.5813 780.852C41.4534 783.795 44.3951 785.133 47.8719 784.33C51.3486 783.795 53.4882 781.387 54.2906 777.909C55.6278 782.457 57.2324 787.005 60.7091 789.413C62.0463 790.216 63.3836 790.751 64.7208 791.821C67.6626 793.694 69.2673 796.904 70.8719 800.114C71.4068 796.637 71.9417 792.891 73.8138 790.216C74.6161 788.878 75.9533 788.076 76.7556 786.738C79.1626 783.26 79.1626 778.444 78.8951 773.629C80.4998 776.572 83.7091 777.909 86.9184 777.374C90.3951 776.839 92.8021 774.431 93.6044 771.221C91.9998 771.221 90.1278 771.489 89.058 770.686C87.4533 769.616 86.651 766.941 85.5812 764.8C84.244 762.393 82.3719 760.787 80.2324 759.45C78.3603 758.38 75.9533 757.577 73.8138 757.31C72.2091 757.042 70.6045 757.042 68.9998 757.042C68.9998 753.564 70.6045 750.889 73.5463 749.016C76.4882 747.411 79.6975 747.143 82.6393 749.016C82.9068 746.876 83.1742 745.27 83.9765 743.665C84.7789 741.793 86.3836 740.455 87.4533 738.85C89.058 736.174 88.7905 732.429 88.2556 728.951C89.5928 732.429 91.1975 735.64 93.8719 737.245C95.4765 738.315 97.6161 738.582 99.2207 739.652C100.558 740.455 101.628 741.793 102.965 743.665C104.57 740.722 107.511 739.117 110.988 739.117C114.465 739.117 117.139 740.99 118.744 743.933C117.407 744.736 116.07 745.538 114.732 746.608C112.86 747.946 111.256 749.819 110.186 751.691C108.849 753.831 108.046 756.239 108.314 758.915C108.314 761.322 109.116 763.998 108.314 765.603C107.511 766.673 106.174 767.476 104.57 768.278C106.977 770.686 110.186 771.489 113.395 770.418C116.604 769.081 118.477 766.406 118.477 762.928C120.616 767.208 123.023 771.489 126.767 773.361C128.104 773.896 129.709 774.431 131.046 774.966C134.256 776.304 136.395 779.247 138.535 782.19C138.535 778.712 138.267 774.966 139.872 771.756C140.674 770.418 141.477 769.081 142.011 767.743C143.884 763.73 142.814 759.182 141.744 754.367C143.884 757.042 147.36 757.844 150.57 756.507C153.779 755.437 155.918 752.761 155.918 749.284C154.314 749.551 152.709 750.086 151.372 749.551C149.5 748.748 148.43 746.341 146.825 744.468C145.221 742.328 143.081 740.99 140.674 740.187C138.535 739.385 136.128 739.117 133.988 739.117C132.384 739.117 130.779 739.385 129.174 739.652C128.372 736.442 129.709 733.232 132.116 730.824C134.79 728.684 138 728.149 141.209 729.219C141.209 727.079 141.209 725.206 141.477 723.868C142.011 721.995 143.349 720.39 143.884 718.518C144.953 715.575 144.151 711.829 142.814 708.619C144.686 711.562 146.825 714.505 149.767 715.842C151.639 716.645 153.511 716.645 155.384 717.18C156.721 717.715 158.058 718.785 159.663 720.39C160.732 717.18 163.407 715.04 166.883 714.505C170.36 713.97 173.302 715.307 175.442 717.715C174.104 718.785 173.035 719.855 171.965 720.925C170.36 722.53 169.29 724.671 168.488 726.811C167.686 729.219 167.151 731.626 167.953 734.302C168.488 736.71 169.558 739.117 169.023 740.99C168.488 742.328 167.151 743.398 165.814 744.2C168.488 746.341 171.965 746.341 174.907 744.736C177.849 742.863 179.186 739.92 178.651 736.71C181.593 740.455 184.535 744.2 188.546 745.538C189.884 745.806 191.488 746.073 193.093 746.341C196.57 747.143 199.244 749.551 201.918 751.959C201.116 748.481 200.314 744.736 201.384 741.525C201.651 740.187 202.453 738.582 202.988 737.245C204.058 732.964 202.186 728.684 200.581 724.136C203.256 726.276 206.465 726.543 209.674 724.938C212.616 723.333 214.221 720.123 213.686 716.912C212.081 717.715 210.477 718.25 209.139 717.982C207.267 717.715 205.663 715.307 203.791 713.702C201.918 711.829 199.511 711.027 197.104 710.492C194.965 709.957 192.558 710.224 190.151 710.492C188.546 710.759 187.209 711.294 185.604 711.829C184.267 708.619 184.802 705.408 186.942 702.733C189.081 700.058 192.29 698.988 195.5 699.523C194.965 697.383 194.697 695.777 194.965 694.172C195.232 692.032 196.302 690.427 196.57 688.554C197.104 685.344 195.5 682.133 193.895 678.923C196.302 681.598 198.977 684.273 202.186 684.809C204.058 685.076 206.198 684.809 208.07 685.344C209.674 685.611 211.011 686.681 212.884 687.751C213.418 684.541 215.558 681.866 218.767 680.796C221.977 679.725 225.186 680.261 227.86 682.668C226.791 684.006 225.721 685.076 224.918 686.414C223.581 688.287 222.779 690.427 222.511 692.834C221.977 695.242 222.244 697.918 223.314 700.325C224.116 702.466 225.988 704.873 225.453 706.746C225.186 708.084 224.116 709.422 222.779 710.492C225.721 712.097 229.197 711.562 231.604 709.421C234.279 707.281 235.081 704.071 234.011 700.86C237.488 704.071 240.965 707.281 245.511 707.549C246.849 707.549 248.453 707.549 250.058 707.549C253.535 707.816 256.477 709.689 259.686 711.562C258.349 708.084 257.011 704.873 257.279 701.396C257.546 699.79 257.814 698.453 258.081 696.847C258.349 692.567 255.942 688.554 253.267 684.541C256.209 686.146 259.686 685.879 262.36 683.739C265.035 681.598 265.837 678.388 265.035 675.177C263.697 675.98 262.093 677.05 260.756 677.05C258.616 677.05 256.744 675.177 254.872 673.84C252.732 672.502 250.058 671.967 247.651 671.967C245.244 671.967 243.104 672.502 240.965 673.305C239.628 673.84 238.023 674.642 236.686 675.445C235.081 672.502 234.814 669.292 236.418 666.349C238.023 663.406 240.965 661.801 244.442 661.533C243.639 659.661 243.104 658.056 242.837 656.45C242.837 654.31 243.372 652.437 243.372 650.565C243.372 647.354 241.232 644.411 239.093 641.469C242.035 643.609 244.977 645.749 248.186 645.749C250.058 645.749 251.93 644.947 254.07 645.214C255.674 645.214 257.279 645.749 259.151 646.819C259.151 643.341 261.023 640.666 263.965 638.793C266.907 637.188 270.384 637.188 273.058 639.061C272.256 640.399 271.453 641.736 270.918 643.341C270.116 645.481 269.581 647.889 269.581 650.03C269.581 652.437 270.116 654.845 271.453 657.253C272.79 659.393 274.663 661.266 274.663 663.139C274.663 664.476 273.593 665.814 272.79 667.419C276 668.489 279.209 667.419 281.349 664.744C283.488 662.068 283.756 658.858 282.151 655.915C286.163 658.591 290.174 660.998 294.453 660.731C295.79 660.731 297.395 660.196 299 659.928C302.477 659.661 305.686 660.998 309.163 662.336C307.29 659.126 305.151 656.183 305.151 652.705C305.151 651.367 305.151 649.762 305.151 648.157C304.884 643.876 301.407 640.398 298.465 636.653C301.674 637.723 304.884 636.921 307.023 634.245C309.163 631.57 309.697 628.36 308.093 625.417C306.756 626.487 305.686 627.824 304.349 628.092C302.477 628.36 300.07 626.754 297.93 625.952C295.523 624.882 292.849 624.882 290.442 625.149C288.302 625.684 285.895 626.487 284.023 627.557C282.686 628.36 281.349 629.43 280.279 630.5C278.139 628.092 277.337 624.614 278.407 621.404C279.477 618.193 282.151 616.053 285.36 615.518C284.023 613.645 283.221 612.308 282.953 610.703C282.418 608.83 282.953 606.69 282.418 604.817C281.884 601.607 279.209 598.931 276.535 596.523C279.744 598.129 282.953 599.734 286.163 599.199C288.035 598.931 289.907 597.861 291.779 597.594C293.384 597.326 294.988 597.594 297.128 598.129C296.593 594.918 297.663 591.708 300.337 589.568C303.011 587.427 306.221 586.892 309.43 588.23C308.895 589.835 308.36 591.173 308.093 592.778C307.558 594.918 307.558 597.326 308.093 599.734C308.628 602.142 309.43 604.549 311.302 606.422C312.907 608.295 315.314 609.632 315.581 611.773C315.849 613.11 315.046 614.716 314.511 616.321C317.988 616.856 320.93 615.251 322.535 612.308C324.139 609.365 323.872 605.887 321.732 603.479C326.011 605.352 330.558 607.225 334.837 605.887C336.174 605.619 337.779 604.817 339.116 604.282C342.593 603.479 346.07 604.014 349.546 604.817C347.139 602.142 344.732 599.466 343.93 595.988C343.663 594.651 343.395 593.046 343.128 591.44C342.058 587.16 338.314 584.217 334.302 581.542C337.779 582.077 340.721 580.739 342.325 577.796C343.93 574.853 343.93 571.643 341.791 568.968C340.721 570.305 339.651 571.643 338.581 572.178C336.709 572.981 334.302 571.643 331.895 571.108C329.221 570.573 326.814 570.84 324.407 571.643C322.267 572.446 320.128 573.783 318.523 575.121C317.453 576.191 316.383 577.261 315.314 578.599C312.639 576.459 311.57 573.248 312.104 570.038C312.639 566.828 314.779 564.152 317.988 562.815C316.383 561.209 315.314 559.872 314.779 558.534C313.977 556.661 313.977 554.521 313.442 552.916C312.372 549.973 309.43 547.833 306.221 545.96C309.697 547.03 313.174 548.1 316.116 546.763C317.988 546.228 319.593 544.89 321.465 544.355C323.07 543.82 324.674 543.82 326.814 544.087C325.744 540.877 326.279 537.667 328.418 534.991C330.558 532.316 333.767 531.514 337.244 532.049C336.977 533.654 336.709 535.259 336.709 536.864C336.709 539.272 336.977 541.412 337.779 543.552C338.581 545.96 339.918 548.1 342.058 549.706C343.93 551.311 346.604 552.381 347.139 554.254C347.674 555.591 347.139 557.196 346.872 558.802C350.349 558.534 353.023 556.661 354.093 553.451C355.163 550.241 354.36 547.03 351.686 544.623C356.232 545.693 361.046 546.763 365.058 544.89C366.395 544.355 367.732 543.285 369.07 542.75C372.279 541.412 375.756 541.412 379.5 541.412C376.558 539.272 373.884 536.864 372.279 533.921C371.744 532.584 371.209 530.978 370.674 529.641C368.802 525.628 364.523 523.488 360.244 521.347C363.721 521.347 366.395 519.207 367.465 516.264C368.802 513.054 368 509.843 365.325 507.436C364.523 509.041 363.721 510.379 362.651 511.181C361.046 512.251 358.372 511.449 355.965 511.181C353.29 511.181 350.883 511.984 348.744 513.054C346.872 514.124 345 515.729 343.663 517.602C342.593 518.94 341.79 520.277 340.988 521.615C338.046 520.01 336.174 517.067 336.174 513.857C336.174 510.379 337.779 507.436 340.721 505.831C339.116 504.493 337.779 503.423 336.709 502.085C335.639 500.48 335.372 498.34 334.302 496.734C332.697 494.059 329.488 492.454 326.011 491.116C329.488 491.651 333.232 491.919 335.907 490.314C337.511 489.511 338.849 487.906 340.721 486.836C342.058 486.033 343.93 485.766 346.07 485.498C344.465 482.555 344.465 479.345 346.07 476.402C347.674 473.459 350.883 471.854 354.093 471.854C354.093 473.459 354.093 475.064 354.36 476.67C354.628 478.81 355.43 481.218 356.5 483.09C357.837 485.231 359.442 487.103 361.849 488.441C363.988 489.511 366.663 490.314 367.732 491.919C368.535 493.257 368.267 494.862 368.267 496.467C371.477 495.664 373.883 493.257 374.418 489.779C374.953 486.301 373.616 483.358 370.674 481.753C375.488 482.02 380.302 482.288 383.779 479.612C385.116 478.81 386.186 477.472 387.256 476.67C389.93 474.529 393.674 474.262 397.151 473.727C393.942 472.122 390.732 470.249 388.86 467.574C388.058 466.236 387.523 464.898 386.453 463.561C384.046 460.083 379.5 458.478 374.953 457.14C378.163 456.605 380.57 454.197 381.372 450.719C381.907 447.241 380.57 444.298 377.895 442.426C377.36 444.031 376.825 445.636 375.756 446.439C374.151 447.776 371.476 447.509 369.07 447.776C366.395 448.044 364.256 449.382 362.383 450.987C360.779 452.324 359.174 454.197 358.104 456.337C357.302 457.675 356.767 459.28 356.232 460.618C353.023 459.548 350.883 457.14 350.081 453.662C349.546 450.452 350.616 447.241 353.023 445.101C351.151 444.298 349.546 443.228 348.477 442.158C347.139 440.82 346.337 438.68 345 437.343C342.86 434.935 339.383 433.865 335.907 433.062C339.651 433.062 343.128 432.527 345.535 430.387C346.872 429.049 347.942 427.444 349.546 426.106C350.884 425.036 352.488 424.501 354.36 423.966C352.221 421.291 351.686 418.081 353.023 414.87C354.36 411.66 356.767 409.519 360.244 409.252C360.511 410.857 360.779 412.462 361.314 413.8C362.116 415.94 363.186 418.08 364.523 419.953C366.128 421.826 368 423.431 370.674 424.234C373.081 425.036 375.756 425.036 377.093 426.641C377.895 427.712 378.163 429.317 378.43 431.189C381.639 429.852 383.511 427.176 383.244 423.699C383.244 420.221 381.372 417.545 378.163 416.208C382.976 415.673 387.523 414.87 390.732 411.927C391.802 410.857 392.604 409.519 393.674 408.449C396.081 406.042 399.558 404.971 403.035 403.634C399.558 402.564 396.081 401.494 393.674 398.818C392.604 397.748 391.802 396.41 390.732 395.34C387.79 392.397 382.976 391.595 378.163 391.06C381.372 389.722 383.244 387.047 383.244 383.569C383.244 380.091 381.372 377.416 378.43 376.078C378.163 377.683 377.895 379.556 377.093 380.359C375.756 381.964 373.081 381.964 370.674 382.766C368 383.569 366.128 385.174 364.523 387.047C363.186 388.92 361.849 390.792 361.314 393.2C360.779 394.805 360.511 396.143 360.244 397.748C357.035 397.213 354.36 395.073 353.023 392.13C351.686 388.92 352.221 385.709 354.36 383.034C352.221 382.499 350.616 381.696 349.546 380.894C347.942 379.556 346.872 377.951 345.535 376.613C343.128 374.473 339.383 374.205 335.907 373.938C339.383 373.135 342.86 372.333 345 369.657C346.337 368.32 346.872 366.179 348.477 364.842C349.546 363.772 351.151 362.702 353.023 361.899C350.349 359.759 349.279 356.548 350.081 353.338C350.616 350.128 353.023 347.452 356.232 346.382C356.767 347.72 357.302 349.325 358.104 350.663C359.174 352.803 360.779 354.676 362.383 356.013C364.256 357.618 366.395 358.689 369.07 359.224C371.476 359.491 374.151 359.224 375.756 360.561C376.825 361.364 377.36 362.969 377.895 364.574C380.837 362.702 382.174 359.759 381.372 356.281C380.837 353.07 378.43 350.663 374.953 349.86C379.5 348.522 384.046 346.917 386.453 343.439C387.256 342.102 387.79 340.764 388.86 339.426C390.732 336.484 393.942 334.878 397.151 333.273C393.407 332.738 389.93 332.203 387.256 330.33C385.918 329.528 384.849 328.19 383.779 327.388C380.302 324.98 375.488 324.98 370.674 325.247C373.616 323.642 374.953 320.432 374.418 317.221C373.883 313.743 371.477 311.336 368.267 310.533C368.267 312.138 368.535 314.011 367.732 315.081C366.663 316.686 363.988 317.489 361.849 318.559C359.442 319.897 357.837 321.769 356.5 323.91C355.43 325.782 354.628 328.19 354.36 330.33C354.093 331.935 354.093 333.541 354.093 335.146C350.616 335.146 347.674 333.541 346.07 330.598C344.465 327.655 344.197 324.445 346.07 321.502C343.93 321.234 342.325 320.967 340.721 320.164C338.849 319.362 337.511 317.756 335.907 316.686C333.232 315.081 329.488 315.349 326.011 315.884C329.488 314.546 332.697 312.941 334.302 310.265C335.372 308.66 335.639 306.52 336.709 304.915C337.511 303.577 338.849 302.507 340.721 301.169C337.779 299.564 336.174 296.621 336.174 293.144C336.174 289.666 338.046 286.99 340.988 285.385C341.79 286.723 342.593 288.06 343.663 289.398C345 291.271 346.872 292.876 348.744 293.946C350.883 295.284 353.29 296.086 355.965 295.819C358.372 295.819 361.046 295.016 362.651 295.819C363.721 296.621 364.523 297.959 365.325 299.564C367.732 297.156 368.535 293.946 367.465 290.736C366.395 287.525 363.453 285.653 360.244 285.653C364.523 283.512 368.802 281.105 370.674 277.359C371.209 276.022 371.744 274.416 372.279 273.079C373.616 269.868 376.558 267.728 379.5 265.588C375.756 265.588 372.279 265.855 369.07 264.25C367.732 263.448 366.395 262.645 365.058 262.11C361.046 260.237 356.5 261.307 351.686 262.378C354.36 260.237 355.163 256.759 354.093 253.549C353.023 250.339 350.349 248.198 346.872 248.198C347.139 249.804 347.674 251.409 347.139 252.746C346.337 254.619 343.93 255.689 342.058 257.294C339.918 258.9 338.581 261.04 337.779 263.448C336.977 265.588 336.709 267.996 336.709 270.136C336.709 271.741 336.977 273.346 337.244 274.951C334.035 275.487 330.825 274.416 328.418 272.009C326.279 269.333 325.744 266.123 326.814 262.913C324.674 262.913 322.802 262.913 321.465 262.645C319.593 262.11 317.988 260.772 316.116 260.237C313.174 259.167 309.43 259.97 306.221 261.307C309.163 259.435 312.104 257.294 313.442 254.352C314.244 252.479 314.244 250.606 314.779 248.733C315.314 247.396 316.383 246.058 317.988 244.453C314.779 243.383 312.639 240.708 312.104 237.23C311.57 233.752 312.907 230.809 315.314 228.669C316.383 230.006 317.453 231.076 318.523 232.147C320.128 233.752 322.267 234.822 324.407 235.624C326.814 236.427 329.221 236.962 331.895 236.16C334.302 235.624 336.709 234.554 338.581 235.089C339.918 235.624 340.988 236.962 341.791 238.3C343.93 235.624 343.93 232.147 342.325 229.204C340.721 226.261 337.511 224.923 334.302 225.458C338.046 222.515 341.791 219.573 343.128 215.56C343.395 214.222 343.663 212.617 343.93 211.012C344.732 207.534 347.139 204.858 349.546 202.183C346.07 202.986 342.593 203.788 339.116 202.718C337.779 202.451 336.174 201.648 334.837 201.113C330.558 200.043 326.279 201.916 321.732 203.521C323.872 200.845 324.139 197.635 322.535 194.425C320.93 191.482 317.988 189.877 314.511 190.412C315.314 192.017 315.849 193.622 315.581 194.96C315.314 197.1 312.907 198.438 311.302 200.31C309.43 202.183 308.628 204.591 308.093 206.999C307.825 209.139 307.825 211.547 308.093 213.954C308.36 215.56 308.895 216.897 309.43 218.502C306.221 219.84 303.011 219.305 300.337 217.165C297.663 215.025 296.593 211.814 297.128 208.604C294.988 209.139 293.384 209.406 291.779 209.139C289.639 208.871 288.035 207.801 286.163 207.534C282.953 206.999 279.744 208.604 276.535 210.209C279.209 207.801 281.884 205.126 282.418 201.916C282.686 200.043 282.418 197.903 282.953 196.03C283.221 194.425 284.023 193.087 285.36 191.214C282.151 190.679 279.477 188.539 278.407 185.329C277.337 182.118 277.872 178.908 280.279 176.233C281.616 177.303 282.686 178.373 284.023 179.175C285.895 180.513 288.035 181.316 290.442 181.583C292.849 182.118 295.523 181.851 297.93 180.781C300.07 179.978 302.477 178.105 304.349 178.64C305.686 178.908 307.023 179.978 308.093 181.316C309.697 178.373 309.163 174.895 307.023 172.487C304.884 169.812 301.674 169.009 298.465 170.079C301.674 166.601 304.884 163.124 305.151 158.576C305.151 157.238 305.151 155.633 305.151 154.028C305.418 150.55 307.29 147.607 309.163 144.396C305.686 145.734 302.477 147.072 299 146.804C297.395 146.804 296.058 146.269 294.453 146.002C290.174 145.734 286.163 148.142 282.151 150.817C283.756 147.874 283.488 144.396 281.349 141.989C279.209 139.581 276 138.243 272.79 139.313C273.593 140.651 274.663 142.256 274.663 143.594C274.663 145.734 272.79 147.607 271.453 149.48C270.116 151.62 269.581 154.295 269.581 156.703C269.581 159.111 270.116 161.251 270.918 163.391C271.453 164.729 272.256 166.334 273.058 167.672C270.116 169.277 266.907 169.544 263.965 167.939C261.023 166.334 259.418 163.391 259.151 159.913C257.279 160.716 255.674 161.251 254.07 161.518C251.93 161.518 250.058 160.983 248.186 160.983C244.977 160.983 242.035 163.124 239.093 165.264C241.232 162.321 243.372 159.378 243.372 156.168C243.372 154.295 242.837 152.422 242.837 150.282C242.837 148.677 243.372 147.072 244.442 145.199C240.965 145.199 238.29 143.594 236.418 140.383C234.814 137.441 234.814 133.963 236.686 131.287C238.023 132.09 239.36 132.893 240.965 133.428C243.104 134.23 245.511 134.765 247.651 134.765C250.058 134.765 252.732 134.23 254.872 132.893C257.011 131.555 258.883 129.682 260.756 129.682C262.093 129.682 263.43 130.752 265.035 131.555C266.104 128.345 265.035 125.134 262.36 122.994C259.686 120.854 256.477 120.586 253.267 122.191C255.942 118.178 258.349 114.165 258.081 109.885C258.081 108.547 257.546 106.942 257.279 105.337C257.011 101.859 258.349 98.6487 259.686 95.1708C256.744 97.0435 253.535 99.1837 250.058 99.1837C248.453 99.1837 247.116 99.1837 245.511 99.1837C241.232 99.4513 237.756 102.929 234.011 105.872C235.081 102.662 234.279 99.4513 231.604 97.3111C228.93 95.1708 225.721 94.6357 222.779 96.2409C223.849 97.5785 225.186 98.6487 225.453 99.9864C225.721 101.859 224.116 104.267 223.314 106.407C222.244 108.815 222.244 111.49 222.511 113.898C222.779 116.038 223.849 118.446 224.918 120.319C225.721 121.656 226.791 122.994 227.86 124.064C225.453 126.204 221.977 127.007 218.767 125.937C215.558 124.867 213.418 122.191 212.884 118.981C211.011 120.051 209.674 121.121 208.07 121.389C206.198 121.924 204.058 121.389 202.186 121.924C198.977 122.459 196.302 125.134 193.895 127.81C195.5 124.599 197.104 121.389 196.57 118.178C196.302 116.306 195.232 114.433 194.965 112.56C194.697 110.955 194.965 109.35 195.5 107.21C192.29 107.745 189.081 106.675 186.942 103.999C184.802 101.324 184.267 98.1136 185.604 94.9032C187.209 95.4383 188.546 95.9734 190.151 96.2409C192.291 96.776 194.698 96.776 197.104 96.2409C199.511 95.7058 201.918 94.9033 203.791 93.0306C205.663 91.4254 207 89.0176 209.139 88.7501C210.477 88.4825 212.081 89.2851 213.686 89.8202C214.221 86.3423 212.616 83.3994 209.674 81.7942C206.732 80.1891 203.256 80.4566 200.581 82.5969C202.453 78.3164 204.325 73.7683 202.988 69.4878C202.721 68.1502 201.918 66.545 201.384 65.2074C200.314 61.997 201.116 58.2515 201.918 54.7736C199.244 57.1814 196.57 59.5892 193.093 60.3918C191.756 60.6593 190.151 60.9269 188.546 61.1944C184.267 62.2645 181.593 66.0099 178.651 70.0229C179.186 66.545 177.581 63.6022 174.907 61.997C171.965 60.3918 168.756 60.3918 165.814 62.5321C167.151 63.6022 168.488 64.6723 169.023 65.7424C169.825 67.6151 168.488 70.0229 167.953 72.4307C167.418 75.106 167.686 77.5138 168.488 79.9216C169.29 82.0618 170.628 84.202 171.965 85.8072C173.035 86.8773 174.372 87.9475 175.442 89.0176C173.302 91.6929 170.093 92.763 166.883 92.2279C163.674 91.6929 161 89.5527 159.663 86.3423C158.058 87.9475 156.721 89.0176 155.384 89.5526C153.511 90.3552 151.372 90.3552 149.767 90.8903C146.825 91.9604 144.686 94.9033 142.814 98.1136C143.883 94.6357 144.953 91.1578 143.884 88.215C143.349 86.3422 142.011 84.7371 141.477 82.8643C140.942 81.2592 140.942 79.654 141.209 77.5137C138 78.5839 134.79 78.0489 132.116 75.9086C129.442 73.7684 128.372 70.5579 129.174 67.08C130.779 67.3476 132.384 67.6151 133.988 67.6151C136.395 67.6151 138.535 67.3476 140.674 66.545C143.081 65.7424 145.221 64.4048 146.825 62.2645C148.43 60.3918 149.5 57.7165 151.372 57.1815C152.709 56.6464 154.314 57.1814 155.918 57.4489C155.651 53.971 153.779 51.2958 150.57 50.2256C147.36 49.1555 144.151 49.9581 141.744 52.6334C142.814 48.0854 143.884 43.2698 142.011 39.2569C141.477 37.9192 140.407 36.5816 139.872 35.2439C138.535 32.0335 138.535 28.5557 138.535 24.8102C136.395 27.7531 133.988 30.4283 131.046 32.0335C129.709 32.5686 128.104 33.1036 126.767 33.6387C122.756 35.5114 120.616 39.7919 118.477 44.0724C118.477 40.5945 116.337 37.9192 113.395 36.5816C110.186 35.5114 106.977 36.314 104.57 38.7218C106.174 39.5244 107.511 40.327 108.314 41.3971C109.383 43.0023 108.581 45.6776 108.314 48.0854C108.314 50.7607 109.116 53.1685 110.186 55.3087C111.256 57.1814 112.86 59.0541 114.732 60.3918C116.07 61.4619 117.407 62.2645 118.744 63.0671C117.139 66.0099 114.197 67.8827 110.988 67.8827C107.511 67.8827 104.57 66.2775 102.965 63.3346C101.628 64.9398 100.558 66.2775 99.2207 67.3476C97.6161 68.4177 95.4765 68.9528 93.8719 69.7554C91.1975 71.3605 89.5928 74.5709 88.2556 78.0488C88.7905 74.5709 89.058 70.8255 87.4533 68.1502C86.3836 66.545 85.0463 65.2074 83.9765 63.3346C83.1742 61.997 82.9068 60.1243 82.6393 57.984C79.6975 59.5892 76.2207 59.5892 73.5463 57.984C70.6045 56.3788 68.9998 53.1685 68.9998 49.9581C70.6045 49.9581 72.2091 49.9581 73.8138 49.6905C76.2208 49.423 78.3603 48.6205 80.2324 47.5503C82.3719 46.2127 84.244 44.6075 85.5812 42.1997C86.651 40.0595 87.4533 37.3841 89.058 36.314C90.3952 35.5114 91.9998 35.779 93.6044 35.779C92.8021 32.5686 90.3951 30.1608 86.9184 29.6257C83.4417 29.0907 80.4998 30.4283 78.8951 33.3712C79.1626 28.5556 79.1626 23.7401 76.7556 20.2622C75.9533 18.9245 74.6161 17.8544 73.8138 16.7843C71.6742 14.109 71.4068 10.3635 70.8719 6.88563C69.2673 10.096 67.3952 13.3064 64.7208 15.1791C63.3836 15.9817 62.0463 16.5167 60.7091 17.5869C57.2324 19.9946 55.6278 24.5427 54.2906 29.0907C53.4882 25.8804 51.3486 23.4725 47.8719 22.6699C44.6626 22.1349 41.4534 23.4726 39.5813 26.1479C41.1859 26.6829 42.7905 27.218 43.5929 28.2881C44.9301 29.8933 44.6626 32.5686 44.9301 34.9764C45.1975 37.6517 46.5347 39.7919 48.1393 41.6646C49.4766 43.2698 51.3486 44.875 53.4882 45.9451C54.8254 46.7477 56.4301 47.2828 57.7673 47.8179C56.6975 51.0283 54.0231 53.1685 50.8138 53.9711C47.6044 54.5061 44.3952 53.436 42.2557 51.0282C41.1859 52.9009 40.3836 54.5061 39.3138 55.5763C37.9766 56.9139 35.837 57.7165 34.4998 59.0541C32.0928 61.1944 31.0231 64.6723 30.2208 68.1502C30.2208 64.6723 29.6859 60.9269 27.5464 58.5191C26.4766 57.1815 24.6044 56.1113 23.2672 54.5062C22.4649 53.1685 21.6626 51.5633 21.1277 49.6905C18.4533 51.8308 15.2441 52.3659 12.0348 51.0282C8.82549 49.6906 6.68592 47.2828 6.15103 43.8049C7.75568 43.5374 9.36036 43.2698 10.6976 42.7347C12.8371 41.9321 14.9766 40.8621 16.8487 39.5244C18.7208 37.9192 20.3254 36.0465 21.1277 33.3712C21.93 30.9634 21.9301 28.2881 23.5347 26.9504C24.6045 26.1478 26.2091 25.8803 27.8137 25.6128C26.4765 22.4024 23.8022 20.5297 20.3254 20.7973C16.8487 20.7973 14.1743 22.67 12.8371 25.8803C12.3022 21.0648 11.4998 16.5167 8.55792 13.3063C7.48816 12.2362 6.15094 11.4337 5.08118 10.3636C2.6742 7.9558 1.60445 4.4779 0.267242 1M-0.000183105 679.19L15.5114 652.705V625.149L-0.000183105 618.996M-0.000183105 185.061L15.5114 178.908V151.352L-0.000183105 124.867M-0.000183105 296.622L15.5114 302.775V330.063L-0.000183105 356.816M-0.000183105 507.436L15.5114 501.283V473.727L-0.000183105 447.241M6.10352e-05 371.262L5.61627 380.893L15.5117 375.275V386.512H26.7441L21.1279 396.41L30.7558 402.028L21.1279 407.647L26.7441 417.278H15.5117V428.514L5.61627 422.896L6.10352e-05 432.794M-0.000213623 110.152L5.616 100.521L15.2438 106.139V94.903H26.4764L20.8602 85.2719L26.2091 82.3291M26.4767 721.728L21.1279 718.517L26.7441 708.886H15.5117V697.65L5.88364 703.268L0.267426 693.637M71.1394 247.931L60.4418 266.391L75.9534 270.404L87.186 281.64L97.8836 263.448H79.965L71.1394 247.931ZM168.756 386.512H147.628L151.907 402.029L147.628 417.278H168.756L159.93 402.029L168.756 386.512ZM97.8836 540.61L87.186 522.15L75.9534 533.386L60.4418 537.667L71.1394 555.859L79.965 540.61H97.8836ZM22.7325 287.525V263.715L49.7441 270.938L37.7092 291.538L46.2674 302.507L32.6278 300.367L22.7325 317.756V297.692L9.62781 292.608L22.7325 287.525ZM56.6975 303.845L46.5347 290.736L56.6975 272.812L72.2091 277.092L83.4417 288.328L73.0115 306.253L56.6975 303.845ZM76.7557 314.011L88.7906 293.411L108.581 313.208L87.9883 325.247L89.8604 338.891L78.8952 330.33L61.779 340.229L71.6744 323.107L63.1162 312.138L76.7557 314.011ZM98.1509 345.312L95.744 328.993L113.663 318.559L124.895 329.795L129.174 345.312L111.256 355.478L98.1509 345.312ZM110.453 364.307L131.046 352.268L138.267 379.289H114.465L109.383 392.398L104.302 379.289H84.244L101.628 369.39L99.4882 355.746L110.453 364.307ZM113.128 402.029L119.547 386.512H140.139L144.419 402.029L140.139 417.278H119.547L113.128 402.029ZM114.465 424.501H138.267L131.046 451.522L110.453 439.75L99.4882 448.311L101.628 434.4L84.244 424.501H104.302L109.383 411.66L114.465 424.501ZM98.1509 458.745L111.256 448.311L129.174 458.745L124.895 473.994L113.663 485.498L95.744 475.064L98.1509 458.745ZM87.9883 478.81L108.581 490.581L88.7906 510.378L76.7557 489.779L63.1162 491.919L71.6744 480.95L61.779 463.828L78.8952 473.727L89.8604 465.166L87.9883 478.81ZM56.6975 499.945L73.0115 497.805L83.4417 515.729L72.2091 526.965L56.6975 530.978L46.5347 513.054L56.6975 499.945ZM37.7092 512.519L49.7441 533.118L22.7325 540.342V516.532L9.62781 511.449L22.7325 506.098V486.301L32.6278 503.423L46.2674 501.55L37.7092 512.519ZM22.7325 194.157V217.967L49.7441 210.744L37.7092 190.144L46.2674 179.175L32.6278 181.048L22.7325 163.926V183.723L9.62781 189.074L22.7325 194.157ZM73.0115 175.43L56.6975 177.57L46.5347 190.679L56.6975 208.604L72.2091 204.591L83.4417 193.355L73.0115 175.43ZM76.7557 167.404L88.7906 188.004L108.581 168.206L87.9883 156.435L89.8604 142.524L78.8952 151.352L61.779 141.186L71.6744 158.575L63.1162 169.544L76.7557 167.404ZM111.256 125.937L98.1509 136.103L95.744 152.69L113.663 163.123L124.895 151.62L129.174 136.37L111.256 125.937ZM84.2439 102.127L101.36 112.025L99.4881 125.669L110.453 117.108L131.046 128.88L135.86 110.955C125.965 106.407 115.802 102.127 105.372 98.6487L104.035 101.859L84.2439 102.127ZM54.2906 262.645L53.4883 264.518L22.7325 256.225V225.458L53.4883 217.165L67.1278 240.708L64.9883 244.453L54.2906 262.645ZM79.965 218.235L71.1394 233.484L60.4418 215.292L75.9534 211.012L87.186 199.775L97.8836 218.235H79.965ZM143.616 301.437L147.628 316.686L158.86 327.923L135.593 341.567L131.581 326.05L120.349 314.814L143.616 301.437ZM181.058 297.424L167.953 287.258L150.035 297.692L154.314 312.941L165.546 324.177L183.465 313.743L181.058 297.424ZM177.849 134.765L164.209 148.409L137.465 132.892L142.547 114.433C154.581 120.586 166.349 127.274 177.849 134.765ZM158.86 153.76L147.628 164.996L143.616 180.246L120.349 166.869L131.581 155.633L135.593 140.116L158.86 153.76ZM141.744 187.469L133.453 218.235H106.174L92.5349 194.424L115 171.952L141.744 187.469ZM119.279 240.707L110.186 225.458H131.581L127.302 240.707L131.581 256.224H110.186L119.279 240.707ZM115 309.463L92.5349 286.991L106.174 263.448H133.453L141.744 294.214L115 309.463ZM217.43 179.175L207.535 162.053L209.674 159.378C201.383 152.155 192.825 145.466 183.732 139.313L170.628 152.422L191.221 164.194L189.349 177.838L200.314 169.277L217.43 179.175ZM167.953 194.424L181.058 184.258L183.465 167.671L165.546 157.238L154.314 168.741L150.035 183.991L167.953 194.424ZM178.383 203.521L179.721 194.425L168.756 202.986L148.162 191.215L140.942 218.235H164.744L169.825 231.077L175.174 218.235H194.965L177.581 208.337L178.383 203.521ZM163.139 233.752L159.663 225.458H139.07L134.791 240.707L139.07 256.224H159.663L163.139 247.663L166.081 240.707L163.139 233.752ZM194.965 263.448H175.174L169.825 250.606L164.744 263.448H140.942L148.162 290.468L168.756 278.43L179.721 286.991L178.383 278.162L177.581 273.346L194.965 263.448ZM191.221 317.489L170.628 329.528L190.418 349.325L202.186 328.725L216.093 330.598L207.535 319.629L217.43 302.507L200.314 312.406L189.349 303.845L191.221 317.489ZM232.674 352L222.512 338.891L206.198 336.483L195.767 354.675L207 365.644L222.244 369.925L232.674 352ZM241.5 351.198L229.465 371.798L256.476 379.021V355.211L269.581 350.128L256.476 345.044V325.247L246.581 342.369L232.942 340.229L241.5 351.198ZM294.453 360.294L279.209 354.141L263.698 360.294V380.894L279.209 385.174L294.453 380.894V360.294ZM319.593 374.205C318.523 363.237 317.186 352.535 315.046 341.834L311.57 342.369L301.674 325.247V345.044L288.837 350.128L301.674 355.478V379.288L319.593 374.205ZM145.756 379.288L137.465 348.522L164.209 333.273L186.674 355.746L173.035 379.288H145.756ZM199.244 379.289H181.325L192.023 361.097L203.256 372.333L218.5 376.346L208.07 394.806L199.244 379.289ZM158.86 476.135L147.628 487.371L143.616 502.62L120.349 489.244L131.581 478.007L135.593 462.491L158.86 476.135ZM181.058 506.633L183.465 490.046L165.546 479.88L154.314 491.116L150.035 506.366L167.953 516.799L181.058 506.633ZM320.128 381.696C320.93 395.34 320.93 408.985 320.128 422.361L301.674 417.546V386.779L303.546 386.244L320.128 381.696ZM294.453 415.405L279.209 411.392L263.698 415.405V388.385L279.209 392.665L294.453 388.385V415.405ZM256.476 417.278L225.988 425.571L212.081 402.029L225.988 378.218L256.476 386.512V417.278ZM199.244 424.501L208.07 409.252L218.5 427.712L203.256 431.725L192.023 442.961L181.325 424.501H199.244ZM137.465 455.267L145.756 424.501H173.035L186.674 448.312L164.209 470.784L137.465 455.267ZM301.674 478.81L311.57 461.688L315.046 462.223C317.186 451.522 318.523 440.553 319.593 429.852L301.674 425.036V448.846L288.837 454.197L301.674 459.28V478.81ZM263.698 443.763L279.209 449.916L294.453 443.763V422.896L279.209 418.883L263.698 422.896V443.763ZM256.476 478.81V459.013L269.581 453.929L256.476 448.579V424.768L229.465 431.992L241.5 452.592L232.942 463.56L241.767 462.49L246.581 461.688L256.476 478.81ZM279.209 517.869L294.453 491.384V463.828L279.209 457.675L263.698 463.828V491.384L270.116 502.085L279.209 517.869ZM227.326 459.28L232.674 452.057L222.244 434.132L207 438.145L195.767 449.381L206.198 467.306L222.512 465.166L227.326 459.28ZM217.43 501.55L207.535 484.161L216.093 473.192L202.186 475.332L190.418 454.732L170.628 474.53L191.221 486.301L189.349 500.213L200.314 491.384L217.43 501.55ZM178.383 525.896L179.721 516.8L168.756 525.361L148.162 513.589L140.942 540.61H164.744L169.825 553.451L175.174 540.61H194.965L177.581 530.711L178.383 525.896ZM163.139 556.126L159.663 547.833H139.07L134.791 563.082L139.07 578.599H159.663L163.139 570.038L166.081 563.082L163.139 556.126ZM169.825 572.981L164.744 585.822H140.942L148.162 612.843L168.756 600.804L179.721 609.365L178.383 600.536L177.581 595.721L194.965 585.822H175.174L169.825 572.981ZM183.465 636.118L181.058 619.799L167.953 609.633L150.035 620.066L154.314 635.315L165.546 646.552L183.465 636.118ZM217.43 624.882L200.314 634.78L189.349 626.219L191.221 640.131L170.628 651.902L183.732 665.011C192.825 658.858 201.383 652.17 209.674 644.946L207.535 642.271L217.43 624.882ZM92.5349 516.799L115 494.326L141.744 509.843L133.453 540.609H106.174L92.5349 516.799ZM119.279 563.082L110.186 547.833H131.581L127.302 563.082L131.581 578.599H110.186L119.279 563.082ZM142.547 689.624L137.465 671.164L164.209 655.648L177.849 669.292C166.349 676.782 154.581 683.471 142.547 689.624ZM135.593 663.941L131.581 648.425L120.349 637.188L143.616 623.812L147.628 639.061L158.86 650.297L135.593 663.941ZM115 631.838L92.5349 609.365L106.174 585.823H133.453L141.744 616.589L115 631.838ZM79.965 585.822H97.8836L87.186 604.014L75.9534 592.778L60.4418 588.765L71.1394 570.306L79.965 585.822ZM22.7325 547.833L53.4883 539.54L67.1278 563.082L53.4883 586.893L22.7325 578.599V547.833ZM84.2439 701.663H104.035L105.372 704.874C115.802 701.396 125.697 697.115 135.86 692.567L131.046 674.643L110.453 686.414L99.4881 677.853L101.36 691.765L84.2439 701.663ZM95.744 651.367L98.1509 667.687L111.256 677.853L129.174 667.419L124.895 652.17L113.663 640.933L95.744 651.367ZM87.9883 647.622L108.581 635.583L88.7906 615.786L76.7557 636.386L63.1162 634.513L71.6744 645.482L61.779 662.604L78.8952 652.705L89.8604 661.266L87.9883 647.622ZM46.5347 613.111L56.6975 626.22L73.0115 628.627L83.4417 610.703L72.2091 599.467L56.6975 595.186L46.5347 613.111ZM22.7325 640.131L32.6278 623.009L46.2674 624.882L37.7092 613.913L49.7441 593.313L22.7325 586.09V609.9L9.62781 614.983L22.7325 620.334V640.131ZM49.2093 669.827L62.8488 646.016L52.686 633.175L36.3721 630.767L22.7326 654.577V685.343L38.2442 675.98L49.2093 669.827ZM32.8952 698.185L30.7556 701.663H22.7325V693.637L41.9882 682.401L32.8952 698.185ZM101.895 547.833L110.721 563.082L101.895 578.599H84.2439L75.4184 563.082L84.2439 547.833H101.895ZM57.5 708.887H35.0349L31.0233 716.11L37.9767 720.123L52.686 711.562L57.5 708.887ZM69.8023 701.663L93.6046 688.019L91.4651 671.7L78.3605 661.533L54.5581 675.177L48.407 686.146L39.0465 701.663H69.8023ZM4.27881 686.414L8.29044 693.37L15.5114 689.357V667.152L4.27881 686.414ZM56.4302 717.982C69 715.842 81.3023 712.632 93.6046 709.154H71.9418L56.4302 717.982ZM256.476 585.823H248.453L237.221 605.085L241.767 602.409L256.476 593.848V585.823ZM177.314 386.512H194.965L203.791 402.029L194.965 417.278H177.314L168.488 402.029L177.314 386.512ZM294.453 528.303V505.83L283.221 525.092L287.5 532.316L294.453 528.303ZM253 530.176L256.476 532.316V540.609H248.453L237.221 521.08L253 530.176ZM241.232 559.069L248.186 554.789L244.174 547.833H221.976L241.232 559.069ZM224.651 513.857L200.849 500.213L187.744 510.379L185.604 526.966L198.442 534.189L209.407 540.61H239.895L224.651 513.857ZM312.639 474.529L301.942 493.257V511.181C305.953 499.142 309.697 486.836 312.639 474.529ZM263.697 505.83V528.303L270.918 532.316L274.93 525.092L272.79 521.615L263.697 505.83ZM256.476 524.023V493.257L250.325 482.556L242.837 469.447L226.523 471.854L216.093 484.963L230 508.774L256.476 524.023ZM245.511 608.83C237.221 618.728 228.395 627.824 219.302 636.385L230 617.658L245.511 608.83ZM241.232 567.362L221.976 578.599H244.174L248.186 571.375L241.232 567.362ZM224.651 612.308L239.895 585.823H209.407L198.442 591.976L185.604 599.467L187.744 615.786L200.849 626.22L224.651 612.308ZM207.267 547.833H179.988L173.837 563.082L179.988 578.599H207.267L234.012 563.082L207.267 547.833ZM294.453 275.754L287.5 271.741L283.221 278.697L285.36 282.442L294.453 298.227V275.754ZM234.012 240.707L207.267 225.458H179.988L173.837 240.707L179.988 256.224H207.267L234.012 240.707ZM241.232 236.694L221.976 225.458H244.174L248.186 232.414L241.232 236.694ZM75.4184 240.707L84.2439 225.458H101.895L110.721 240.707L101.895 256.224H84.2439L75.4184 240.707ZM256.476 218.235V209.941L241.767 201.38L237.221 198.705L248.453 218.235H256.476ZM224.651 191.482L200.849 177.838L187.744 188.004L185.604 204.591L198.442 211.815L209.407 218.235H239.895L224.651 191.482ZM241.232 244.988L248.186 249.001L244.174 256.224H221.976L241.232 244.988ZM237.221 282.71L256.476 271.474V263.448H248.453L237.221 282.71ZM185.604 277.092L187.744 293.411L200.849 303.845L224.651 289.934L239.895 263.448H209.407L198.442 269.601L185.604 277.092ZM245.511 195.227C237.221 185.596 228.395 176.233 219.302 167.404L230 186.131L245.511 195.227ZM301.674 292.876C305.953 304.915 309.697 316.954 312.372 329.528L301.674 310.801V292.876ZM263.697 275.754V298.227L274.93 278.697L270.918 271.741L263.697 275.754ZM279.209 285.92L263.698 312.673V339.961L279.209 346.382L294.453 339.961V312.673L288.302 301.705L279.209 285.92ZM230 295.284L216.093 319.094L226.523 332.203L242.837 334.343L256.476 310.533V280.035L230 295.284ZM52.686 92.2277L37.9767 83.6667L31.0233 87.9473L35.0349 94.903H57.5L52.686 92.2277ZM15.5114 114.433L8.29044 110.42L4.27881 117.643L15.5114 136.905V114.433ZM56.4302 86.0749C69 88.2152 81.3023 91.4255 93.6046 94.9034H71.9418L56.4302 86.0749ZM32.8952 105.872L30.7556 102.127H22.7325V110.42L26.2091 112.56L41.9882 121.656L32.8952 105.872ZM54.5581 128.88L78.3605 142.524L91.4651 132.358L93.6046 116.038L69.8023 102.127H39.0465L48.407 117.911L54.5581 128.88ZM22.7326 118.714V149.48L36.3721 173.29L52.686 170.882L62.8488 157.773L49.2093 134.23L22.7326 118.714ZM15.5114 366.982L8.29044 370.995L4.27881 364.039L15.5114 344.509V366.982ZM15.5114 437.075V459.28L4.27881 440.018L8.29044 432.794L15.5114 437.075ZM30.7556 424.501L41.9882 444.031L22.7325 432.795V424.501H30.7556ZM49.2093 456.605L62.8488 480.148L52.686 493.257L36.3721 495.664L22.7326 471.854V441.088L49.2093 456.605ZM57.5 417.278H35.0349L31.0233 410.322L37.9767 406.041L41.7209 408.182L57.5 417.278ZM69.8023 424.501L93.6046 438.413L91.4651 454.732L78.3605 464.898L54.5581 451.254L39.0465 424.501H69.8023ZM35.0349 386.512H57.5L37.9767 397.748L31.0233 393.735L35.0349 386.512ZM45.1974 402.029L71.6742 386.512H99.2206L105.372 402.029L99.2206 417.278H71.6742L45.1974 402.029ZM32.8952 375.81L30.7556 379.288H22.7325V371.263L41.9882 360.026L32.8952 375.81ZM54.5581 352.803L78.3605 339.159L91.4651 349.325L93.6046 365.644L69.8023 379.288H39.0465L48.407 363.504L54.5581 352.803ZM38.5116 353.605L22.7326 362.969V332.203L36.3721 308.393L52.686 310.533L62.8488 323.642L49.2093 347.452L38.5116 353.605ZM263.697 256.224V267.461L273.325 261.842L278.942 271.473L284.558 261.842L289.907 265.053C282.418 249.001 273.593 234.019 263.697 219.573V225.726H252.465L258.081 235.357L248.453 240.975L258.081 246.593L252.465 256.224H263.697ZM263.697 578.599V584.752C273.593 570.306 282.418 555.056 289.907 539.272L284.558 542.482L278.942 532.851L273.325 542.482L263.697 536.864V548.101H252.465L258.081 557.732L248.453 563.35L258.081 568.968L252.465 578.599H263.697Z" stroke="#0590D6" stroke-width="3" stroke-miterlimit="10"/>
</svg>
