<svg width="349" height="246" viewBox="0 0 349 246" fill="none" xmlns="http://www.w3.org/2000/svg">
<path opacity="0.05" d="M9.15301 206.58L17.4381 220.781L26.8278 219.49L20.9362 227.052L27.7484 238.855L15.9652 232.032L8.41657 237.933L9.70537 228.527M2.70919 242.359L4.36619 231.109M159.021 242.359L156.259 231.663L148.526 223.917L136.191 231.109L137.664 242.359M0 149.777L17.4381 119.714L26.8278 121.19L20.9362 113.628L27.7484 101.64L15.9652 108.649L8.41657 102.563L5.83895 116.764L1.78861 90.9437L0.49986 81.5378L12.283 74.714M167.674 243.097L183.324 234.06M287.163 239.962L284.77 240.331L277.958 228.527V241.991M233.587 243.097L230.457 238.855L240.03 240.331L246.843 228.527V242.175M212.045 236.273L223.46 237.933L227.695 243.65M330.798 243.097C333.928 242.175 334.112 243.282 335.769 240.884C336.506 239.962 336.874 239.04 337.426 238.118C338.715 236.273 340.924 234.982 343.134 233.876C340.74 233.507 338.163 233.323 336.321 231.847C335.585 231.294 334.848 230.372 333.928 229.818C331.534 228.159 328.221 228.158 324.906 228.343C326.932 227.236 327.852 225.208 327.484 222.81C327.116 220.412 325.459 218.753 323.249 218.199C323.249 219.306 323.434 220.413 322.881 221.335C322.145 222.441 320.304 222.994 318.831 223.732C317.174 224.654 316.069 225.945 315.148 227.421C314.412 228.712 313.86 230.187 313.676 231.847C313.491 232.954 313.492 234.06 313.492 235.167C311.282 235.167 309.257 234.06 307.968 232.031C306.863 230.187 306.863 227.79 307.968 225.761C306.495 225.576 305.206 225.392 304.286 224.839C302.997 224.101 302.077 222.995 300.972 222.441C299.131 221.335 296.553 221.519 294.16 221.888C296.553 220.966 298.762 219.859 299.867 218.015C300.419 216.908 300.788 215.433 301.524 214.326C302.261 213.404 302.997 212.666 304.286 211.744C302.261 210.638 301.156 208.609 301.156 206.211C301.156 203.998 302.445 201.97 304.47 200.863C305.022 201.785 305.575 202.707 306.311 203.63C307.232 204.921 308.52 206.027 309.809 206.765C311.282 207.503 312.939 208.056 314.78 208.056C316.437 207.871 318.094 207.318 319.383 208.056C320.12 208.609 320.672 209.531 321.224 210.638C323.065 208.978 323.434 206.765 322.697 204.552C321.777 202.523 319.935 201.048 317.542 201.048C320.488 199.572 323.434 198.097 324.722 195.33C325.091 194.408 325.459 193.301 325.827 192.379C326.932 190.351 328.773 188.691 330.798 187.215C328.22 187.215 325.827 187.215 323.618 186.293C322.697 185.924 321.777 185.187 320.856 184.818C318.094 183.527 314.964 184.264 311.65 185.002C313.307 183.342 313.86 181.129 313.123 178.916C312.387 176.703 310.546 175.412 308.152 175.228C308.336 176.334 308.705 177.441 308.336 178.363C307.968 179.654 306.127 180.392 304.838 181.498C303.365 182.605 302.445 184.08 301.892 185.74C301.34 187.215 301.156 188.691 301.156 190.351C301.156 191.457 301.34 192.564 301.524 193.67C299.131 194.224 296.921 193.486 295.448 191.642C293.976 189.797 293.607 187.584 294.344 185.371C292.871 185.556 291.766 185.556 290.661 185.187C289.373 184.818 288.268 183.896 286.979 183.527C284.954 182.789 282.56 183.527 280.167 184.265C282.376 182.974 284.402 181.498 285.138 179.469C285.506 178.363 285.506 176.887 286.059 175.596C286.427 174.674 287.163 173.752 288.268 172.646C286.059 171.723 284.586 169.879 284.218 167.666C283.849 165.453 284.586 163.24 286.427 161.764C287.163 162.502 287.9 163.424 288.636 164.162C289.741 165.084 291.214 166.006 292.687 166.559C294.344 167.113 296.001 167.297 297.842 166.928C299.499 166.559 301.156 165.637 302.445 166.191C303.181 166.559 303.918 167.481 304.654 168.404C306.127 166.375 306.311 164.162 305.022 162.133C303.918 160.289 301.892 159.182 299.499 159.551C302.261 157.522 304.838 155.678 305.575 152.727C305.759 151.621 305.943 150.514 306.127 149.592C306.679 147.194 308.336 145.35 309.993 143.506C307.6 144.059 305.022 144.612 302.813 143.875C301.892 143.506 300.788 142.952 299.867 142.768C296.921 141.846 293.976 143.137 290.846 144.428C292.319 142.584 292.503 140.186 291.398 138.157C290.293 136.129 288.268 135.022 285.875 135.391C286.243 136.498 286.795 137.604 286.611 138.526C286.427 140.002 284.77 140.924 283.665 142.215C282.376 143.506 281.824 145.166 281.456 146.826C281.088 148.485 281.088 150.145 281.456 151.621C281.64 152.727 282.008 153.649 282.376 154.756C280.167 155.678 277.958 155.309 276.117 153.834C274.275 152.358 273.539 150.145 273.907 147.932C272.434 148.301 271.33 148.485 270.225 148.301C268.936 148.117 267.647 147.379 266.359 147.194C264.149 146.825 261.94 147.932 259.731 149.039C261.572 147.379 263.413 145.535 263.781 143.321C264.149 142.03 263.781 140.555 264.149 139.264C264.333 138.157 264.886 137.235 265.806 135.944C263.597 135.575 261.756 134.1 261.019 131.887C260.283 129.674 260.835 127.276 262.308 125.616C263.045 126.354 263.965 127.092 264.886 127.645C266.174 128.383 267.832 129.12 269.304 129.305C270.961 129.489 272.803 129.489 274.46 128.752C275.932 128.198 277.59 127.092 278.878 127.276C279.799 127.461 280.535 128.383 281.456 129.12C282.56 127.092 282.192 124.879 280.719 123.034C279.247 121.19 277.037 120.637 274.828 121.374C277.037 118.792 279.247 116.395 279.431 113.444C279.431 112.337 279.431 111.231 279.431 110.309C279.431 107.911 280.904 105.698 282.192 103.669C279.799 104.591 277.59 105.514 275.196 105.329C274.091 105.145 272.987 104.776 272.066 104.776C269.12 104.591 266.359 106.251 263.597 108.096C264.702 106.067 264.517 103.854 263.045 102.009C261.572 100.165 259.362 99.4274 257.153 100.165C257.889 101.272 258.442 102.194 258.442 103.116C258.442 104.407 257.153 105.698 256.232 107.173C255.312 108.649 254.944 110.493 254.944 112.153C254.944 113.628 255.312 115.288 255.864 116.764C256.232 117.87 256.785 118.792 257.337 119.715C255.312 121.006 253.102 121.006 251.077 119.899C249.052 118.608 247.763 116.764 247.763 114.366C246.474 115.104 245.37 115.473 244.265 115.473C242.792 115.657 241.503 115.104 240.215 115.104C238.005 115.104 235.98 116.579 233.955 118.055C235.428 116.026 236.9 113.997 236.9 111.784C236.9 110.493 236.532 109.202 236.532 107.727C236.717 106.805 237.085 105.514 237.637 104.223C235.428 104.038 233.402 102.932 232.298 100.903C231.193 98.8741 231.193 96.6609 232.482 94.6322C233.402 95.1855 234.507 95.7388 235.428 96.1077C236.901 96.661 238.373 97.0298 240.03 97.0298C241.687 97.0298 243.529 96.661 245.002 95.7388C246.29 94.8167 247.579 93.5257 249.052 93.5257C249.973 93.5257 251.077 94.2634 251.998 94.8167C252.55 92.6035 251.998 90.3904 250.157 88.915C248.5 87.4395 246.106 87.2551 244.081 88.3617C245.922 85.5952 247.579 82.8288 247.395 79.8779C247.211 78.7714 246.843 77.8493 246.843 76.7427C246.659 74.3451 247.579 72.1319 248.5 69.7344C246.29 71.0254 244.265 72.3164 241.872 72.5008C240.767 72.5008 239.662 72.5008 238.742 72.5008C235.612 72.6852 233.218 74.8984 230.825 77.1115C231.561 74.8984 231.009 72.6853 229.168 71.2098C227.511 69.7344 225.117 69.3656 223.092 70.4721C224.013 71.2098 224.749 72.132 224.933 73.0541C225.301 74.3451 224.013 76.005 223.46 77.4804C222.724 79.1402 222.54 80.9845 222.908 82.6444C223.092 84.3042 223.644 85.7797 224.565 87.0707C225.117 87.9928 225.854 88.7306 226.59 89.6527C224.749 91.3126 222.54 91.6814 220.33 90.9437C218.121 90.2059 216.648 88.3617 216.28 86.1486C214.991 86.8863 214.071 87.624 212.966 87.8084C211.677 88.1773 210.204 87.9928 208.915 88.1772C206.706 88.5461 204.865 90.3904 203.208 92.2347C204.497 90.0215 205.417 87.8084 205.049 85.5952C204.865 84.3042 204.129 83.1976 203.944 81.7222C203.76 80.6157 203.944 79.5091 204.313 78.0337C202.103 78.4025 199.894 77.6648 198.421 75.8205C196.948 73.9763 196.58 71.7631 197.5 69.55C198.421 69.9188 199.526 70.2877 200.63 70.4721C202.287 70.6566 203.944 70.6566 205.417 70.4721C207.074 70.1033 208.731 69.55 210.02 68.259C211.309 67.1524 212.229 65.4925 213.702 65.3081C214.623 65.1237 215.728 65.4925 216.832 66.0458C217.201 63.8327 216.096 61.6195 214.071 60.5129C212.045 59.4064 209.836 59.5908 207.995 61.0663C209.1 57.931 210.388 54.9801 209.652 52.0293C209.284 51.1071 208.915 50.0006 208.547 49.0784C207.811 46.6808 208.363 44.2833 208.915 41.8857C207.074 43.5456 205.233 45.2054 202.84 45.7587C201.735 45.9431 200.63 46.1276 199.71 46.312C196.764 47.2341 194.739 49.8161 192.713 52.3981C193.082 50.185 192.161 47.9718 190.136 46.8652C188.111 45.7587 185.717 45.7587 183.876 47.2341C184.797 47.7874 185.717 48.5251 186.085 49.4472C186.638 50.7382 185.717 52.3981 185.349 54.0579C184.981 55.9022 185.165 57.5621 185.717 59.222C186.27 60.6974 187.006 62.1728 188.111 63.2794C188.847 64.0171 189.584 64.7548 190.504 65.4925C189.031 67.1524 187.006 68.0746 184.613 67.7057C182.219 67.3368 180.378 65.8614 179.641 63.6483C178.537 64.7548 177.616 65.4926 176.696 65.8614C175.407 66.2303 174.118 66.2303 172.829 66.7836C170.804 67.7057 169.331 69.7344 168.042 71.7631C168.779 69.5499 169.331 66.968 168.595 64.9393C168.226 63.6483 167.306 62.5417 166.938 61.2507C166.754 60.3286 166.754 59.0376 166.754 57.5621C164.544 58.2998 162.335 57.931 160.494 56.4555C158.837 54.7957 158.1 52.5825 158.469 50.3694C159.573 50.5538 160.678 50.7383 161.783 50.7383C163.255 50.7383 164.912 50.5538 166.385 50.0005C168.042 49.4473 169.515 48.5251 170.62 47.0497C171.725 45.7587 172.461 44.0988 173.75 43.5456C174.67 43.1767 175.775 43.5456 176.88 43.73C176.88 41.3324 175.407 39.4881 173.198 38.7504C170.988 38.0127 168.595 38.566 167.122 40.4102C167.858 37.0905 168.595 33.9552 167.306 31.1888C166.938 30.2667 166.201 29.3445 165.833 28.4224C164.728 26.2092 164.912 23.8117 164.912 21.2297C163.44 23.2584 161.967 25.2871 159.757 26.2093C158.837 26.5781 157.732 26.947 156.811 27.3158C154.234 28.6068 152.577 31.5577 151.104 34.5086C151.104 32.111 149.815 30.2667 147.606 29.3445C145.396 28.6068 143.003 29.1601 141.53 30.82C142.635 31.3733 143.555 31.9266 144.108 32.6643C144.844 33.7709 144.292 35.6151 144.292 37.275C144.108 39.1193 144.66 40.7791 145.581 42.2545C146.317 43.5455 147.422 44.8365 148.711 45.7587C149.631 46.4964 150.552 47.0497 151.472 47.6029C150.368 49.6317 148.526 50.9227 146.133 50.9227C143.739 50.9227 141.714 49.8161 140.61 47.7874C139.689 49.0784 138.953 50.0005 138.032 50.5538C136.927 51.2915 135.454 51.4759 134.35 52.2137C132.509 53.3202 131.404 55.5334 130.483 57.931C130.852 55.5334 131.036 52.9514 129.931 51.1071C129.195 50.0006 128.09 49.0784 127.538 47.7874C126.985 46.6808 126.801 45.5742 126.617 44.0988C124.592 45.3898 122.382 45.2054 120.357 44.0988C118.332 42.9922 117.227 40.9635 117.227 38.566C118.332 38.566 119.437 38.5659 120.541 38.3815C122.014 38.1971 123.487 37.6438 124.96 36.9061C126.433 35.984 127.722 34.8774 128.642 33.2175C129.379 31.7421 129.747 29.8978 131.036 29.1601C131.772 28.6068 133.061 28.7913 134.166 28.7913C133.613 26.5781 131.956 24.9182 129.563 24.5494C127.353 24.1805 125.328 25.1027 124.039 27.1314C124.039 23.8117 124.224 20.492 122.567 18.0944C122.014 17.3567 121.094 16.619 120.541 15.6968C119.253 13.8525 118.884 11.2705 118.516 8.87295C117.411 11.0861 116.307 13.2993 114.281 14.5903C113.361 15.328 112.44 15.6968 111.52 16.2501C109.126 17.91 108.022 21.0453 107.101 24.1806C106.549 21.783 104.892 20.1231 102.682 19.7543C100.289 19.201 98.2636 20.1231 96.9748 22.1518C98.0795 22.5207 99.1842 22.8895 99.7365 23.6272C100.657 24.7338 100.473 26.5781 100.657 28.2379C101.025 30.0822 101.762 31.5577 102.866 32.8487C103.787 33.9552 105.076 35.0618 106.549 35.7995C107.469 36.3528 108.574 36.7217 109.495 37.0906C108.758 39.3037 106.917 40.9635 104.708 41.3324C102.498 41.8857 100.289 41.148 98.8159 39.3037C98.2636 40.5947 97.5272 41.7013 96.7907 42.439C95.8702 43.5455 94.3973 43.9144 93.4767 44.8365C91.8197 46.3119 91.0832 48.7096 90.5309 51.1071C90.3467 48.7096 90.1626 46.1276 88.6897 44.4677C87.7692 43.5456 86.6646 42.8078 85.744 41.7013C85.1916 40.9636 84.6393 39.8569 84.2711 38.3815C82.43 39.8569 80.2206 40.2258 78.0112 39.3037C75.8019 38.3815 74.3289 36.5373 73.9607 34.3241C74.8813 34.1397 75.986 33.9553 77.0907 33.5864C78.7477 33.2176 80.0364 32.2954 81.3252 31.3733C82.614 30.2667 83.7188 28.9757 84.2711 27.1314C84.8234 25.4716 84.8234 23.6272 85.9281 22.7051C86.6645 22.1518 87.9533 21.9674 89.058 21.783C88.1374 19.7542 86.2963 18.4633 83.9028 18.4633C81.5094 18.4633 79.6683 19.7542 78.7477 21.9674C78.3795 18.6477 78.0112 15.328 75.8018 13.4837C75.0654 12.746 74.1449 12.1927 73.4084 11.455C71.5673 9.79514 70.8308 7.39757 70.0944 5C69.1738 7.39757 68.4374 9.79514 66.7804 11.455C66.0439 12.1927 65.1234 12.746 64.387 13.4837C62.3617 15.6968 61.8093 18.8321 61.4411 22.1518C60.5205 19.9387 58.6794 18.6477 56.2859 18.6477C53.8925 18.4633 52.0514 19.7542 51.1308 21.9674C52.2355 22.1518 53.3401 22.3362 54.0766 22.8895C55.1812 23.8117 55.1813 25.656 55.7336 27.3158C56.286 29.1601 57.3906 30.4511 58.6794 31.5577C59.9682 32.4798 61.4411 33.2175 62.914 33.7708C63.8345 34.1397 64.9392 34.3241 66.0439 34.5086C65.6757 36.9061 64.2027 38.566 61.9934 39.4881C59.784 40.4102 57.5748 40.0414 55.7336 38.566C55.3654 39.857 54.8131 40.9636 54.2607 41.8857C53.3402 42.9923 52.0513 43.73 51.3149 44.6521C49.842 46.312 49.4738 48.8939 49.4738 51.2915C48.9214 48.8939 48.185 46.4964 46.528 45.021C45.6074 44.0988 44.1345 43.5456 43.2139 42.6234C42.4775 41.8857 41.9251 40.7791 41.1887 39.4881C39.7158 41.148 37.5065 41.8857 35.2971 41.5168C33.0877 40.9635 31.2466 39.4881 30.5101 37.275C31.4307 36.9061 32.5354 36.5373 33.456 35.984C34.9289 35.2463 36.2176 34.1397 37.1382 33.0331C38.2429 31.7421 39.1634 30.2667 39.3475 28.4224C39.5317 26.7625 39.3476 24.9182 40.2681 23.8117C40.8205 23.074 41.9251 22.7051 43.0298 22.3363C41.741 20.492 39.5317 19.5698 37.3223 19.9387C34.9289 20.492 33.4559 22.1519 32.9036 24.365C31.983 21.2297 30.8784 18.0944 28.4849 16.4345C27.5643 15.6968 26.6438 15.328 25.7232 14.7747C23.8821 13.4837 22.5933 11.2705 21.4886 9.05739C21.1204 11.455 20.9363 14.037 19.4634 15.8813C18.9111 16.619 17.9905 17.3567 17.4381 18.2788C15.7811 20.6764 15.7812 23.9961 15.9653 27.3158C14.8606 25.2871 12.8353 24.365 10.4419 24.7338C8.04841 25.1027 6.39141 26.7626 5.83907 28.9757C6.94375 28.9757 8.04839 28.7912 8.96896 29.3445C10.0736 30.0822 10.626 31.9266 11.3624 33.402C12.283 35.0618 13.5718 36.1684 15.0447 37.0906C16.3335 37.8283 17.8064 38.3815 19.4634 38.566C20.5681 38.7504 21.6727 38.7504 22.7774 38.7504C22.7774 40.9635 21.6727 43.1767 19.6475 44.2833C17.8064 45.3898 15.4129 45.3898 13.3877 44.2833C13.2036 45.7587 13.0195 47.0497 12.4671 47.9718C11.7307 49.2628 10.8101 50.1849 10.0736 51.2915C8.96895 53.1358 9.15309 55.7178 9.52131 58.1154C8.60075 55.7178 7.49607 53.5047 5.65494 52.3981C4.55026 51.8448 3.07735 51.476 1.97267 50.7383C1.05211 50.0005 0.920564 50.0525 0 48.946M0.131607 159.735H12.283L18.3588 170.248L12.283 180.945H0.131607M103 243L113.545 227.421L106.549 218.384L95.3178 216.908L85.7439 233.322M124.039 238.117L132.14 243M76.5384 239.409L80.773 231.847V213.035L70.2785 208.794L59.6 213.035V231.847M16.3333 238.117L8.41657 243M54.6288 233.322L45.2391 216.908L34.0082 218.384L27.0119 227.421L39 243M21.3045 175.228L28.669 187.953L17.9905 190.72L10.2577 198.466L2.89317 185.924H15.2287L21.3045 175.228ZM119.253 175.228L125.328 185.924H137.48L130.299 198.466L122.567 190.72L111.888 187.953L119.253 175.228ZM59.6 199.019L70.2785 203.445L80.773 199.019V184.818L70.2785 181.867L59.6 184.818V199.019ZM54.6288 202.523V186.109L36.0335 191.088L44.3186 205.289L38.4269 212.851L47.8167 211.375L54.6288 223.363V209.531L63.6504 206.027L54.6288 202.523ZM31.2466 213.773L38.2429 204.736L31.2466 192.38L20.5681 195.33L12.8353 203.076L20.0157 215.433L31.2466 213.773ZM132.14 237.933L130.668 228.527L144.844 220.228L131.22 206.58L123.119 220.781L113.729 219.49L119.621 227.052L112.809 238.855L124.592 232.032L132.14 237.933ZM120.541 215.433L127.722 203.076L119.989 195.33L109.31 192.38L102.13 204.736L109.31 213.773L120.541 215.433ZM96.2385 205.289L104.339 191.088L85.7441 186.109V202.523L76.9067 206.027L85.7441 209.531V223.363L92.5562 211.375L102.13 212.851L96.2385 205.289ZM59.6 179.654L70.2785 176.703L80.773 179.654V161.027L70.2785 163.793L59.6 161.027V179.654ZM70.2785 137.235L80.773 141.477V155.862L70.2785 158.629L59.6 155.862V141.477L70.2785 137.235ZM137.48 154.756L130.299 142.03L122.567 149.777L111.888 152.727L119.253 165.268L125.328 154.756H137.48ZM114.834 172.83L116.307 170.248L106.917 154.018L85.7439 159.736V180.945L106.917 186.662L107.653 185.371L114.834 172.83ZM128.274 74.7142H141.898L142.819 72.501C149.999 74.8986 156.996 77.8495 163.624 80.9847L160.31 93.3415L146.133 85.2266L138.584 91.1283L139.505 85.0422L140.057 81.7225L128.274 74.7142ZM136.191 109.571L137.664 98.1364L146.685 91.128L159.021 98.3207L156.259 108.833L148.526 116.764L136.191 109.571ZM130.668 112.153L144.844 120.268L131.22 133.915L123.119 119.714L113.729 121.19L119.621 113.628L112.809 101.64L124.592 108.649L132.14 102.563L130.668 112.153ZM102.13 135.76L109.31 126.723L120.541 125.247L127.722 137.604L119.989 145.35L109.31 148.116L102.13 135.76ZM85.7441 117.317L92.5562 129.12L102.13 127.829L96.2385 135.391L104.339 149.592L85.7441 154.571V138.157L76.9067 134.653L85.7441 130.965V117.317ZM54.6288 138.157V154.571L36.0335 149.592L44.3186 135.391L38.4269 127.829L47.8167 129.12L54.6288 117.317V130.965L63.6504 134.653L54.6288 138.157ZM20.0157 125.247L31.2466 126.723L38.2429 135.76L31.2466 148.116L20.5681 145.35L12.8353 137.604L20.0157 125.247ZM32.9035 185.371L33.4559 186.662L54.6288 180.945V159.736L33.4559 154.018L24.0661 170.248L25.539 172.83L32.9035 185.371ZM15.2287 154.756L21.3045 165.268L28.669 152.727L17.9905 149.777L10.2577 142.03L2.89317 154.756H15.2287ZM179.641 230.372L171.909 222.626L169.147 212.113L152.945 221.335L160.678 229.081L163.624 239.778L179.641 230.372ZM194.923 209.347L196.58 220.597L184.06 227.79L176.328 220.044L173.566 209.531L185.901 202.339L194.923 209.347ZM219.962 212.851L213.15 224.654L219.042 232.216L209.468 230.925L201.919 243.097L187.742 231.478L201.919 223.179L200.446 213.773L208.179 219.675L219.962 212.851ZM186.27 196.252L172.277 204.552L167.306 185.924H183.508L187.19 177.072L190.688 185.924H204.313L192.529 192.748L193.818 202.154L186.27 196.252ZM180.194 159.735L184.428 170.248L180.194 180.945H165.833L163.071 170.248L165.833 159.735H180.194ZM204.313 154.756H190.688L187.19 163.609L183.508 154.756H167.306L172.277 136.129L186.27 144.244L193.818 138.342L193.082 144.613L192.529 147.932L204.313 154.756ZM196.58 119.899L194.923 131.333L185.901 138.342L173.566 131.149L176.328 120.636L184.06 112.706L196.58 119.899ZM196.764 100.165C202.84 104.407 208.915 109.202 214.623 113.997L213.15 115.842L219.962 127.645L208.179 120.821L200.63 126.723L201.919 117.317L187.742 109.202L196.764 100.165ZM133.797 202.154L149.263 217.646L167.674 207.134L162.151 185.925H143.187L133.797 202.154ZM146.133 180.945H160.678L157.916 170.248L160.678 159.735H146.133L152.209 170.248L146.133 180.945ZM143.187 154.756H162.151L167.674 133.546L149.263 122.85L133.797 138.342L143.187 154.756ZM152.945 119.346L169.147 128.567L171.909 118.055L179.641 110.309L163.624 100.903L160.678 111.6L152.945 119.346ZM192.529 97.2141C184.797 92.0501 176.696 87.2549 168.226 83.1975L164.912 95.9231L183.324 106.62L184.244 105.698L192.529 97.2141ZM233.587 141.293L246.843 149.038V154.756H241.135L239.846 152.174L233.587 141.293ZM246.843 197.359V218.384L237.453 234.798L226.038 233.323L219.042 224.286L228.431 207.872L246.843 197.359ZM258.074 199.019L259.546 196.437L256.601 191.642L251.814 194.408V209.9L258.074 199.019ZM272.987 209.9L265.254 196.437L268.016 191.642L272.987 194.408V209.9ZM272.987 219.859V238.671L262.308 243.097L251.814 238.671V219.859L256.048 212.298L262.308 201.416L268.568 212.298L272.987 219.859ZM246.843 191.457V185.925H241.135L233.587 199.203L246.843 191.457ZM236.348 173.199L241.135 175.965L238.373 180.945H222.908L236.348 173.199ZM199.526 206.581L197.869 195.33L214.255 185.925H235.428L224.933 204.183L208.547 213.773L199.526 206.581ZM277.958 206.212C280.904 214.511 283.481 222.81 285.322 231.478L277.958 218.568V206.212ZM221.067 119.899L228.431 132.809L239.11 138.895C233.586 132.071 227.511 125.801 221.067 119.899ZM236.348 167.481L222.908 159.735H238.373L241.135 164.531L236.348 167.481ZM235.428 154.756H214.255L206.89 150.33L197.869 145.35L199.526 133.916L208.547 126.907L224.933 136.313L229.168 143.875L235.428 154.756ZM212.966 180.945H194.002L189.768 170.248L194.002 159.735H212.966L231.193 170.248L212.966 180.945ZM140.426 159.735H128.09L122.014 170.248L128.09 180.945H140.426L146.501 170.248L140.426 159.735ZM34.0082 67.8899L44.1344 61.9882L48.9213 64.9391L46.1596 69.7342H30.6942L34.0082 67.8899ZM85.7439 86.1486L96.6066 92.4191L104.155 96.8454L113.545 113.075L106.549 122.112L95.3178 123.772L85.7439 107.358V86.1486ZM85.7439 74.7141V80.4314L88.3215 81.9068L99.1841 88.1773L92.9244 77.2961L91.4514 74.7141H85.7439ZM91.4514 64.9391L96.4224 61.9882L109.679 69.7342H94.3972L91.4514 64.9391ZM134.718 84.3044L133.061 95.5545L124.039 102.563L107.838 93.1569L103.419 85.5953L97.159 74.7141H118.332L125.881 79.1404L134.718 84.3044ZM80.7729 83.1975L75.986 80.4311L73.0401 85.4106L80.7729 98.6895V83.1975ZM59.6 83.1975L64.5711 80.4311L67.3328 85.4106L59.6 98.6895V83.1975ZM70.2785 131.887L59.6 127.645V108.649L70.2785 90.3905L80.773 108.649V127.645L70.2785 131.887ZM134.534 69.7345H119.621L108.942 63.6484C117.595 65.1238 126.249 67.1525 134.534 69.7345ZM31.4306 63.6484C22.7773 65.1238 14.3081 67.3369 5.83895 69.7345H20.7521L31.4306 63.6484ZM47.6326 77.2961L49.1056 74.7141H54.6289V80.4314L52.2354 81.9068L41.3728 88.1773L47.6326 77.2961ZM32.7194 93.1569L16.3333 102.563L7.31184 95.5545L5.83895 84.3044L22.225 74.7141H43.3979L36.954 85.5953L32.7194 93.1569ZM54.6288 86.1486V107.358L45.2391 123.772L34.0082 122.112L27.0119 113.075L36.4017 96.8454L54.6288 86.1486ZM80.773 69.7342V77.4802L74.145 73.6072L70.2785 80.2467L66.4122 73.6072L59.7842 77.4802V69.7342H52.0514L55.9178 63.0948L52.2355 61.0661C64.2028 60.144 76.3543 60.144 88.5057 61.0661L84.8235 63.0948L88.6898 69.7342H80.773ZM269.857 186.847L266.174 184.634L262.308 191.273L258.442 184.634L251.814 188.507V180.761H244.081L247.947 174.121L241.319 170.248L247.947 166.375L244.081 159.736H251.814V155.494C258.626 165.453 264.702 175.965 269.857 186.847Z" stroke="white" stroke-width="3" stroke-miterlimit="10"/>
</svg>
