<svg width="370" height="353" viewBox="0 0 370 353" fill="none" xmlns="http://www.w3.org/2000/svg">
<path opacity="0.08" d="M285.897 358L291.52 344.414L309.561 344.414L313.309 358M87.681 358L82.2922 344.414L64.0171 344.414L60.5026 358M319.869 358L316.12 344.414L339.784 344.414L336.27 358M370.009 358L364.62 344.414L346.345 344.414L342.831 358M3.56839 358L9.19145 344.414L27.2323 344.414L30.9812 358M53.9419 358L57.4563 344.414L33.7922 344.414L37.5411 358M-167 357.766C-163.954 356.829 -160.908 355.892 -158.8 353.549C-157.862 352.612 -157.16 351.441 -156.222 350.504C-153.411 347.928 -149.428 347.225 -145.21 346.756C-148.022 345.585 -149.662 343.243 -149.662 340.198C-149.662 337.153 -148.022 334.81 -145.445 333.639C-145.211 335.044 -144.976 336.684 -144.273 337.387C-143.102 338.792 -140.759 338.792 -138.65 339.495C-136.307 340.198 -134.667 341.603 -133.261 343.243C-132.09 344.882 -130.918 346.522 -130.45 348.63C-129.981 350.036 -129.747 351.441 -129.512 352.612C-126.701 352.144 -124.358 350.27 -123.187 347.459C-122.015 344.648 -122.484 341.837 -124.358 339.495C-122.484 339.027 -121.078 338.324 -120.141 337.621C-118.735 336.45 -117.798 335.044 -116.626 333.873C-114.517 331.999 -111.237 331.765 -108.191 331.531C-111.237 330.828 -114.283 330.125 -116.158 327.783C-117.329 326.612 -117.798 324.738 -119.204 323.567C-120.141 322.63 -121.546 321.693 -123.187 320.99C-120.844 319.116 -119.906 316.305 -120.609 313.494C-121.078 310.683 -123.186 308.341 -125.998 307.404C-126.467 308.81 -126.935 309.981 -127.638 311.152C-128.575 313.026 -129.981 314.666 -131.387 315.837C-133.027 317.242 -134.901 318.179 -137.244 318.648C-139.353 318.882 -141.696 318.648 -143.102 319.819C-144.039 320.522 -144.508 321.927 -144.976 323.332C-147.553 321.693 -148.725 319.116 -148.022 316.071C-147.553 313.026 -145.445 311.152 -142.399 310.449C-146.382 309.278 -150.365 307.873 -152.474 304.827C-153.177 303.656 -153.645 302.485 -154.582 301.314C-156.222 298.737 -159.034 297.332 -161.846 295.926C-158.8 295.458 -155.52 294.989 -153.177 293.35C-152.005 292.647 -151.302 291.476 -150.131 290.773C-147.085 288.665 -142.867 288.665 -138.65 288.899C-141.227 287.494 -142.399 284.683 -141.93 281.872C-141.462 278.827 -139.353 276.719 -136.541 276.016C-136.541 277.421 -136.776 279.061 -136.073 279.998C-135.136 281.403 -132.793 282.106 -130.918 283.043C-128.81 284.214 -127.404 285.854 -126.232 287.728C-125.295 289.368 -124.592 291.476 -124.358 293.35C-124.124 294.755 -124.124 296.161 -124.124 297.566C-121.078 297.566 -118.735 296.161 -117.095 293.584C-115.689 291.007 -115.455 288.196 -117.095 285.62C-115.22 285.386 -113.815 285.151 -112.409 284.449C-110.769 283.746 -109.597 282.34 -108.191 281.403C-105.848 279.998 -102.568 280.232 -99.5225 280.701C-102.568 279.53 -105.38 278.124 -106.786 275.782C-107.723 274.376 -107.957 272.502 -108.894 271.097C-109.597 269.926 -110.769 268.989 -112.409 267.818C-109.831 266.412 -108.426 263.835 -108.426 260.79C-108.426 257.745 -110.066 255.403 -112.643 253.997C-113.346 255.169 -114.049 256.34 -114.986 257.511C-116.158 259.151 -117.798 260.556 -119.438 261.493C-121.312 262.664 -123.421 263.367 -125.764 263.133C-127.872 263.133 -130.215 262.43 -131.621 263.133C-132.558 263.835 -133.261 265.007 -133.964 266.412C-136.073 264.304 -136.776 261.493 -135.838 258.682C-134.667 255.871 -132.324 254.232 -129.278 254.232C-133.027 252.358 -136.776 250.25 -138.416 246.97C-138.884 245.799 -139.353 244.393 -139.822 243.222C-140.993 240.411 -143.57 238.537 -146.148 236.664C-143.102 236.664 -139.822 236.898 -137.01 235.492C-135.838 234.79 -134.667 234.087 -133.496 233.618C-129.981 231.979 -125.998 232.916 -121.781 233.853C-124.124 231.979 -124.827 228.934 -123.655 226.123C-122.718 223.312 -120.375 221.438 -117.329 221.438C-117.563 222.843 -118.032 224.249 -117.563 225.42C-116.861 227.06 -114.752 227.997 -113.112 229.402C-111.237 230.808 -110.066 232.681 -109.363 234.79C-108.66 236.664 -108.426 238.772 -108.426 240.646C-108.426 242.051 -108.66 243.456 -108.894 244.862C-106.083 245.565 -103.271 244.393 -101.163 242.285C-99.2882 239.943 -98.8196 237.132 -99.7568 234.321C-97.8824 234.321 -96.2424 234.321 -95.0709 234.087C-93.4308 233.618 -92.025 232.447 -90.3849 231.979C-87.8077 231.042 -84.5275 231.745 -81.7159 232.916C-84.2932 231.276 -86.8705 229.402 -88.042 226.825C-88.7449 225.186 -88.7449 223.546 -89.2134 221.906C-89.682 220.735 -90.6191 219.564 -92.0249 218.159C-89.2134 217.222 -87.3391 214.879 -86.8705 211.834C-86.4019 208.789 -87.5733 206.212 -89.682 204.338C-90.6192 205.51 -91.5564 206.447 -92.4935 207.383C-93.8993 208.789 -95.7737 209.726 -97.6481 210.429C-99.7568 211.131 -101.865 211.6 -104.208 210.897C-106.317 210.429 -108.426 209.492 -110.066 209.96C-111.237 210.429 -112.174 211.6 -112.877 212.771C-114.752 210.429 -114.752 207.384 -113.346 204.807C-111.706 202.23 -109.129 201.059 -106.317 201.527C-109.597 198.951 -112.877 196.374 -114.049 192.861C-114.283 191.689 -114.517 190.284 -114.752 188.879C-115.455 185.833 -117.563 183.491 -119.672 181.149C-116.626 181.851 -113.346 182.554 -110.534 181.617C-109.363 181.383 -107.957 180.68 -106.786 180.212C-103.037 179.275 -99.2881 180.914 -95.3051 182.32C-97.1794 179.977 -97.4138 177.167 -96.008 174.356C-94.6022 171.779 -91.7906 170.374 -88.9791 170.842C-89.6819 172.248 -90.1506 173.653 -89.9164 174.824C-89.6821 176.464 -87.5733 177.869 -86.1675 179.509C-84.5274 181.149 -83.8246 183.257 -83.356 185.365C-82.8875 187.239 -83.1218 189.347 -83.356 191.455C-83.5903 192.861 -84.0589 194.032 -84.5275 195.437C-81.716 196.609 -78.9043 196.14 -76.5614 194.266C-74.2184 192.392 -73.2812 189.581 -73.7498 186.77C-71.8754 187.239 -70.4696 187.473 -69.0639 187.239C-67.1895 187.005 -65.7837 186.068 -64.1436 185.833C-61.3321 185.365 -58.5204 186.77 -55.7088 188.176C-58.0518 186.068 -60.3948 183.725 -60.8634 180.914C-61.0977 179.275 -60.8634 177.401 -61.332 175.761C-61.5663 174.356 -62.5036 173.184 -63.4407 171.545C-60.6292 171.076 -58.2861 169.202 -57.349 166.391C-56.4118 163.581 -56.8804 160.77 -58.9891 158.427C-60.1606 159.364 -61.0978 160.301 -62.2693 161.004C-63.9094 162.175 -65.7836 162.878 -67.8923 163.112C-70.001 163.581 -72.3439 163.346 -74.4526 162.409C-76.327 161.707 -78.4357 160.067 -80.0758 160.535C-81.2473 160.77 -82.4189 161.707 -83.356 162.878C-84.7618 160.301 -84.2932 157.256 -82.4188 155.148C-80.5444 152.806 -77.7328 152.103 -74.9212 153.04C-77.7328 149.995 -80.5444 146.95 -80.7787 142.967C-80.7787 141.796 -80.7787 140.391 -80.7787 138.985C-81.013 135.94 -82.6531 133.364 -84.2931 130.553C-81.2473 131.724 -78.4357 132.895 -75.3899 132.661C-73.9841 132.427 -72.8125 132.192 -71.4068 131.958C-67.658 131.724 -64.1437 133.832 -60.6292 136.174C-62.035 133.598 -61.8007 130.553 -59.9263 128.21C-58.0519 125.868 -55.2403 125.165 -52.4287 125.868C-53.1316 127.039 -54.0689 128.445 -54.0689 129.616C-54.0689 131.49 -52.4288 133.129 -51.2573 134.769C-50.0858 136.643 -49.6172 138.985 -49.6172 141.094C-49.6172 143.202 -50.0858 145.076 -50.7886 146.95C-51.2572 148.121 -51.9601 149.526 -52.663 150.697C-50.0858 152.103 -47.2743 152.337 -44.697 150.932C-42.1197 149.526 -40.7138 146.95 -40.4795 143.904C-38.8394 144.607 -37.4338 145.076 -36.028 145.31C-34.1536 145.31 -32.5135 144.841 -30.8734 144.841C-28.0619 144.841 -25.4845 146.715 -22.9072 148.589C-24.7816 146.013 -26.656 143.436 -26.656 140.625C-26.656 138.985 -25.9532 137.346 -26.1875 135.472C-26.1875 134.066 -26.656 132.661 -27.5932 131.021C-24.5474 131.021 -22.2044 129.382 -20.5643 126.805C-19.1585 124.228 -19.1586 121.183 -20.7987 118.841C-21.9702 119.543 -23.1415 120.246 -24.5473 120.715C-26.4217 121.417 -28.5304 121.886 -30.4048 121.886C-32.5134 121.886 -34.6221 121.417 -36.7308 120.246C-38.6052 119.075 -40.2454 117.435 -41.8854 117.435C-43.0569 117.435 -44.2283 118.372 -45.6341 119.075C-46.5713 116.264 -45.6341 113.453 -43.2911 111.579C-40.9482 109.705 -38.1366 109.471 -35.5594 110.877C-37.9023 107.363 -40.011 103.849 -39.7767 100.102C-39.7767 98.9303 -39.3081 97.5248 -39.0738 96.1194C-38.8395 93.0743 -40.011 90.2634 -41.1825 87.2183C-38.371 88.858 -35.7936 90.7319 -32.7478 90.7319C-31.5763 90.7319 -30.1704 90.7319 -28.7647 90.7319C-25.0159 90.9661 -21.9701 94.0113 -18.6899 96.5879C-19.6271 93.777 -18.9243 90.9661 -16.5813 89.0922C-14.2383 87.2183 -11.4267 86.7498 -8.84946 88.1552C-9.78665 89.3265 -10.9581 90.2634 -11.1924 91.4346C-11.4267 93.0743 -10.0209 95.1825 -9.31803 97.0564C-8.38084 99.1646 -8.38088 101.507 -8.61518 103.615C-9.08377 105.489 -9.78677 107.597 -10.724 109.237C-11.4268 110.408 -12.364 111.579 -13.3011 112.516C-11.1925 114.39 -8.14654 115.093 -5.33497 114.156C-2.52341 113.219 -0.649132 110.877 -0.180538 108.066C1.45954 109.237 2.63113 109.94 4.03692 110.174C5.677 110.642 7.55127 110.174 9.19135 110.642C12.0029 111.111 14.346 113.453 16.4547 115.796C15.0489 112.985 13.6431 110.174 14.1117 107.363C14.346 105.723 15.2831 104.084 15.5174 102.444C15.7517 101.038 15.5173 99.633 15.0487 97.7591C17.8603 98.2276 20.6719 97.2906 22.5463 94.9482C24.4207 92.6058 24.8893 89.7949 23.7178 86.984C22.312 87.4525 21.1405 87.921 19.7347 88.1553C17.8603 88.6237 15.7517 88.6237 13.643 88.1553C11.5344 87.6868 9.42572 86.9841 7.78564 85.3444C6.14556 83.939 4.97405 81.8308 3.09967 81.5965C1.92818 81.3623 0.522391 82.065 -0.883392 82.5335C-1.35199 79.4884 0.053831 76.9117 2.6311 75.5063C5.20837 74.1009 8.25416 74.3351 10.3628 76.209C8.72275 72.4611 7.08273 68.4791 8.25421 64.7312C8.48851 63.56 9.19138 62.1546 9.65998 60.9834C10.3629 57.9383 9.89424 54.8931 9.19135 51.848C11.5343 53.9562 13.8774 56.0644 16.9233 56.7671C18.0948 57.0013 19.5004 57.2355 20.9062 57.4698C24.655 58.4067 27.2323 61.6861 29.5752 65.1997C29.1066 62.1546 30.2782 59.578 32.8554 58.1725C35.4327 56.7671 38.2442 56.767 40.5872 58.641C39.4157 59.5779 38.2442 60.5149 37.7756 61.4519C37.0727 63.0916 38.2443 65.1997 38.7129 67.3079C39.1815 69.6503 38.9472 71.7584 38.2443 73.8666C37.5414 75.7405 36.3699 77.6145 35.1984 79.0199C34.2612 79.9569 33.3241 80.8938 32.1526 81.8308C34.027 84.1732 36.8384 85.1101 39.65 84.6416C42.4615 84.1732 44.8046 82.2993 45.976 79.4884C47.3818 80.8938 48.5534 81.8308 49.7249 82.2992C51.365 83.002 53.2392 83.002 54.645 83.4704C57.2223 84.4074 59.0966 86.9841 60.7367 89.795C59.7995 86.7498 58.8624 83.7047 60.0338 81.128C60.5024 79.4884 61.674 78.0829 62.1426 76.4432C62.6112 75.0378 62.6111 73.6324 62.3768 71.7584C65.1884 72.6954 68 72.2269 70.343 70.353C72.686 68.4791 73.3888 65.6682 72.9202 62.6231C71.5144 62.8573 70.1087 63.0916 68.7029 63.0916C66.5942 63.0916 64.7198 62.8573 62.8454 62.1546C60.7368 61.4519 58.8624 60.2807 57.4567 58.4068C56.0509 56.7671 55.1136 54.4246 53.4735 53.9562C52.3021 53.4877 50.8963 53.9562 49.4905 54.1904C49.7248 51.1453 51.3648 48.8029 54.1764 47.866C56.988 46.929 59.7995 47.6317 61.9082 49.9741C60.971 45.992 60.0339 41.7757 61.674 38.2621C62.1425 37.0909 63.0797 35.9197 63.5483 34.7485C64.7198 31.9376 64.7198 28.8925 64.7198 25.6132C66.5941 28.1898 68.7028 30.5322 71.2801 31.9376C72.4516 32.4061 73.8575 32.8746 75.029 33.3431C78.5434 34.9827 80.4177 38.7306 82.2921 42.4784C82.2921 39.4333 84.1665 37.0909 86.7438 36.154C89.5554 34.9828 92.3669 35.6855 94.4756 38.0279C93.0698 38.7306 91.8982 39.4333 91.1953 40.3703C90.2581 41.7757 90.961 44.1181 91.1953 46.2263C91.1953 48.5687 90.4926 50.6769 89.5554 52.5508C88.6182 54.1905 87.2123 55.8301 85.5723 57.0013C84.4008 57.9383 83.2293 58.641 82.0578 59.3437C83.4636 61.9204 86.0408 63.56 88.8524 63.56C91.8982 63.56 94.4755 62.1546 95.8813 59.578C97.0528 60.9834 97.99 62.1546 99.1615 63.0916C100.567 64.0286 102.442 64.2628 103.847 65.1997C106.19 66.6052 107.596 69.4161 108.768 72.4612C108.299 69.4161 108.065 66.1367 109.471 63.7943C110.174 62.3888 111.579 61.2177 112.516 59.578C113.219 58.4068 113.454 56.7671 113.688 54.8932C116.265 56.2986 119.077 56.2986 121.654 54.8932C124.231 53.4877 125.637 50.6769 125.637 47.866C124.231 47.866 122.826 47.866 121.42 47.6317C119.545 47.3975 117.437 46.6947 115.797 45.7578C113.922 44.5866 112.282 43.1811 111.111 41.073C110.173 39.199 109.471 36.8567 108.065 35.9197C106.893 35.217 105.487 35.4512 104.082 35.4512C104.785 32.6403 106.893 30.5322 109.939 30.0637C112.985 29.5952 115.562 30.7664 116.968 33.3431C116.734 29.1267 116.5 24.9104 118.843 21.8653C119.545 20.6941 120.717 19.7571 121.42 18.8201C123.294 16.4777 123.528 13.1984 123.997 10.1533C125.403 12.9642 127.043 15.7751 129.386 17.4148C130.557 18.1175 131.729 18.5859 132.9 19.5229C135.946 21.6311 137.352 25.6131 138.523 29.5952C138.992 26.7843 141.101 24.6762 144.147 23.9735C147.192 23.505 149.77 24.6761 151.41 27.0185C150.004 27.487 148.598 27.9556 147.895 28.8925C146.724 30.298 146.958 32.6404 146.724 34.7485C146.489 37.0909 145.318 38.9648 143.912 40.6045C142.741 42.01 141.101 43.4154 139.226 44.3524C138.055 45.0551 136.649 45.5235 135.478 45.992C136.415 48.8029 138.523 50.6769 141.569 51.3796C144.381 51.8481 147.192 50.9111 149.067 48.8029C149.77 50.4426 150.707 51.848 151.644 52.785C152.816 53.9562 154.69 54.6589 155.861 55.8301C157.97 57.7041 158.907 60.7492 159.61 63.7943C159.61 60.5149 160.079 57.4698 161.953 55.3616C163.125 54.1904 164.53 53.2535 165.702 51.848C166.639 50.6768 167.108 49.2714 167.576 47.6317C169.919 49.5056 172.731 49.9741 175.542 48.8029C178.354 47.6317 180.228 45.5235 180.463 42.4784C179.057 42.2442 177.651 42.0099 176.48 41.5415C174.605 40.8387 172.731 39.9018 171.091 38.7306C169.451 37.3251 168.045 35.6855 167.342 33.3431C166.639 31.2349 166.639 28.8925 165.233 27.7213C164.296 27.0186 162.89 26.7844 161.25 26.5501C162.422 23.7392 164.765 22.0995 167.811 22.3337C170.856 22.3337 173.199 23.9735 174.371 26.7844C174.839 22.568 175.542 18.5859 178.12 15.775C179.057 14.8381 180.228 14.1354 181.165 13.1984C183.274 11.0902 184.211 8.04511 185.383 4.99998C186.32 8.04511 187.257 11.0902 189.6 13.1984C190.537 14.1354 191.709 14.8381 192.646 15.775C195.223 18.3517 195.926 22.568 196.395 26.7844C197.566 23.9735 199.909 22.3337 202.955 22.3337C206.001 22.3337 208.344 23.9735 209.515 26.5501C208.11 26.7844 206.47 27.0186 205.767 27.7213C204.361 28.8925 204.361 31.2349 203.658 33.3431C202.955 35.6855 201.549 37.3251 199.909 38.7306C198.269 39.9018 196.629 41.073 194.52 41.5415C193.115 42.01 191.943 42.2442 190.537 42.4784C191.006 45.2893 192.88 47.6317 195.458 48.8029C198.269 49.9741 201.081 49.5057 203.424 47.6317C203.892 49.5057 204.595 50.9111 205.298 51.848C206.47 53.2535 207.875 54.1904 209.047 55.3616C210.921 57.4698 211.156 60.7492 211.39 63.7943C212.093 60.7492 212.796 57.7041 215.139 55.8301C216.31 54.6589 218.184 54.1904 219.356 52.785C220.293 51.848 221.23 50.4426 221.933 48.8029C223.808 51.1453 226.619 52.0823 229.431 51.3796C232.242 50.9111 234.585 48.8029 235.522 45.992C234.351 45.5235 232.945 45.0551 231.774 44.3524C229.899 43.4154 228.259 42.01 227.088 40.6045C225.682 38.9648 224.745 37.0909 224.276 34.7485C224.042 32.6404 224.276 30.298 223.105 28.8925C222.402 27.9556 220.996 27.487 219.59 27.0186C221.23 24.4419 223.808 23.2707 226.853 23.9735C229.665 24.4419 231.774 26.5501 232.477 29.5952C233.648 25.6131 235.054 21.6311 238.1 19.5229C239.271 18.8202 240.443 18.3517 241.614 17.4148C244.191 15.7751 245.597 12.9642 247.003 10.1533C247.472 13.4327 247.94 16.4777 249.58 18.8201C250.283 19.9913 251.455 20.9284 252.158 21.8653C254.266 24.9104 254.266 29.1267 254.032 33.3431C255.438 30.7664 258.249 29.5952 261.061 30.0637C264.107 30.5322 266.215 32.6403 266.918 35.4512C265.512 35.4512 263.872 35.217 262.935 35.9197C261.529 36.8567 260.827 39.199 259.889 41.073C258.718 43.1811 257.078 44.5866 255.203 45.7578C253.563 46.6947 251.455 47.3975 249.58 47.6317C248.175 47.866 246.769 47.866 245.363 47.866C245.363 50.9111 246.769 53.4878 249.346 54.8932C251.923 56.2986 254.735 56.5329 257.312 54.8932C257.546 56.7671 257.781 58.1726 258.484 59.578C259.186 61.2177 260.592 62.3889 261.529 63.7943C262.935 66.1367 262.701 69.4161 262.232 72.4612C263.404 69.4161 264.81 66.6052 267.153 65.1997C268.558 64.2628 270.433 64.0286 271.839 63.0916C273.01 62.3889 273.947 61.2177 275.119 59.578C276.524 62.1546 279.102 63.56 282.148 63.56C285.193 63.56 287.536 61.9204 288.942 59.3437C287.771 58.641 286.599 57.9383 285.428 57.0013C283.788 55.8301 282.382 54.1905 281.445 52.5508C280.273 50.6769 279.57 48.5687 279.805 46.2263C279.805 44.1181 280.507 41.7757 279.805 40.3703C279.102 39.4333 277.93 38.7306 276.524 38.0279C278.633 35.9197 281.445 35.217 284.256 36.154C287.068 37.0909 288.708 39.6675 288.708 42.4784C290.582 38.7306 292.691 34.9827 295.971 33.3431C297.143 32.8746 298.548 32.4061 299.72 31.9376C302.531 30.7664 304.406 28.1898 306.28 25.6132C306.28 28.8925 306.046 31.9376 307.452 34.7485C308.155 35.9197 308.857 37.0909 309.326 38.2621C310.966 41.7757 310.029 45.7578 309.092 49.9741C310.966 47.6317 314.012 46.929 316.824 47.866C319.635 48.803 321.509 51.1453 321.509 54.1904C320.104 53.9562 318.698 53.4877 317.526 53.9562C315.886 54.6589 314.949 56.7671 313.543 58.4068C312.138 60.2807 310.263 61.4519 308.155 62.1546C306.28 62.8573 304.172 63.0916 302.297 63.0916C300.891 63.0916 299.486 62.8573 298.08 62.6231C297.611 65.434 298.548 68.2448 300.657 70.353C303 72.2269 305.812 72.6954 308.623 71.7584C308.623 73.6324 308.623 75.2721 308.857 76.4433C309.326 78.0829 310.497 79.4884 310.966 81.1281C311.903 83.7047 311.2 86.9841 310.029 89.795C311.669 87.2183 313.543 84.6417 316.121 83.4705C317.761 82.7677 319.401 82.7677 321.041 82.2993C322.212 81.8308 323.384 80.8939 324.79 79.4884C325.727 82.2993 328.07 84.1732 331.116 84.6417C334.162 85.1101 336.739 83.939 338.613 81.8308C337.442 80.8939 336.504 79.9569 335.567 79.0199C334.162 77.6145 333.224 75.7405 332.521 73.8666C331.819 71.7584 331.35 69.6503 332.053 67.3079C332.521 65.1997 333.459 63.0916 332.99 61.4519C332.521 60.2807 331.35 59.3437 330.178 58.641C332.521 56.7671 335.567 56.7671 338.145 58.1725C340.722 59.578 341.893 62.3889 341.425 65.1998C344.002 61.9204 346.579 58.641 350.094 57.4698C351.265 57.2355 352.671 57.0013 354.077 56.7671C357.123 56.0644 359.466 53.9562 361.809 51.848C361.106 54.8932 360.403 57.9383 361.34 60.9834C361.574 62.1546 362.277 63.56 362.746 64.7312C363.683 68.4791 362.043 72.2269 360.637 76.209C362.98 74.3351 365.792 74.1009 368.603 75.5063C371.18 76.9118 372.586 79.4884 372.118 82.5335C370.712 81.8308 369.306 81.3623 368.135 81.5966C366.26 81.8308 365.089 83.939 363.449 85.3444C361.809 86.9841 359.7 87.6868 357.591 88.1553C355.717 88.3895 353.608 88.3895 351.5 88.1553C350.094 87.921 348.922 87.4525 347.516 86.9841C346.345 89.7949 346.814 92.6058 348.688 94.9482C350.562 97.2906 353.374 98.2276 356.185 97.7591C355.717 99.6331 355.483 101.038 355.717 102.444C355.951 104.318 356.888 105.723 357.123 107.363C357.591 110.174 356.185 112.985 354.78 115.796C356.888 113.453 359.231 111.111 362.043 110.642C363.683 110.408 365.557 110.642 367.197 110.174C368.603 109.94 369.775 109.237 371.415 108.066C371.883 110.877 373.758 113.219 376.569 114.156C379.381 115.093 382.192 114.624 384.535 112.516C383.598 111.345 382.661 110.408 381.958 109.237C380.787 107.597 380.084 105.723 379.849 103.615C379.381 101.507 379.615 99.1646 380.552 97.0564C381.255 95.1825 382.895 93.0743 382.427 91.4346C382.192 90.2634 381.255 89.0922 380.084 88.1553C382.661 86.7498 385.707 87.2183 387.816 89.0922C390.159 90.9661 390.861 93.777 389.924 96.5879C392.97 93.777 396.016 90.9662 399.999 90.7319C401.17 90.7319 402.576 90.7319 403.982 90.7319C407.028 90.4977 409.605 88.858 412.417 87.2183C411.245 90.2634 410.074 93.0743 410.308 96.1194C410.308 97.5249 410.777 98.6961 411.011 100.102C411.245 103.849 409.137 107.363 406.794 110.877C409.371 109.471 412.417 109.705 414.525 111.579C416.634 113.453 417.806 116.264 416.868 119.075C415.697 118.372 414.291 117.435 413.12 117.435C411.245 117.435 409.605 119.075 407.965 120.246C406.091 121.417 403.748 121.886 401.639 121.886C399.53 121.886 397.656 121.417 395.782 120.715C394.61 120.246 393.204 119.543 392.033 118.841C390.627 121.417 390.393 124.228 391.799 126.805C393.204 129.382 395.782 130.787 398.828 131.021C398.125 132.661 397.656 134.066 397.422 135.472C397.422 137.346 397.89 138.985 397.89 140.625C397.89 143.436 396.016 146.013 394.142 148.589C396.719 146.715 399.296 144.841 402.108 144.841C403.748 144.841 405.388 145.31 407.262 145.31C408.668 145.31 410.074 144.841 411.714 143.904C411.714 146.95 413.12 149.292 415.931 150.932C418.509 152.337 421.554 152.337 423.897 150.697C423.194 149.526 422.492 148.355 422.023 146.95C421.32 145.076 420.851 142.967 420.851 141.094C420.851 138.985 421.32 136.643 422.492 134.769C423.663 132.895 425.303 131.255 425.303 129.616C425.303 128.445 424.366 127.273 423.663 125.868C426.475 124.931 429.286 125.868 431.161 128.21C433.035 130.553 433.269 133.364 431.863 136.175C435.378 133.832 438.892 131.724 442.641 131.958C443.813 131.958 445.218 132.427 446.624 132.661C449.67 132.895 452.482 131.724 455.527 130.553C453.887 133.129 452.013 135.94 452.013 138.985C452.013 140.391 452.013 141.562 452.013 142.967C451.779 146.715 448.733 149.76 446.156 153.04C448.967 152.103 451.779 152.806 453.653 155.148C455.527 157.49 455.996 160.301 454.59 162.878C453.419 161.941 452.482 160.77 451.31 160.535C449.67 160.301 447.561 161.707 445.687 162.409C443.578 163.346 441.235 163.346 439.127 163.112C437.252 162.878 435.144 161.941 433.504 161.004C432.332 160.301 431.16 159.364 430.223 158.427C428.349 160.535 427.646 163.581 428.583 166.391C429.52 169.202 431.863 171.076 434.675 171.545C433.738 173.184 432.801 174.356 432.566 175.761C432.098 177.401 432.566 179.275 432.098 180.914C431.629 183.725 429.286 186.068 426.943 188.176C429.755 186.77 432.566 185.365 435.378 185.833C437.018 186.068 438.658 187.005 440.298 187.239C441.704 187.473 443.11 187.239 444.984 186.77C444.515 189.581 445.453 192.392 447.796 194.266C450.139 196.14 452.95 196.609 455.762 195.437C455.293 194.032 454.825 192.861 454.59 191.455C454.122 189.581 454.122 187.473 454.59 185.365C455.059 183.257 455.762 181.149 457.402 179.509C458.808 177.869 460.916 176.698 461.151 174.824C461.385 173.653 460.682 172.248 460.213 170.842C463.259 170.374 465.837 171.779 467.242 174.356C468.648 176.932 468.414 179.977 466.539 182.32C470.288 180.68 474.271 179.041 478.02 180.212C479.191 180.446 480.597 181.149 481.769 181.617C484.58 182.554 487.86 181.851 490.906 181.149C488.798 183.491 486.689 185.833 485.986 188.879C485.752 190.05 485.517 191.455 485.283 192.861C484.346 196.609 481.066 198.951 477.551 201.528C480.597 201.059 483.174 202.465 484.58 204.807C485.986 207.384 485.986 210.194 484.112 212.771C483.174 211.6 482.237 210.429 481.3 209.96C479.66 209.257 477.551 210.429 475.443 210.897C473.1 211.366 470.991 211.131 468.882 210.429C467.008 209.726 465.134 208.555 463.728 207.384C462.791 206.447 461.853 205.275 460.916 204.338C458.573 206.212 457.636 209.023 458.105 211.834C458.573 214.645 460.448 216.987 463.259 218.159C461.853 219.564 460.916 220.735 460.448 221.906C459.745 223.546 459.745 225.42 459.276 226.825C458.339 229.402 455.762 231.276 452.95 232.916C455.996 231.979 459.042 231.042 461.619 231.979C463.259 232.447 464.665 233.618 466.305 234.087C467.711 234.555 469.117 234.555 470.991 234.321C470.054 237.132 470.522 239.943 472.397 242.285C474.271 244.628 477.083 245.565 480.129 244.862C479.894 243.457 479.66 242.051 479.66 240.646C479.66 238.537 479.894 236.664 480.597 234.79C481.3 232.681 482.472 230.808 484.346 229.402C485.986 227.997 488.329 227.06 488.798 225.42C489.266 224.249 488.798 222.843 488.563 221.438C491.609 221.672 493.952 223.312 494.889 226.123C495.827 228.934 495.124 231.745 492.781 233.853C496.764 232.916 500.981 231.979 504.496 233.618C505.667 234.087 506.839 235.024 508.01 235.492C510.822 236.664 513.867 236.664 517.148 236.664C514.57 238.537 512.227 240.646 510.822 243.222C510.353 244.394 509.884 245.799 509.416 246.97C507.776 250.484 504.027 252.358 500.278 254.232C503.324 254.232 505.667 256.106 506.838 258.682C507.776 261.493 507.073 264.304 504.964 266.412C504.261 265.007 503.558 263.835 502.621 263.133C501.215 262.196 498.872 262.899 496.764 263.133C494.421 263.133 492.312 262.43 490.438 261.493C488.798 260.556 487.158 259.151 485.986 257.511C485.049 256.34 484.346 255.169 483.643 253.997C481.066 255.403 479.426 257.979 479.426 260.79C479.426 263.835 480.832 266.412 483.409 267.818C482.003 268.989 480.832 269.926 479.894 271.097C478.957 272.502 478.489 274.376 477.786 275.782C476.38 278.124 473.568 279.53 470.522 280.701C473.568 280.232 476.848 279.998 479.191 281.403C480.597 282.34 481.769 283.512 483.409 284.449C484.58 285.151 486.22 285.386 488.095 285.62C486.689 288.196 486.689 291.242 488.095 293.584C489.501 296.161 492.312 297.566 495.124 297.566C495.124 296.161 495.124 294.755 495.358 293.35C495.592 291.242 496.295 289.368 497.232 287.728C498.404 285.854 499.81 284.214 501.918 283.043C503.793 282.106 506.136 281.403 507.073 279.998C507.776 278.827 507.541 277.421 507.541 276.016C510.353 276.719 512.462 278.827 512.93 281.872C513.399 284.917 512.227 287.494 509.65 288.899C513.867 288.665 518.085 288.665 521.131 290.773C522.302 291.476 523.239 292.647 524.176 293.35C526.519 295.224 529.8 295.458 532.845 295.926C530.034 297.332 527.222 298.971 525.582 301.314C524.879 302.485 524.411 303.656 523.474 304.827C521.365 307.873 517.382 309.278 513.399 310.449C516.21 311.152 518.319 313.026 519.022 316.071C519.491 318.882 518.319 321.693 515.976 323.332C515.507 321.927 515.039 320.522 514.102 319.819C512.696 318.648 510.353 318.882 508.244 318.648C505.901 318.413 504.027 317.242 502.387 315.837C500.981 314.666 499.575 313.026 498.638 311.152C497.935 309.981 497.467 308.575 496.998 307.404C494.186 308.341 492.312 310.683 491.609 313.494C491.141 316.305 492.078 319.116 494.186 320.99C492.546 321.927 491.141 322.63 490.203 323.567C489.032 324.738 488.329 326.612 487.158 327.783C485.283 329.891 482.237 330.828 479.191 331.531C482.237 331.531 485.517 331.999 487.626 333.873C488.798 334.81 489.735 336.45 491.141 337.621C492.312 338.324 493.718 339.027 495.358 339.495C493.484 341.837 493.015 344.648 494.186 347.459C495.358 350.27 497.467 352.144 500.512 352.612C500.747 351.207 500.981 349.802 501.45 348.63C502.153 346.756 503.09 344.883 504.261 343.243C505.667 341.603 507.307 340.198 509.65 339.495C511.759 338.792 514.102 338.792 515.273 337.387C515.976 336.45 516.21 335.045 516.445 333.639C519.256 334.81 520.896 337.153 520.662 340.198C520.662 343.243 519.022 345.585 516.21 346.756C520.428 347.225 524.411 347.928 527.222 350.504C528.16 351.441 528.862 352.613 529.8 353.549C531.908 355.658 534.954 356.595 538 357.766M-55.9432 358L-32.7478 344.414L-8.61519 344.414L-3.22642 358M376.803 358L382.192 344.414L406.325 344.414L429.52 358M279.102 358L273.713 344.414L249.814 344.414L226.385 358M94.4754 358L99.8642 344.414L123.997 344.414L147.192 358M213.733 358L205.298 353.081L210.219 344.414L200.378 344.414L200.378 334.576L191.709 339.495L186.789 331.062L181.869 339.495L173.434 334.576L173.434 344.414L163.593 344.414L168.514 353.081L159.845 358M442.407 358L450.842 353.081L445.921 344.648L455.762 344.648L455.762 334.81L464.197 339.729L466.774 335.044M-93.1962 334.81L-90.3848 339.495L-81.95 334.576L-81.95 344.414L-72.1095 344.414L-77.0298 352.847L-68.595 357.766M321.744 295.692L305.577 305.062L302.063 291.476L292.222 281.638L308.154 272.268L308.154 287.962L321.744 295.692ZM200.378 210.194L200.378 228.699L186.788 224.951L173.433 228.699L173.433 210.194L186.788 217.924L200.378 210.194ZM65.4225 272.268L81.589 281.638L71.7485 291.476L67.9999 305.062L52.0677 295.692L65.4225 287.962L65.4225 272.268ZM287.068 338.089L307.92 338.089L301.594 314.431L283.553 324.972L273.947 317.476L275.822 329.423L260.592 338.089L278.165 338.089L282.616 349.567L287.068 338.089ZM272.775 308.341L284.256 317.242L299.954 308.341L296.205 294.755L286.365 284.917L270.667 294.052L272.775 308.341ZM263.872 290.773L281.913 280.232L264.575 262.898L254.032 280.935L242.083 279.295L249.58 288.899L240.911 303.89L255.906 295.223L265.512 302.719L263.872 290.773ZM236.46 272.034L250.752 274.142L259.889 258.448L250.049 248.61L236.46 244.862L227.556 260.556L236.46 272.034ZM219.824 261.259L230.368 243.222L206.704 236.898L206.704 257.745L195.223 262.196L206.704 266.646L206.704 284.214L215.373 268.989L227.322 270.863L219.824 261.259ZM186.788 258.916L200.378 253.294L200.378 235.258L186.788 231.51L173.433 235.258L173.433 253.294L186.788 258.916ZM167.108 257.745L167.108 236.898L143.444 243.222L153.753 261.259L146.255 270.863L158.439 268.989L167.108 284.214L167.108 266.646L178.354 262.196L167.108 257.745ZM137.118 272.034L146.255 260.556L137.118 244.862L123.763 248.61L113.688 258.448L122.826 274.142L137.118 272.034ZM119.545 280.935L109.236 262.898L91.8983 280.232L109.939 290.773L108.065 302.719L117.671 295.223L132.666 303.89L123.997 288.899L131.494 279.295L119.545 280.935ZM101.036 308.341L102.91 294.052L87.2125 284.917L77.372 294.755L73.8576 308.341L89.5555 317.242L101.036 308.341ZM90.024 324.972L71.9832 314.431L65.6572 338.089L86.5095 338.089L90.9612 349.567L95.6472 338.089L112.985 338.089L97.9901 329.423L99.6302 317.476L90.024 324.972ZM368.838 338.089L347.985 338.089L354.311 314.431L372.352 324.972L381.958 317.476L380.318 329.423L395.313 338.089L377.975 338.089L373.289 349.567L368.838 338.089ZM385.238 294.052L383.364 308.341L371.883 317.242L356.186 308.341L359.7 294.755L369.54 284.917L385.238 294.052ZM392.267 290.773L374.227 280.232L391.564 262.898L401.874 280.935L414.057 279.295L406.325 288.899L415.229 303.89L399.999 295.223L390.393 302.719L392.267 290.773ZM428.583 260.556L419.68 272.034L405.154 274.142L396.016 258.448L406.091 248.61L419.446 244.862L428.583 260.556ZM449.436 284.214L440.767 269.223L428.818 270.863L436.315 261.259L426.006 243.222L441.704 239.006C445.687 247.673 449.436 256.574 452.482 265.709L449.67 266.881L449.436 284.214ZM308.857 310.449L307.217 311.152L314.48 338.089L341.425 338.089L348.688 311.152L328.07 299.206L324.789 301.08L308.857 310.449ZM347.751 287.962L334.396 295.692L350.328 305.062L354.077 291.476L363.917 281.638L347.751 272.268L347.751 287.962ZM274.884 232.213L261.529 228.699L251.689 218.861L239.74 239.24L253.329 242.754L263.169 252.592L274.884 232.213ZM278.399 199.419L287.302 210.897L278.164 226.591L264.81 222.843L254.969 213.005L264.107 197.311L278.399 199.419ZM420.852 202.23L408.903 214.176L422.492 237.6L438.658 233.15C433.269 222.609 427.412 212.302 420.852 202.23ZM404.216 218.861L394.376 228.699L381.021 232.213L392.736 252.592L402.576 242.754L416.165 239.24L404.216 218.861ZM374.695 233.853L347.751 241.114L347.751 265.006L368.603 276.953L388.284 257.277L374.695 233.853ZM328.07 253.529L341.425 261.493L341.425 242.754L328.07 246.502L314.481 242.754L314.481 261.493L328.07 253.529ZM267.855 257.277L287.536 276.953L308.154 265.006L308.154 241.114L281.21 233.853L267.855 257.277ZM381.958 167.563L396.953 176.23L399.296 174.356C405.622 181.617 411.48 189.113 416.868 197.077L405.388 208.555L395.079 190.518L383.13 192.158L390.627 182.554L381.958 167.563ZM368.603 210.897L377.507 199.419L392.033 197.311L401.171 213.005L391.096 222.843L377.741 226.591L368.603 210.897ZM360.637 201.762L368.603 200.591L361.105 210.194L371.414 228.231L347.75 234.555L347.75 213.708L336.504 209.258L347.75 204.573L347.75 187.239L356.419 202.465L360.637 201.762ZM334.162 215.113L341.425 218.159L341.425 236.195L328.07 239.943L314.481 236.195L314.481 218.159L321.978 215.113L328.07 212.537L334.162 215.113ZM308.154 187.239L308.154 204.573L319.401 209.258L308.154 213.708L308.154 234.555L284.49 228.231L295.034 210.194L287.536 200.591L295.268 201.762L299.485 202.465L308.154 187.239ZM260.827 190.518L250.283 208.555L232.945 191.221L250.986 180.914L249.346 168.734L258.952 176.23L273.947 167.563L265.278 182.554L272.776 192.158L260.827 190.518ZM230.602 154.211L242.083 163.112L244.192 177.401L228.259 186.536L218.653 176.698L214.904 163.346L230.602 154.211ZM231.305 146.481L213.264 157.022L206.938 133.364L227.791 133.364L232.242 121.886L236.694 133.364L254.032 133.364L239.037 142.031L240.911 153.977L231.305 146.481ZM223.339 100.101L228.728 113.453L223.339 127.039L205.298 127.039L201.549 113.453L205.298 100.101L223.339 100.101ZM211.156 78.0828C220.762 79.0198 230.134 80.1909 239.506 82.0649L239.037 85.11L254.032 93.7769L236.694 93.7769L232.242 105.02L227.556 93.7769L206.704 93.7769L211.156 78.0828ZM206.704 230.339L233.648 237.601L247.003 214.177L227.322 194.5L206.704 206.447L206.704 230.339ZM206.704 183.491L206.704 199.185L222.636 189.815L212.795 179.977L209.281 166.626L193.114 175.761L206.704 183.491ZM121.888 218.861L112.048 228.699L98.6929 232.213L110.408 252.592L120.248 242.754L133.837 239.24L121.888 218.861ZM95.1784 199.419L109.705 197.311L118.608 213.005L108.768 222.843L95.4128 226.591L86.2752 210.897L95.1784 199.419ZM204.595 77.6145C192.646 76.9118 180.697 76.9118 168.982 77.6145L173.199 93.7771L200.143 93.7771L200.612 92.1374L204.595 77.6145ZM175.074 100.101L178.588 113.453L175.074 127.039L198.738 127.039L194.989 113.453L198.738 100.101L175.074 100.101ZM173.434 133.364L166.17 160.067L186.789 172.248L207.641 160.067L200.378 133.364L173.434 133.364ZM167.107 183.491L180.462 175.761L164.296 166.626L160.781 179.977L150.941 189.815L167.107 199.185L167.107 183.491ZM140.163 237.601L167.108 230.339L167.108 206.447L146.255 194.5L126.574 214.177L140.163 237.601ZM119.545 93.7769L134.54 85.11L134.072 82.0649C143.444 80.1909 153.05 79.0198 162.422 78.0828L166.639 93.7769L145.787 93.7769L141.101 105.02L136.649 93.7769L119.545 93.7769ZM150.238 127.039L144.85 113.453L150.238 100.101L168.514 100.101L172.028 113.453L168.514 127.039L150.238 127.039ZM119.546 133.364L136.883 133.364L141.335 121.886L146.021 133.364L166.874 133.364L160.548 157.022L142.507 146.481L132.9 153.977L133.838 146.247L134.54 142.031L119.546 133.364ZM85.338 113.453L108.534 100.101L132.666 100.101L138.055 113.453L132.666 127.039L108.534 127.039L99.1616 121.417L85.338 113.453ZM136.649 158.896L142.975 154.211L158.673 163.346L155.159 176.698L145.318 186.536L129.62 177.401L131.495 163.112L136.649 158.896ZM99.6299 167.563L114.859 176.23L124.465 168.734L122.591 180.914L140.632 191.221L123.294 208.555L112.985 190.518L100.801 192.158L108.533 182.554L99.6299 167.563ZM78.3087 201.762L86.2749 200.591L78.7774 210.194L89.0865 228.231L65.4223 234.555L65.4223 213.708L54.1761 209.258L65.4223 204.573L65.4223 187.239L74.0914 202.465L78.3087 201.762ZM51.8336 215.113L59.0969 218.158L59.0969 236.195L45.7419 239.943L32.1527 236.195L32.1527 218.158L39.6501 215.113L45.7419 212.537L51.8336 215.113ZM37.0726 209.258L25.8264 213.708L25.8264 234.555L2.16231 228.231L12.7056 210.194L5.20828 200.591L12.9401 201.762L17.1574 202.465L25.8264 187.239L25.8264 204.573L37.0726 209.258ZM-18.2213 197.311L-3.92926 199.419L4.974 210.897L-4.1635 226.591L-17.5185 222.843L-27.359 213.005L-18.2213 197.311ZM-8.38084 167.563L-17.0497 182.554L-9.55227 192.158L-21.7356 190.518L-32.0448 208.555L-43.5254 197.077C-38.1366 189.113 -32.2792 181.617 -25.9531 174.356L-23.6101 176.23L-8.38084 167.563ZM86.2753 276.953L105.956 257.277L92.3669 233.853L65.4228 241.114L65.4228 265.006L86.2753 276.953ZM45.7419 253.529L59.0969 261.493L59.0969 242.754L45.7419 246.502L32.1527 242.754L32.1527 261.493L45.7419 253.529ZM-65.0806 233.15L-48.9142 237.6L-35.325 214.176L-47.274 202.23C-53.8344 212.302 -59.6917 222.609 -65.0806 233.15ZM-42.5885 239.24L-28.9993 242.754L-19.1587 252.592L-7.44386 232.213L-20.7988 228.699L-30.6393 218.861L-42.5885 239.24ZM-14.4729 257.277L5.20812 276.953L25.8262 265.006L25.8262 241.114L-1.1179 233.853L-14.4729 257.277ZM25.8264 287.962L25.8264 272.268L9.8942 281.638L19.7345 291.476L23.249 305.062L39.4156 295.692L25.8264 287.962ZM59.0966 338.089L66.3598 311.152L45.7416 299.206L24.8891 311.152L32.1524 338.089L59.0966 338.089ZM-75.6243 284.214L-75.6243 266.881L-78.4359 265.709C-75.39 256.574 -71.6413 247.907 -67.6582 239.006L-51.9603 243.222L-62.2694 261.259L-54.7719 270.863L-66.9553 269.223L-75.6243 284.214ZM-31.5761 274.142L-45.8683 272.034L-54.7716 260.556L-45.6339 244.862L-32.2791 248.61L-22.4386 258.448L-31.5761 274.142ZM-28.2964 280.935L-17.753 262.898L-0.414937 280.232L-18.4559 290.773L-16.8157 302.719L-26.4219 295.223L-41.4169 303.89L-32.7479 288.899L-40.2454 279.295L-28.2964 280.935ZM1.92786 317.242L-9.5527 308.341L-11.6613 294.052L4.03659 284.917L13.877 294.755L17.6258 308.341L1.92786 317.242ZM-21.7356 338.089L-6.74069 329.423L-8.38074 317.476L1.22548 324.972L19.2664 314.431L25.5923 338.089L4.73992 338.089L0.288236 349.567L-4.39773 338.089L-21.7356 338.089ZM-47.7426 314.9L-26.8902 302.953L-15.644 311.855L-13.5352 326.143L-34.3877 338.089L-61.3319 338.089L-53.1315 324.503L-47.7426 314.9ZM-72.5781 329.188L-75.6239 331.062L-75.6239 338.089L-68.595 338.089L-58.7547 321.224L-72.5781 329.188ZM59.0969 268.755L45.7419 261.025L32.1527 268.755L32.1527 284.214L45.7419 291.944L59.0969 284.214L59.0969 268.755ZM-81.9504 307.638L-81.9504 327.314L-88.2765 330.828L-91.791 324.738L-84.2935 311.855L-81.9504 307.638ZM-75.624 296.863L-63.6749 276.016L-49.3828 277.89L-40.4794 289.367L-52.4286 310.215L-62.0348 315.602L-75.624 323.801L-75.624 296.863ZM-62.2693 354.252L-68.361 350.739L-64.8466 344.414L-45.3999 344.414L-62.2693 354.252ZM-89.9161 308.575C-88.0418 297.566 -85.2303 286.791 -82.1844 276.016L-82.1844 294.989L-89.9161 308.575ZM25.8262 133.364L25.8262 140.391L8.95685 150.229L11.2998 146.247L18.7974 133.364L25.8262 133.364ZM200.378 202.699L200.378 187.239L186.788 179.509L173.433 187.239L173.433 202.699L186.788 210.429L200.378 202.699ZM76.2005 100.101L95.8814 100.101L79.0122 109.94L72.6861 106.192L76.2005 100.101ZM74.5604 136.409L72.6861 133.364L65.4228 133.364L65.4228 140.391L82.5266 150.229L74.5604 136.409ZM49.2564 146.715L53.0051 140.625L59.0969 144.139L59.0969 163.581L49.2564 146.715ZM88.852 161.238L100.801 182.086L91.898 193.563L77.3716 195.437L71.0455 184.194L65.4224 174.59L65.4224 147.887L88.852 161.238ZM123.294 84.1733L106.893 93.5429L91.1953 93.5429C101.739 90.0293 112.516 86.7499 123.294 84.1733ZM95.8814 127.039L76.2005 127.039L72.6861 120.715L79.0122 117.201L82.058 119.075L95.8814 127.039ZM79.9488 133.364L106.893 133.364L116.265 138.751L127.745 145.31L125.637 159.599L114.156 168.734L93.3038 156.553L79.9488 133.364ZM5.67702 142.968C-2.99198 150.229 -10.9581 157.959 -18.4556 165.923L-2.05471 156.553L5.67702 142.968ZM41.9931 146.715L32.1527 163.581L32.1527 144.139L38.4786 140.625L41.9931 146.715ZM2.63078 161.238L25.8262 147.886L25.8262 174.59L20.4375 184.194L13.877 195.437L-0.41504 193.563L-9.5527 182.086L2.63078 161.238ZM59.0969 176.464L59.0969 200.356L45.7419 205.744L32.1527 200.356L32.1527 176.464L45.7419 153.04L59.0969 176.464ZM297.377 100.101L300.891 106.192L294.8 109.94L291.52 108.066L277.696 100.101L297.377 100.101ZM328.07 153.04L341.425 176.464L341.425 200.356L328.07 205.744L314.481 200.356L314.481 176.464L328.07 153.04ZM331.584 146.715L341.425 163.581L341.425 144.139L335.333 140.625L331.584 146.715ZM328.07 291.944L341.425 284.214L341.425 268.755L328.07 261.025L314.481 268.755L314.481 284.214L328.07 291.944ZM347.751 133.364L355.014 133.364L362.512 146.247L364.855 150.229L347.751 140.391L347.751 133.364ZM371.18 161.238L383.129 182.086L374.226 193.563L359.7 195.437L353.374 184.194L347.75 174.59L347.75 147.887L371.18 161.238ZM324.321 146.715L320.807 140.625L314.481 144.139L314.481 163.581L324.321 146.715ZM291.285 150.229L301.125 133.364L308.154 133.364L308.154 140.391L291.285 150.229ZM296.205 195.437L281.913 193.563L272.775 182.086L284.959 161.238L308.154 147.887L308.154 174.59L302.765 184.194L296.205 195.437ZM367.9 142.968C376.335 150.229 384.535 157.959 392.267 165.923L375.866 156.554L367.9 142.968ZM282.382 93.7771C271.838 90.0292 261.295 86.7499 250.283 84.4075L266.684 93.7771L282.382 93.7771ZM297.377 127.039L277.696 127.039L294.8 117.201L300.891 120.715L297.377 127.039ZM288.474 113.453L265.044 127.039L241.146 127.039L235.522 113.453L241.146 100.101L265.044 100.101L274.65 105.489L288.474 113.453ZM280.273 156.553L259.421 168.734L247.94 159.599L246.066 145.31L266.918 133.364L293.628 133.364L280.273 156.553ZM458.105 311.855L465.602 324.738L461.854 330.828L455.762 327.314L455.762 307.638L458.105 311.855ZM438.658 344.414L442.173 350.739L435.847 354.252L418.977 344.414L438.658 344.414ZM463.493 308.575C461.619 297.566 458.807 286.791 455.762 276.016L455.762 294.989L463.493 308.575ZM446.155 329.188L449.436 331.062L449.436 338.09L442.172 338.09L440.298 335.044L432.332 321.224L446.155 329.188ZM426.006 310.215L414.057 289.367L422.96 277.89L437.252 276.016L449.436 296.863L449.436 323.801L435.612 315.602L426.006 310.215ZM434.909 338.089L407.965 338.089L387.113 326.143L389.221 311.855L400.702 302.953L421.32 314.9L434.909 338.089ZM217.482 344.414L213.967 350.739L220.059 354.252L237.163 344.414L217.482 344.414ZM156.096 344.414L136.649 344.414L153.519 354.252L159.845 350.739L156.096 344.414ZM167.108 331.062L150.004 321.224L159.844 338.09L167.108 338.09L167.108 331.062ZM138.992 314.9L118.374 302.953L106.893 311.855L104.785 326.143L125.637 338.089L152.581 338.089L138.992 314.9ZM173.434 307.638L173.434 327.314L179.526 330.828L183.274 324.738L181.4 321.458L173.434 307.638ZM167.108 296.863L154.924 276.016L140.632 277.89L131.729 289.367L143.678 310.215L167.108 323.801L167.108 296.863ZM200.378 327.314L200.378 307.638L190.537 324.738L194.052 330.828L200.378 327.314ZM186.788 318.414L200.378 295.224L200.378 271.097L186.788 265.709L173.433 271.097L173.433 295.224L186.788 318.414ZM209.75 329.188L206.704 331.062L206.704 338.09L213.733 338.09L223.573 321.224L209.75 329.188ZM229.899 310.215L241.849 289.367L232.945 277.89L218.653 276.016L206.704 296.863L206.704 323.801L220.528 315.602L229.899 310.215ZM229.197 324.269L220.996 338.089L247.94 338.089L268.793 326.143L266.918 311.855L255.438 302.953L234.585 314.9L229.197 324.269ZM314.481 127.039L304.64 127.039L309.56 118.607L301.126 113.687L309.56 108.769L306.749 104.084C320.807 110.642 333.927 118.372 346.579 127.039L341.19 127.039L341.19 136.877L332.756 131.958L327.836 140.391L322.915 131.958L314.481 136.877L314.481 127.039ZM32.1524 127.039L26.7635 127.039C39.4155 118.372 52.7705 110.642 66.594 104.084L63.7825 108.768L72.2172 113.687L63.7825 118.607L68.7027 127.039L58.8622 127.039L58.8622 136.877L50.4276 131.958L45.5073 140.391L40.5871 131.958L32.1524 136.877L32.1524 127.039Z" stroke="white" stroke-width="3" stroke-miterlimit="10"/>
</svg>
