<svg width="20" height="20" viewBox="0 0 20 20" fill="none" xmlns="http://www.w3.org/2000/svg">
<path d="M11.6809 3.92258C11.4313 3.68476 11.0353 3.69414 10.7975 3.94414C10.5594 4.19414 10.5694 4.58976 10.8191 4.82789L15.6134 9.37508H3.125C2.78 9.37508 2.5 9.65508 2.5 10.0001C2.5 10.3451 2.78 10.6251 3.125 10.6251H15.5934L10.8191 15.1726C10.5691 15.4107 10.5594 15.8063 10.7975 16.0563C10.9203 16.1851 11.085 16.2501 11.25 16.2501C11.405 16.2501 11.56 16.1929 11.6809 16.0776L17.1337 10.8838C17.37 10.6479 17.5 10.3341 17.5 10.0001C17.5 9.66601 17.37 9.35226 17.1228 9.1057L11.6809 3.92258Z" fill="white"/>
</svg>
