<svg width="60" height="60" viewBox="0 0 60 60" fill="none" xmlns="http://www.w3.org/2000/svg">
<g filter="url(#filter0_b)">
<circle cx="30" cy="30" r="30" fill="white" fill-opacity="0.25"/>
</g>
<path d="M39.1667 21.0416C39.1667 20.7211 39.0394 20.4138 38.8128 20.1872C38.5861 19.9606 38.2788 19.8333 37.9583 19.8333H31.9167C31.5962 19.8333 31.2889 19.9606 31.0622 20.1872C30.8356 20.4138 30.7083 20.7211 30.7083 21.0416C30.7083 21.3621 30.8356 21.6694 31.0622 21.896C31.2889 22.1226 31.5962 22.2499 31.9167 22.2499H35.0221L31.0587 26.2253C30.9455 26.3377 30.8556 26.4713 30.7943 26.6186C30.7329 26.7658 30.7013 26.9237 30.7013 27.0833C30.7013 27.2428 30.7329 27.4007 30.7943 27.5479C30.8556 27.6952 30.9455 27.8288 31.0587 27.9412C31.1711 28.0544 31.3047 28.1443 31.452 28.2057C31.5992 28.267 31.7572 28.2986 31.9167 28.2986C32.0762 28.2986 32.2341 28.267 32.3814 28.2057C32.5286 28.1443 32.6623 28.0544 32.7746 27.9412L36.75 23.9658V27.0833C36.75 27.4037 36.8773 27.7111 37.1039 27.9377C37.3305 28.1643 37.6379 28.2916 37.9583 28.2916C38.2788 28.2916 38.5861 28.1643 38.8128 27.9377C39.0394 27.7111 39.1667 27.4037 39.1667 27.0833V21.0416Z" fill="white"/>
<path d="M27.9412 31.0588C27.8289 30.9456 27.6953 30.8557 27.548 30.7943C27.4008 30.733 27.2428 30.7014 27.0833 30.7014C26.9238 30.7014 26.7659 30.733 26.6186 30.7943C26.4714 30.8557 26.3377 30.9456 26.2254 31.0588L22.25 35.0222V31.9168C22.25 31.5963 22.1227 31.2889 21.8961 31.0623C21.6695 30.8357 21.3621 30.7084 21.0417 30.7084C20.7212 30.7084 20.4139 30.8357 20.1872 31.0623C19.9606 31.2889 19.8333 31.5963 19.8333 31.9168V37.9584C19.8333 38.2789 19.9606 38.5862 20.1872 38.8128C20.4139 39.0395 20.7212 39.1668 21.0417 39.1668H27.0833C27.4038 39.1668 27.7111 39.0395 27.9378 38.8128C28.1644 38.5862 28.2917 38.2789 28.2917 37.9584C28.2917 37.638 28.1644 37.3306 27.9378 37.104C27.7111 36.8774 27.4038 36.7501 27.0833 36.7501H23.9658L27.9412 32.7747C28.0545 32.6623 28.1444 32.5287 28.2057 32.3815C28.2671 32.2342 28.2987 32.0763 28.2987 31.9168C28.2987 31.7572 28.2671 31.5993 28.2057 31.4521C28.1444 31.3048 28.0545 31.1712 27.9412 31.0588Z" fill="white"/>
<defs>
<filter id="filter0_b" x="-7" y="-7" width="74" height="74" filterUnits="userSpaceOnUse" color-interpolation-filters="sRGB">
<feFlood flood-opacity="0" result="BackgroundImageFix"/>
<feGaussianBlur in="BackgroundImage" stdDeviation="3.5"/>
<feComposite in2="SourceAlpha" operator="in" result="effect1_backgroundBlur"/>
<feBlend mode="normal" in="SourceGraphic" in2="effect1_backgroundBlur" result="shape"/>
</filter>
</defs>
</svg>
